SplineFontDB: 3.0
FontName: AsimovProBlk
FullName: Asimov Pro Black
FamilyName: Asimov Pro
Weight: Black
Copyright: Font data copyright Google 2014, Design modifications and new weights 2015-2016, Cannot Into Space Fonts
Version: 2.000980; 2014
ItalicAngle: 0
UnderlinePosition: -97
UnderlineWidth: 48
Ascent: 750
Descent: 250
InvalidEm: 0
sfntRevision: 0x00010000
LayerCount: 2
Layer: 0 0 "Back" 1
Layer: 1 0 "Fore" 0
XUID: [1021 1014 1531800021 19294]
StyleMap: 0x0000
FSType: 0
OS2Version: 3
OS2_WeightWidthSlopeOnly: 0
OS2_UseTypoMetrics: 0
CreationTime: 1221222574
ModificationTime: 1467090837
PfmFamily: 33
TTFWeight: 900
TTFWidth: 5
LineGap: 0
VLineGap: 0
Panose: 0 0 0 0 0 0 0 0 0 0
OS2TypoAscent: 750
OS2TypoAOffset: 0
OS2TypoDescent: -250
OS2TypoDOffset: 0
OS2TypoLinegap: 50
OS2WinAscent: 950
OS2WinAOffset: 0
OS2WinDescent: 250
OS2WinDOffset: 0
HheadAscent: 928
HheadAOffset: 0
HheadDescent: -244
HheadDOffset: 0
OS2SubXSize: 700
OS2SubYSize: 650
OS2SubXOff: 0
OS2SubYOff: 140
OS2SupXSize: 700
OS2SupYSize: 650
OS2SupXOff: 0
OS2SupYOff: 477
OS2StrikeYSize: 50
OS2StrikeYPos: 250
OS2CapHeight: 1456
OS2XHeight: 1082
OS2Vendor: 'pyrs'
OS2CodePages: 2000019f.4f010000
OS2UnicodeRanges: e00002ff.5000205b.00000020.00000000
Lookup: 1 0 0 "'rtla' Right to Left Alternates lookup 0" { "'rtla' Right to Left Alternates lookup 0 subtable"  } ['rtla' ('DFLT' <'dflt' > ) ]
Lookup: 1 0 0 "'smcp' Lowercase to Small Capitals in Latin lookup 1" { "'smcp' Lowercase to Small Capitals in Latin lookup 1 subtable"  } ['smcp' ('latn' <'dflt' > ) ]
Lookup: 4 0 1 "'liga' Standard Ligatures in Latin lookup 2" { "'liga' Standard Ligatures in Latin lookup 2 subtable"  } ['liga' ('latn' <'dflt' > ) ]
Lookup: 1 0 0 "'onum' Oldstyle Figures lookup 3" { "'onum' Oldstyle Figures lookup 3 subtable" ("oldstyle") } ['onum' ('DFLT' <'dflt' > ) ]

StartChar: exclam
Encoding: 33 33 5
Width: 214
GlyphClass: 2
Flags: W
HStem: -8 164<47.1745 168.165> 691 20G<24 190>
VStem: 22 172<16.9947 131.402 541.667 711> 42 131<203 400.556>
LayerCount: 2
Fore
SplineSet
22 74 m 0xe0
 22 125 57 156 107 156 c 0
 158 156 194 125 194 74 c 0
 194 23 157 -8 107 -8 c 0
 57 -8 22 24 22 74 c 0xe0
24 711 m 1
 190 711 l 1
 173 203 l 1
 42 203 l 1xd0
 24 711 l 1
EndSplineSet
EndChar

StartChar: quotedbl
Encoding: 34 34 6
Width: 318
GlyphClass: 2
Flags: W
HStem: 472 278
VStem: 24 275
LayerCount: 2
Fore
SplineSet
24 551 m 1
 24 750 l 1
 140 750 l 1
 98 472 l 1
 24 551 l 1
184 551 m 1
 184 750 l 1
 299 750 l 1
 257 472 l 1
 184 551 l 1
EndSplineSet
EndChar

StartChar: numbersign
Encoding: 35 35 7
Width: 591
GlyphClass: 2
Flags: W
HStem: -8 21G<90 197.5 273 381.5> 192 100<16 125 247 308 430 538> 416 100<52 164 470 576> 416 92<286 347> 691 20G<214.308 321 397.552 506>
LayerCount: 2
Fore
SplineSet
16 192 m 1xd8
 16 292 l 1
 142 292 l 1
 164 415 l 1
 52 416 l 1
 52 516 l 1
 182 516 l 1xe8
 218 711 l 1
 321 711 l 1
 286 508 l 1
 366 508 l 1xd8
 401 711 l 1
 506 711 l 1
 470 513 l 1
 576 513 l 1
 576 416 l 1xe8
 452 416 l 1
 430 291 l 1
 538 292 l 1
 538 192 l 1
 413 192 l 1
 378 -8 l 1
 273 -8 l 1
 308 192 l 1
 229 192 l 1
 194 -8 l 1
 90 -8 l 1
 125 192 l 1
 16 192 l 1xd8
247 292 m 1
 326 292 l 1
 347 415 l 1
 268 416 l 1xd8
 247 292 l 1
EndSplineSet
EndChar

StartChar: dollar
Encoding: 36 36 8
Width: 528
GlyphClass: 2
Flags: W
VStem: 14 156<150.668 238> 40 156<464.039 576.817> 224 92<-56 -3.80933> 234 92<718 775> 354 156<138.544 250.75 482 566.331>
LayerCount: 2
Fore
SplineSet
14 230 m 2xa8
 14 238 l 1
 170 238 l 1
 170 230 l 2xa8
 170 158 201 118 269 118 c 0
 322 118 354 144 354 193 c 0
 354 256 309 274 257 293 c 0
 173 323 92 358 57 438 c 0
 47 462 40 490 40 521 c 0
 40 614 92 672 159 701 c 0
 182 711 207 718 234 721 c 1
 234 830 l 1
 326 775 l 1
 326 718 l 1
 440 700 510 617 510 489 c 2
 510 482 l 1
 354 482 l 1
 354 489 l 2
 354 554 329 595 273 595 c 0
 223 595 196 568 196 519 c 0x58
 196 478 217 460 246 444 c 0
 283 424 341 404 380 384 c 0
 450 349 510 296 510 192 c 0
 510 69 424 7 316 -7 c 1
 316 -111 l 1
 224 -56 l 1
 224 -7 l 1
 129 4 63 51 31 128 c 0
 18 157 14 190 14 230 c 2xa8
EndSplineSet
EndChar

StartChar: percent
Encoding: 37 37 9
Width: 697
GlyphClass: 2
Flags: W
HStem: -10 96<476.332 565.269> 232 96<474.025 562.737> 384 96<134.131 222.904> 625 96<134.966 221.75>
VStem: 16 110<487.602 615.941> 232 108<488.99 615.088> 356 110<98.7894 223.353> 572 108<94.1851 222.088>
LayerCount: 2
Fore
SplineSet
16 534 m 2
 16 570 l 2
 16 641 55 688 109 709 c 0
 129 717 152 721 178 721 c 0
 275 721 340 664 340 570 c 2
 340 534 l 2
 340 440 277 384 179 384 c 0
 101 384 49 419 27 475 c 0
 20 494 16 514 16 534 c 2
126 534 m 2
 126 500 144 480 179 480 c 0
 213 480 232 501 232 534 c 2
 232 569 l 2
 232 603 212 625 178 625 c 0
 145 625 126 602 126 569 c 2
 126 534 l 2
127 87 m 1
 482 656 l 1
 565 612 l 1
 210 43 l 1
 127 87 l 1
356 140 m 2
 356 177 l 2
 356 249 396 295 449 316 c 0
 469 324 493 328 519 328 c 0
 616 328 680 271 680 177 c 2
 680 140 l 2
 680 69 642 23 589 1 c 0
 569 -7 546 -10 520 -10 c 0
 423 -10 356 46 356 140 c 2
466 141 m 2
 466 109 487 86 520 86 c 0
 557 86 572 105 572 141 c 2
 572 177 l 2
 572 211 553 232 519 232 c 0
 483 232 466 211 466 177 c 2
 466 141 l 2
EndSplineSet
EndChar

StartChar: ampersand
Encoding: 38 38 10
Width: 652
GlyphClass: 2
Flags: W
HStem: -10 129<199.813 345.927> -0 21G<451.564 649> 592 129<229.426 322.248>
VStem: 16 156<145.117 268.522> 76 142<469.664 579.218> 334 132<487.339 581.253>
LayerCount: 2
Fore
SplineSet
16 194 m 0xb4
 16 290 82 337 141 377 c 1
 122 403 106 428 95 451 c 0
 83 476 76 502 76 530 c 0
 76 621 125 683 195 708 c 0
 220 717 248 721 278 721 c 0
 365 721 427 678 453 617 c 0
 461 597 466 575 466 551 c 0
 466 471 416 424 368 391 c 2
 330 364 l 1
 441 237 l 1
 468 267 480 291 493 323 c 1
 620 319 l 1
 610 239 578 185 536 129 c 1
 649 -0 l 1
 469 -0 l 1x6c
 435 39 l 1
 385 8 330 -10 255 -10 c 0
 146 -10 65 35 32 112 c 0
 21 137 16 165 16 194 c 0xb4
172 206 m 0xb4
 172 152 208 119 262 119 c 0
 292 119 322 127 347 141 c 1
 217 291 l 1
 213 289 l 1
 189 268 172 245 172 206 c 0xb4
218 528 m 0x2c
 218 514 221 502 229 488 c 0
 236 475 245 460 255 446 c 1
 287 467 l 2
 313 485 334 501 334 538 c 0
 334 570 310 592 277 592 c 0
 238 592 218 567 218 528 c 0x2c
EndSplineSet
EndChar

StartChar: quotesingle
Encoding: 39 39 11
Width: 159
GlyphClass: 2
Flags: W
HStem: 472 278
VStem: 24 116<504.667 551>
LayerCount: 2
Fore
SplineSet
24 551 m 1
 24 750 l 1
 140 750 l 1
 98 472 l 1
 24 551 l 1
EndSplineSet
EndChar

StartChar: parenleft
Encoding: 40 40 12
Width: 317
GlyphClass: 2
Flags: W
VStem: 18 134<94.759 470.758>
LayerCount: 2
Fore
SplineSet
18 278 m 2
 18 289 l 2
 18 465 70 603 151 699 c 0
 184 739 224 771 273 792 c 1
 306 704 l 1
 202 626 152 478 152 290 c 2
 152 277 l 2
 152 126 185 0 248 -82 c 0
 267 -106 284 -125 306 -138 c 1
 273 -225 l 1
 195 -192 140 -128 99 -57 c 0
 49 29 18 143 18 278 c 2
EndSplineSet
Substitution2: "'rtla' Right to Left Alternates lookup 0 subtable" parenright
EndChar

StartChar: parenright
Encoding: 41 41 13
Width: 323
GlyphClass: 2
Flags: W
VStem: 162 142<100.402 467.689>
LayerCount: 2
Fore
SplineSet
11 -139 m 1
 15 -135 l 1
 116 -57 162 92 162 277 c 2
 162 290 l 2
 162 477 115 627 11 705 c 1
 43 792 l 1
 50 789 l 2
 126 757 181 689 221 620 c 0
 271 534 304 424 304 289 c 2
 304 278 l 2
 304 102 248 -33 168 -130 c 0
 137 -168 97 -203 50 -222 c 2
 43 -225 l 1
 11 -139 l 1
EndSplineSet
Substitution2: "'rtla' Right to Left Alternates lookup 0 subtable" parenleft
EndChar

StartChar: asterisk
Encoding: 42 42 14
Width: 479
GlyphClass: 2
Flags: W
HStem: 691 20G<185 297>
LayerCount: 2
Fore
SplineSet
12 515 m 1
 46 612 l 1
 195 557 l 1
 185 711 l 1
 297 711 l 1
 287 553 l 1
 432 607 l 1
 466 510 l 1
 313 467 l 1
 413 340 l 1
 322 276 l 1
 236 415 l 1
 150 281 l 1
 59 343 l 1
 163 473 l 1
 12 515 l 1
EndSplineSet
EndChar

StartChar: plus
Encoding: 43 43 15
Width: 546
GlyphClass: 2
Flags: W
HStem: 264 142<22 198 348 524>
VStem: 198 150<64 264 406 589>
LayerCount: 2
Fore
SplineSet
22 264 m 1
 22 406 l 1
 198 406 l 1
 198 589 l 1
 348 589 l 1
 348 406 l 1
 524 406 l 1
 524 264 l 1
 348 264 l 1
 348 64 l 1
 198 64 l 1
 198 264 l 1
 22 264 l 1
EndSplineSet
EndChar

StartChar: comma
Encoding: 44 44 16
Width: 229
GlyphClass: 2
Flags: W
HStem: -194 314<87.1628 124.815>
VStem: 70 134<-84.072 120>
LayerCount: 2
Fore
SplineSet
16 -151 m 1
 38 -99 70 -63 70 10 c 2
 70 120 l 1
 205 120 l 1
 204 16 l 2
 204 -53 176 -107 145 -148 c 0
 132 -165 117 -182 101 -194 c 1
 16 -151 l 1
EndSplineSet
EndChar

StartChar: hyphen
Encoding: 45 45 17
Width: 346
GlyphClass: 2
Flags: W
HStem: 240 128<28 318>
VStem: 28 290<240 368>
LayerCount: 2
Fore
SplineSet
28 240 m 1
 28 368 l 1
 318 368 l 1
 318 240 l 1
 28 240 l 1
EndSplineSet
EndChar

StartChar: period
Encoding: 46 46 18
Width: 222
GlyphClass: 2
Flags: W
HStem: -20 165<50.2213 171.779>
VStem: 24 174<6.01461 119.458>
LayerCount: 2
Fore
SplineSet
24 62 m 0
 24 112 60 145 111 145 c 0
 161 145 198 113 198 62 c 0
 198 11 161 -20 111 -20 c 0
 61 -20 24 12 24 62 c 0
EndSplineSet
EndChar

StartChar: slash
Encoding: 47 47 19
Width: 405
GlyphClass: 2
Flags: W
HStem: 691 20G<267.109 394>
LayerCount: 2
Fore
SplineSet
8 -61 m 1
 274 711 l 1
 394 711 l 1
 128 -61 l 1
 8 -61 l 1
EndSplineSet
EndChar

StartChar: zero
Encoding: 48 48 20
Width: 537
GlyphClass: 2
Flags: W
HStem: -10 129<211.203 324.266> 591 130<211.229 324.264>
VStem: 20 156<159.011 552.394> 360 156<159.478 552.989>
LayerCount: 2
Fore
SplineSet
20 295 m 2
 20 416 l 2
 20 594 88 721 267 721 c 0
 395 721 467 652 498 553 c 0
 510 515 516 469 516 416 c 2
 516 295 l 2
 516 119 448 -10 268 -10 c 0
 139 -10 70 60 38 159 c 0
 26 197 20 243 20 295 c 2
176 277 m 2
 176 190 191 119 268 119 c 0
 345 119 360 190 360 277 c 2
 360 435 l 2
 360 522 346 591 267 591 c 0
 191 591 176 521 176 435 c 2
 176 277 l 2
EndSplineSet
Substitution2: "'onum' Oldstyle Figures lookup 3 subtable" zero.onum
EndChar

StartChar: one
Encoding: 49 49 21
Width: 350
GlyphClass: 2
Flags: W
HStem: 692 20G<136.514 320>
VStem: 164 156<-15 543>
LayerCount: 2
Fore
SplineSet
16 447 m 1
 16 601 l 1
 163 712 l 1
 320 712 l 1
 320 -15 l 1
 164 -15 l 1
 164 543 l 1
 16 447 l 1
EndSplineSet
Substitution2: "'onum' Oldstyle Figures lookup 3 subtable" one.onum
EndChar

StartChar: two
Encoding: 50 50 22
Width: 548
GlyphClass: 2
Flags: W
HStem: -15 129<236 532> 592 129<204.104 325.579>
VStem: 16 156<472 557.745> 352 158<428.526 566.954>
LayerCount: 2
Fore
SplineSet
16 472 m 1
 16 480 l 2
 16 594 81 667 164 701 c 0
 195 713 231 721 270 721 c 0
 382 721 460 680 494 599 c 0
 504 573 510 544 510 512 c 0
 510 454 489 411 465 373 c 0
 434 322 392 277 349 233 c 2
 236 114 l 1
 532 114 l 1
 532 -15 l 1
 30 -15 l 1
 30 92 l 1
 262 340 l 2
 291 371 314 400 333 433 c 0
 345 454 352 473 352 498 c 0
 352 556 323 592 268 592 c 0
 204 592 172 548 172 480 c 2
 172 472 l 1
 16 472 l 1
EndSplineSet
Substitution2: "'onum' Oldstyle Figures lookup 3 subtable" two.onum
EndChar

StartChar: three
Encoding: 51 51 23
Width: 540
GlyphClass: 2
Flags: W
HStem: -10 129<201.026 338.505> 300 126<176 329.43> 592 129<198.843 333.593>
VStem: 356 156<452.233 570.307> 368 156<148.119 269.273>
LayerCount: 2
Fore
SplineSet
14 202 m 2xe8
 14 210 l 1
 170 210 l 1
 170 202 l 2
 170 150 213 119 267 119 c 0
 327 119 368 149 368 205 c 0xe8
 368 272 328 300 258 300 c 2
 176 300 l 1
 176 426 l 1
 258 426 l 2
 322 426 356 456 356 512 c 0
 356 564 324 592 267 592 c 0
 216 592 180 569 180 526 c 2
 180 520 l 1
 24 520 l 1
 24 527 l 2
 24 626 93 682 171 707 c 0
 200 716 231 721 264 721 c 0
 376 721 457 681 494 604 c 0
 507 578 512 548 512 515 c 0xf0
 512 439 465 393 415 366 c 1
 480 339 524 286 524 202 c 0
 524 92 452 30 366 4 c 0
 334 -5 301 -10 264 -10 c 0
 157 -10 76 35 36 107 c 0
 21 134 14 166 14 202 c 2xe8
EndSplineSet
Substitution2: "'onum' Oldstyle Figures lookup 3 subtable" three.onum
EndChar

StartChar: four
Encoding: 52 52 24
Width: 561
GlyphClass: 2
Flags: W
HStem: -8 21G<308 464> 146 130<171 308 464 544> 691 20G<297.048 464>
VStem: 308 156<-8 146 276 501>
LayerCount: 2
Fore
SplineSet
16 146 m 1
 16 257 l 1
 310 711 l 1
 464 711 l 1
 464 276 l 1
 544 276 l 1
 544 146 l 1
 464 146 l 1
 464 -8 l 1
 308 -8 l 1
 308 146 l 1
 16 146 l 1
171 276 m 1
 308 276 l 1
 308 501 l 1
 171 276 l 1
EndSplineSet
Substitution2: "'onum' Oldstyle Figures lookup 3 subtable" four.onum
EndChar

StartChar: five
Encoding: 53 53 25
Width: 527
GlyphClass: 2
Flags: W
HStem: -10 129<199.595 322.312> 354 120<187.872 318.863> 578 133<203 486>
VStem: 354 156<154.117 316.337>
LayerCount: 2
Fore
SplineSet
13 213 m 1
 168 213 l 1
 168 206 l 1
 173 153 206 119 262 119 c 0
 329 119 354 170 354 240 c 0
 354 312 320 354 247 354 c 0
 201 354 176 336 154 314 c 1
 31 344 l 1
 73 711 l 1
 486 711 l 1
 486 578 l 1
 203 578 l 1
 187 453 l 1
 215 466 247 474 285 474 c 0
 435 474 510 378 510 232 c 0
 510 120 454 45 371 10 c 0
 340 -3 304 -10 262 -10 c 0
 155 -10 75 41 37 114 c 0
 22 141 15 171 14 205 c 2
 13 213 l 1
EndSplineSet
Substitution2: "'onum' Oldstyle Figures lookup 3 subtable" five.onum
EndChar

StartChar: six
Encoding: 54 54 26
Width: 541
GlyphClass: 2
Flags: W
HStem: -10 129<214.277 330.65> 354 130<220.131 329.142> 587 131<286.515 416>
VStem: 18 156<161.654 325.603> 368 156<161.683 315.449>
LayerCount: 2
Fore
SplineSet
18 275 m 2
 18 329 l 2
 18 509 100 636 232 690 c 0
 278 709 330 718 388 718 c 2
 416 718 l 1
 416 587 l 1
 400 587 l 2
 277 587 203 531 181 437 c 1
 214 464 258 484 313 484 c 0
 423 484 484 415 510 332 c 0
 519 303 524 271 524 238 c 0
 524 122 462 45 378 9 c 0
 348 -4 314 -10 276 -10 c 0
 148 -10 69 65 36 160 c 0
 24 195 18 233 18 275 c 2
174 257 m 2
 174 193 193 146 233 128 c 0
 245 123 259 119 273 119 c 0
 322 119 347 151 360 189 c 0
 365 204 368 219 368 237 c 0
 368 292 346 329 310 346 c 0
 298 351 285 354 270 354 c 0
 222 354 190 329 174 297 c 1
 174 257 l 2
EndSplineSet
EndChar

StartChar: seven
Encoding: 55 55 27
Width: 551
GlyphClass: 2
Flags: W
HStem: 582 129<16 365>
LayerCount: 2
Fore
SplineSet
16 582 m 1
 16 711 l 1
 534 711 l 1
 534 623 l 1
 256 -15 l 1
 90 -15 l 1
 365 582 l 1
 16 582 l 1
EndSplineSet
Substitution2: "'onum' Oldstyle Figures lookup 3 subtable" seven.onum
EndChar

StartChar: eight
Encoding: 56 56 28
Width: 528
GlyphClass: 2
Flags: W
HStem: -10 129<200.961 329.524> 300 128<210.035 320.627> 592 129<207.493 321.486>
VStem: 16 158<145.898 273.868> 32 156<449.108 572.396> 342 156<449.115 571.21> 356 156<146.166 273.093>
LayerCount: 2
Fore
SplineSet
16 198 m 0xf2
 16 280 64 336 120 366 c 1
 71 396 32 446 32 518 c 0
 32 621 92 683 172 708 c 0
 200 717 231 721 265 721 c 0
 370 721 448 679 481 605 c 0
 493 579 498 551 498 519 c 0xec
 498 446 458 395 409 366 c 1
 468 334 512 281 512 198 c 0
 512 90 448 28 363 3 c 0
 333 -6 301 -10 265 -10 c 0
 154 -10 73 32 35 108 c 0
 22 134 16 164 16 198 c 0xf2
174 209 m 0xf2
 174 153 207 119 265 119 c 0
 323 119 356 153 356 209 c 0
 356 266 323 300 264 300 c 0
 206 300 174 266 174 209 c 0xf2
188 511 m 0xec
 188 461 216 428 265 428 c 0
 314 428 342 461 342 511 c 0
 342 561 314 592 265 592 c 0
 214 592 188 562 188 511 c 0xec
EndSplineSet
EndChar

StartChar: nine
Encoding: 57 57 29
Width: 530
GlyphClass: 2
Flags: W
HStem: -7 133<122 262.289> 222 124<206.347 317.587> 592 129<207.951 318.557>
VStem: 16 156<381.846 550.868> 354 156<370.291 552.486>
LayerCount: 2
Fore
SplineSet
16 465 m 0
 16 581 77 663 161 701 c 0
 191 714 225 721 263 721 c 0
 390 721 462 644 493 548 c 0
 504 512 510 473 510 430 c 2
 510 381 l 2
 510 199 438 75 303 21 c 0
 257 2 203 -7 141 -7 c 2
 122 -7 l 1
 122 126 l 1
 140 126 l 2
 262 126 335 169 350 265 c 1
 320 241 281 222 232 222 c 0
 123 222 57 287 31 370 c 0
 22 399 16 431 16 465 c 0
172 467 m 0
 172 398 200 346 266 346 c 0
 308 346 340 370 354 398 c 1
 354 453 l 2
 354 517 338 565 299 584 c 0
 288 589 275 592 262 592 c 0
 201 592 172 532 172 467 c 0
EndSplineSet
Substitution2: "'onum' Oldstyle Figures lookup 3 subtable" nine.onum
EndChar

StartChar: colon
Encoding: 58 58 30
Width: 219
GlyphClass: 2
Flags: W
HStem: -5 165<49.6979 171.255> 380 165<49.6979 171.255>
VStem: 24 174<20.4445 132.845 406.015 518.415>
LayerCount: 2
Fore
SplineSet
24 76 m 0
 24 126 59 160 110 160 c 0
 160 160 198 127 198 76 c 0
 198 25 160 -5 110 -5 c 0
 60 -5 24 26 24 76 c 0
24 462 m 0
 24 512 59 545 110 545 c 0
 160 545 198 513 198 462 c 0
 198 411 160 380 110 380 c 0
 60 380 24 412 24 462 c 0
EndSplineSet
EndChar

StartChar: semicolon
Encoding: 59 59 31
Width: 234
GlyphClass: 2
Flags: W
HStem: 380 165<65.6979 187.255>
VStem: 40 174<406.015 518.415> 66 134<-75.9065 128>
LayerCount: 2
Fore
SplineSet
12 -143 m 1xa0
 37 -94 66 -54 66 17 c 2
 66 128 l 1
 201 128 l 1
 200 24 l 2
 200 -45 171 -99 140 -140 c 0
 127 -157 114 -174 97 -187 c 1
 12 -143 l 1xa0
40 462 m 0xc0
 40 512 75 545 126 545 c 0
 176 545 214 513 214 462 c 0
 214 411 176 380 126 380 c 0
 76 380 40 412 40 462 c 0xc0
EndSplineSet
EndChar

StartChar: less
Encoding: 60 60 32
Width: 484
GlyphClass: 2
Flags: W
LayerCount: 2
Fore
SplineSet
22 233 m 1
 22 357 l 1
 458 543 l 1
 458 389 l 1
 194 295 l 1
 458 202 l 1
 458 48 l 1
 22 233 l 1
EndSplineSet
Substitution2: "'rtla' Right to Left Alternates lookup 0 subtable" greater
EndChar

StartChar: equal
Encoding: 61 61 33
Width: 510
GlyphClass: 2
Flags: W
HStem: 146 130<28 480> 356 130<28 480>
LayerCount: 2
Fore
SplineSet
28 146 m 1
 28 276 l 1
 480 276 l 1
 480 146 l 1
 28 146 l 1
28 356 m 1
 28 486 l 1
 480 486 l 1
 480 356 l 1
 28 356 l 1
EndSplineSet
EndChar

StartChar: greater
Encoding: 62 62 34
Width: 490
GlyphClass: 2
Flags: W
LayerCount: 2
Fore
SplineSet
26 47 m 1
 26 201 l 1
 294 295 l 1
 26 389 l 1
 26 542 l 1
 466 357 l 1
 466 233 l 1
 26 47 l 1
EndSplineSet
Substitution2: "'rtla' Right to Left Alternates lookup 0 subtable" less
EndChar

StartChar: question
Encoding: 63 63 35
Width: 484
GlyphClass: 2
Flags: W
HStem: -6 165<172.215 292.302> 590 131<187.751 296.587>
VStem: 146 172<20.2796 133.458> 160 139<203 293.68> 310 158<455.147 576.052>
LayerCount: 2
Fore
SplineSet
12 507 m 1xd8
 12 514 l 2
 12 651 108 721 242 721 c 0
 376 721 468 657 468 522 c 0
 468 474 450 439 430 410 c 0
 406 376 375 350 345 322 c 0
 324 302 307 280 302 245 c 0
 301 234 300 223 299 210 c 2
 299 203 l 1
 160 203 l 1
 160 210 l 2
 160 275 171 325 200 363 c 0
 234 406 287 435 305 485 c 0
 309 494 310 505 310 516 c 0
 310 567 291 590 242 590 c 0
 196 590 170 561 170 514 c 2
 170 507 l 1
 12 507 l 1xd8
146 76 m 0xe0
 146 126 182 159 232 159 c 0
 283 159 318 127 318 76 c 0
 318 25 282 -6 232 -6 c 0
 191 -6 165 15 152 43 c 0
 148 53 146 64 146 76 c 0xe0
EndSplineSet
EndChar

StartChar: at
Encoding: 64 64 36
Width: 864
GlyphClass: 2
Flags: W
HStem: -221 100<295.795 556.523> -18 94<603.617 690.13> -16 102<370.73 456.747> 390 100<413.838 505.464> 604 94<336.201 582.169>
VStem: 19 111<54.1113 356.649>
LayerCount: 2
Fore
SplineSet
19 226 m 0xdc
 27 438 126 593 280 663 c 0
 332 686 392 698 457 698 c 0
 590 698 687 651 752 578 c 0
 817 504 852 397 846 262 c 1
 842 136 793 31 694 -6 c 0
 673 -13 651 -18 625 -18 c 0xdc
 568 -18 527 7 505 46 c 1
 477 11 436 -16 379 -16 c 2
 365 -16 l 1xbc
 257 -8 222 98 231 211 c 1
 244 328 293 427 381 471 c 0
 408 485 437 490 466 490 c 0
 543 490 580 463 623 434 c 1
 598 147 l 2
 597 140 597 135 597 129 c 0
 597 95 610 76 643 76 c 0
 677 76 696 101 712 128 c 0
 747 190 752 319 731 402 c 0
 700 528 613 604 455 604 c 0
 348 604 273 559 222 498 c 0
 168 434 135 339 130 226 c 0
 122 59 176 -52 292 -98 c 0
 330 -113 374 -121 423 -121 c 0
 488 -121 546 -107 590 -85 c 1
 611 -174 l 1
 567 -207 494 -221 421 -221 c 2
 398 -221 l 1
 137 -212 9 -43 19 226 c 0xdc
354 183 m 0
 354 126 369 86 413 86 c 0xbc
 454 86 472 125 486 162 c 1
 506 386 l 1
 496 389 487 390 475 390 c 0
 391 390 364 306 355 209 c 0
 354 200 354 192 354 183 c 0
EndSplineSet
EndChar

StartChar: A
Encoding: 65 65 37
Width: 708
GlyphClass: 2
Flags: W
HStem: 0 21G<9 187.712 519.288 698> 146 126<275 432> 691 20G<272.377 433.651>
LayerCount: 2
Fore
SplineSet
9 0 m 1
 280 711 l 1
 426 711 l 1
 698 -0 l 1
 526 0 l 1
 477 146 l 1
 230 146 l 1
 181 0 l 1
 9 0 l 1
275 272 m 1
 432 272 l 1
 353 507 l 1
 275 272 l 1
EndSplineSet
Substitution2: "'smcp' Lowercase to Small Capitals in Latin lookup 1 subtable" A.smcp
EndChar

StartChar: B
Encoding: 66 66 38
Width: 595
GlyphClass: 2
Flags: W
HStem: 0 133<190 382.604> 302 118<190 370.781> 577 134<190 372.515>
VStem: 28 162<133 302 420 577> 394 162<444.094 555.341> 410 162<159.162 278.207>
LayerCount: 2
Fore
SplineSet
28 0 m 1xf4
 28 711 l 1
 284 711 l 2
 403 711 496 680 537 600 c 0
 550 575 556 546 556 513 c 0xf8
 556 442 518 393 467 367 c 1
 530 344 572 291 572 212 c 0
 572 63 462 0 307 0 c 2
 28 0 l 1xf4
190 133 m 1
 307 133 l 2
 370 133 410 159 410 214 c 0xf4
 410 275 379 302 313 302 c 2
 190 302 l 1
 190 133 l 1
190 420 m 1
 290 420 l 1
 354 421 394 442 394 497 c 0xf8
 394 559 356 577 284 577 c 2
 190 577 l 1
 190 420 l 1
EndSplineSet
Substitution2: "'smcp' Lowercase to Small Capitals in Latin lookup 1 subtable" B.smcp
EndChar

StartChar: C
Encoding: 67 67 39
Width: 639
GlyphClass: 2
Flags: W
HStem: -10 135<246.741 408.599> 586 135<246.055 408.336>
VStem: 20 164<196.016 511.888>
LayerCount: 2
Fore
SplineSet
20 332 m 2
 20 378 l 2
 20 535 86 649 199 697 c 0
 236 713 277 721 323 721 c 0
 500 721 599 621 616 463 c 2
 617 455 l 1
 455 455 l 1
 455 462 l 1
 450 545 411 586 323 586 c 0
 215 586 184 502 184 378 c 2
 184 333 l 2
 184 216 209 125 321 125 c 0
 409 125 449 163 454 245 c 1
 454 252 l 1
 616 252 l 1
 615 244 l 1
 606 122 539 43 440 8 c 0
 405 -4 366 -10 321 -10 c 0
 168 -10 79 76 41 191 c 0
 27 233 20 280 20 332 c 2
EndSplineSet
Substitution2: "'smcp' Lowercase to Small Capitals in Latin lookup 1 subtable" C.smcp
EndChar

StartChar: D
Encoding: 68 68 40
Width: 613
GlyphClass: 2
Flags: W
HStem: 0 133<190 341.678> 577 134<190 342.906>
VStem: 28 162<133 577> 422 164<222.676 491.551>
LayerCount: 2
Fore
SplineSet
28 0 m 1
 28 711 l 1
 254 711 l 2
 415 711 516 625 562 509 c 0
 578 467 586 422 586 371 c 2
 586 339 l 2
 586 179 507 71 388 24 c 0
 347 8 302 0 253 0 c 2
 28 0 l 1
190 133 m 1
 253 133 l 2
 373 133 422 215 422 340 c 2
 422 371 l 2
 422 497 375 577 254 577 c 2
 190 577 l 1
 190 133 l 1
EndSplineSet
Substitution2: "'smcp' Lowercase to Small Capitals in Latin lookup 1 subtable" D.smcp
EndChar

StartChar: E
Encoding: 69 69 41
Width: 541
GlyphClass: 2
Flags: W
HStem: 0 133<190 520> 300 130<190 470> 577 134<190 518>
VStem: 28 162<133 300 430 577>
LayerCount: 2
Fore
SplineSet
28 0 m 1
 28 711 l 1
 518 711 l 1
 518 577 l 1
 190 577 l 1
 190 430 l 1
 470 430 l 1
 470 300 l 1
 190 300 l 1
 190 133 l 1
 520 133 l 1
 520 0 l 1
 28 0 l 1
EndSplineSet
Substitution2: "'smcp' Lowercase to Small Capitals in Latin lookup 1 subtable" E.smcp
EndChar

StartChar: F
Encoding: 70 70 42
Width: 523
GlyphClass: 2
Flags: W
HStem: 0 21G<28 190> 284 132<190 470> 577 134<190 506>
VStem: 28 162<0 284 416 577>
LayerCount: 2
Fore
SplineSet
28 0 m 1
 28 711 l 1
 506 711 l 1
 506 577 l 1
 190 577 l 1
 190 416 l 1
 470 416 l 1
 470 284 l 1
 190 284 l 1
 190 0 l 1
 28 0 l 1
EndSplineSet
Substitution2: "'smcp' Lowercase to Small Capitals in Latin lookup 1 subtable" F.smcp
EndChar

StartChar: G
Encoding: 71 71 43
Width: 645
GlyphClass: 2
Flags: W
HStem: -10 133<259.703 444.038> 258 124<320 454> 588 133<253.255 409.01>
VStem: 20 164<207.961 505.385> 454 162<138.127 258>
LayerCount: 2
Fore
SplineSet
20 334 m 2
 20 376 l 2
 20 537 82 649 200 698 c 0
 238 713 280 721 326 721 c 0
 500 721 597 634 615 478 c 2
 616 470 l 1
 459 470 l 1
 447 543 414 588 330 588 c 0
 221 588 184 499 184 376 c 2
 184 335 l 2
 184 208 227 123 344 123 c 0
 391 123 435 133 454 152 c 1
 454 258 l 1
 320 258 l 1
 320 382 l 1
 616 382 l 1
 616 -5 l 1
 490 -5 l 1
 490 13 l 1
 445 -2 393 -10 336 -10 c 0
 180 -10 84 73 43 189 c 0
 28 231 20 280 20 334 c 2
EndSplineSet
Substitution2: "'smcp' Lowercase to Small Capitals in Latin lookup 1 subtable" G.smcp
EndChar

StartChar: H
Encoding: 72 72 44
Width: 607
GlyphClass: 2
Flags: W
HStem: 0 21G<28 190 414 574> 294 140<190 414> 691 20G<28 190 414 574>
VStem: 28 162<0 294 434 711> 414 160<0 294 434 711>
LayerCount: 2
Fore
SplineSet
28 0 m 1
 28 711 l 1
 190 711 l 1
 190 434 l 1
 414 434 l 1
 414 711 l 1
 574 711 l 1
 574 0 l 1
 414 0 l 1
 414 294 l 1
 190 294 l 1
 190 0 l 1
 28 0 l 1
EndSplineSet
Substitution2: "'smcp' Lowercase to Small Capitals in Latin lookup 1 subtable" H.smcp
EndChar

StartChar: I
Encoding: 73 73 45
Width: 221
GlyphClass: 2
Flags: W
HStem: 0 21G<28 188> 691 20G<28 188>
VStem: 28 160<0 711>
LayerCount: 2
Fore
SplineSet
28 0 m 1
 28 711 l 1
 188 711 l 1
 188 0 l 1
 28 0 l 1
EndSplineSet
Substitution2: "'smcp' Lowercase to Small Capitals in Latin lookup 1 subtable" I.smcp
EndChar

StartChar: J
Encoding: 74 74 46
Width: 540
GlyphClass: 2
Flags: W
HStem: -10 133<201.192 319.347> 691 20G<346 508>
VStem: 346 162<154.018 711>
LayerCount: 2
Fore
SplineSet
16 218 m 2
 16 225 l 1
 178 225 l 1
 178 218 l 2
 178 154 201 123 262 123 c 0
 318 123 346 164 346 224 c 2
 346 711 l 1
 508 711 l 1
 508 222 l 2
 508 110 444 36 358 6 c 0
 328 -4 297 -10 262 -10 c 0
 114 -10 16 68 16 218 c 2
EndSplineSet
Substitution2: "'smcp' Lowercase to Small Capitals in Latin lookup 1 subtable" J.smcp
EndChar

StartChar: K
Encoding: 75 75 47
Width: 630
GlyphClass: 2
Flags: W
HStem: 0 21G<28 190 407.518 626> 691 20G<28 190 394.302 610>
VStem: 28 162<0 301 413 711>
LayerCount: 2
Fore
SplineSet
28 0 m 1
 28 711 l 1
 190 711 l 1
 190 413 l 1
 409 711 l 1
 610 711 l 1
 334 358 l 1
 626 0 l 1
 423 0 l 1
 190 301 l 1
 190 0 l 1
 28 0 l 1
EndSplineSet
Substitution2: "'smcp' Lowercase to Small Capitals in Latin lookup 1 subtable" K.smcp
EndChar

StartChar: L
Encoding: 76 76 48
Width: 522
GlyphClass: 2
Flags: W
HStem: 0 133<190 500> 691 20G<28 190>
VStem: 28 162<133 711>
LayerCount: 2
Fore
SplineSet
28 0 m 1
 28 711 l 1
 190 711 l 1
 190 133 l 1
 500 133 l 1
 500 0 l 1
 28 0 l 1
EndSplineSet
Substitution2: "'smcp' Lowercase to Small Capitals in Latin lookup 1 subtable" L.smcp
EndChar

StartChar: M
Encoding: 77 77 49
Width: 824
GlyphClass: 2
Flags: W
HStem: 0 21G<28 190 346.746 471.239 630 792> 691 20G<28 239.106 578.974 792>
VStem: 28 162<0 356> 28 149<334 488> 630 162<0 384.636> 641 151<306.364 489>
LayerCount: 2
Fore
SplineSet
28 0 m 1xe0
 28 711 l 1
 232 711 l 1
 410 210 l 1
 586 711 l 1
 792 711 l 1xd4
 792 0 l 1
 630 0 l 1
 630 202 l 1xc8
 641 489 l 1
 464 -0 l 1
 354 0 l 1
 177 488 l 1xd4
 190 202 l 1
 190 0 l 1
 28 0 l 1xe0
EndSplineSet
Substitution2: "'smcp' Lowercase to Small Capitals in Latin lookup 1 subtable" M.smcp
EndChar

StartChar: N
Encoding: 78 78 50
Width: 654
GlyphClass: 2
Flags: W
HStem: 0 21G<28 190 450.84 622> 691 20G<28 198.178 460 622>
VStem: 28 162<0 449> 460 162<261 711>
LayerCount: 2
Fore
SplineSet
28 0 m 1
 28 711 l 1
 186 711 l 1
 460 261 l 1
 460 711 l 1
 622 711 l 1
 622 0 l 1
 463 0 l 1
 190 449 l 1
 190 0 l 1
 28 0 l 1
EndSplineSet
Substitution2: "'smcp' Lowercase to Small Capitals in Latin lookup 1 subtable" N.smcp
EndChar

StartChar: O
Encoding: 79 79 51
Width: 666
GlyphClass: 2
Flags: W
HStem: -10 135<257.936 406.972> 585 136<255.623 405.898>
VStem: 20 164<213.358 495.748> 478 162<213.816 500.677>
LayerCount: 2
Fore
SplineSet
20 339 m 2
 20 371 l 2
 20 533 89 646 205 696 c 0
 243 712 285 721 331 721 c 0
 431 721 506 680 555 626 c 0
 608 567 640 480 640 371 c 2
 640 339 l 2
 640 176 573 64 457 14 c 0
 419 -2 378 -10 332 -10 c 0
 233 -10 156 30 107 84 c 0
 54 142 20 231 20 339 c 2
184 340 m 2
 184 244 208 170 269 139 c 0
 287 130 308 125 332 125 c 0
 439 125 478 219 478 340 c 2
 478 371 l 2
 478 493 439 585 331 585 c 0
 224 585 184 492 184 371 c 2
 184 340 l 2
EndSplineSet
Substitution2: "'smcp' Lowercase to Small Capitals in Latin lookup 1 subtable" O.smcp
EndChar

StartChar: P
Encoding: 80 80 52
Width: 609
GlyphClass: 2
Flags: W
HStem: 0 21G<28 190> 242 134<190 392.943> 577 134<190 385.792>
VStem: 28 162<0 242 376 577> 424 164<406.726 540.294>
LayerCount: 2
Fore
SplineSet
28 0 m 1
 28 711 l 1
 313 711 l 2
 440 711 531 658 569 568 c 0
 581 538 588 505 588 472 c 0
 588 354 519 288 428 259 c 0
 394 248 356 242 313 242 c 2
 190 242 l 1
 190 0 l 1
 28 0 l 1
190 376 m 1
 313 376 l 2
 383 376 424 406 424 471 c 0
 424 538 383 577 313 577 c 2
 190 577 l 1
 190 376 l 1
EndSplineSet
Substitution2: "'smcp' Lowercase to Small Capitals in Latin lookup 1 subtable" P.smcp
EndChar

StartChar: Q
Encoding: 81 81 53
Width: 666
GlyphClass: 2
Flags: W
HStem: -10 135<257.799 394.474> 585 136<255.623 405.898>
VStem: 20 164<213.319 495.748> 478 162<212.847 500.334>
LayerCount: 2
Fore
SplineSet
20 339 m 2
 20 371 l 2
 20 533 89 646 205 696 c 0
 243 712 285 721 331 721 c 0
 431 721 506 680 555 626 c 0
 608 567 640 479 640 370 c 2
 640 339 l 2
 640 210 597 114 524 54 c 1
 642 -36 l 1
 537 -129 l 1
 383 -5 l 1
 365 -8 349 -9 332 -10 c 0
 232 -10 157 31 107 85 c 0
 52 143 20 230 20 339 c 2
184 340 m 2
 184 244 208 170 269 139 c 0
 287 130 308 125 332 125 c 0
 439 125 478 219 478 340 c 2
 478 371 l 2
 478 493 439 585 331 585 c 0
 224 585 184 492 184 371 c 2
 184 340 l 2
EndSplineSet
Substitution2: "'smcp' Lowercase to Small Capitals in Latin lookup 1 subtable" Q.smcp
EndChar

StartChar: R
Encoding: 82 82 54
Width: 611
GlyphClass: 2
Flags: W
HStem: 0 21G<28 190 416.769 596> 260 126<190 294> 577 134<190 374.869>
VStem: 28 162<0 260 386 577> 408 162<416.786 546.514>
LayerCount: 2
Fore
SplineSet
28 0 m 1
 28 711 l 1
 300 711 l 2
 421 711 512 672 551 587 c 0
 563 559 570 528 570 493 c 0
 570 386 517 330 445 295 c 1
 596 16 l 1
 596 0 l 1
 427 0 l 1
 294 260 l 1
 190 260 l 1
 190 0 l 1
 28 0 l 1
190 386 m 1
 300 386 l 2
 368 386 408 417 408 480 c 0
 408 544 371 577 300 577 c 2
 190 577 l 1
 190 386 l 1
EndSplineSet
Substitution2: "'smcp' Lowercase to Small Capitals in Latin lookup 1 subtable" R.smcp
EndChar

StartChar: S
Encoding: 83 83 55
Width: 599
GlyphClass: 2
Flags: W
HStem: -10 131<217.703 390.751> 589 132<222.796 381.175>
VStem: 38 160<472.697 565.246> 414 162<144.318 246.013 486 557.53>
LayerCount: 2
Fore
SplineSet
16 232 m 2
 16 239 l 1
 178 239 l 1
 178 232 l 2
 178 151 227 121 310 121 c 0
 370 121 414 142 414 193 c 0
 414 239 387 254 349 270 c 0
 331 278 309 285 280 294 c 0
 190 322 99 359 56 437 c 0
 43 461 38 488 38 519 c 0
 38 625 116 681 199 706 c 0
 232 716 267 721 307 721 c 0
 428 721 516 669 556 585 c 1
 568 557 576 527 576 494 c 2
 576 486 l 1
 414 486 l 1
 414 494 l 2
 414 558 372 589 304 589 c 0
 243 589 198 567 198 515 c 0
 198 495 208 479 231 464 c 0
 254 449 288 436 334 422 c 0
 429 394 522 355 560 270 c 0
 570 247 576 220 576 191 c 0
 576 85 505 28 419 4 c 0
 386 -5 350 -10 310 -10 c 0
 171 -10 65 50 28 156 c 0
 20 179 16 204 16 232 c 2
EndSplineSet
Substitution2: "'smcp' Lowercase to Small Capitals in Latin lookup 1 subtable" S.smcp
EndChar

StartChar: T
Encoding: 84 84 56
Width: 627
GlyphClass: 2
Flags: W
HStem: 0 21G<230 392> 577 134<16 230 392 610>
VStem: 230 162<0 577>
LayerCount: 2
Fore
SplineSet
16 577 m 1
 16 711 l 1
 610 711 l 1
 610 577 l 1
 392 577 l 1
 392 0 l 1
 230 0 l 1
 230 577 l 1
 16 577 l 1
EndSplineSet
Substitution2: "'smcp' Lowercase to Small Capitals in Latin lookup 1 subtable" T.smcp
EndChar

StartChar: U
Encoding: 85 85 57
Width: 616
GlyphClass: 2
Flags: W
HStem: -10 133<225.574 384.929> 691 20G<26 186 424 586>
VStem: 26 160<163.687 711> 424 162<163.687 711>
LayerCount: 2
Fore
SplineSet
26 244 m 2
 26 711 l 1
 186 711 l 1
 186 246 l 2
 186 163 225 123 305 123 c 0
 386 123 424 163 424 246 c 2
 424 711 l 1
 586 711 l 1
 586 244 l 2
 586 116 516 37 416 6 c 0
 382 -5 345 -10 305 -10 c 0
 175 -10 86 44 46 135 c 0
 33 167 26 203 26 244 c 2
EndSplineSet
Substitution2: "'smcp' Lowercase to Small Capitals in Latin lookup 1 subtable" U.smcp
EndChar

StartChar: V
Encoding: 86 86 58
Width: 689
GlyphClass: 2
Flags: W
HStem: 0 21G<254.883 432.117> 691 20G<9 194.969 491.992 678>
LayerCount: 2
Fore
SplineSet
9 711 m 1
 189 711 l 1
 343 195 l 1
 498 711 l 1
 678 711 l 1
 425 -0 l 1
 262 0 l 1
 9 711 l 1
EndSplineSet
Substitution2: "'smcp' Lowercase to Small Capitals in Latin lookup 1 subtable" V.smcp
EndChar

StartChar: W
Encoding: 87 87 59
Width: 886
GlyphClass: 2
Flags: W
HStem: 0 21G<168.471 336.867 547.133 715.529> 691 20G<12 176.824 369.378 514.612 707.184 872>
LayerCount: 2
Fore
SplineSet
12 711 m 1
 173 711 l 1
 264 235 l 1
 374 711 l 1
 510 711 l 1
 620 234 l 1
 711 711 l 1
 872 711 l 1
 711 -0 l 1
 552 0 l 1
 442 452 l 1
 332 -0 l 1
 173 0 l 1
 12 711 l 1
EndSplineSet
Substitution2: "'smcp' Lowercase to Small Capitals in Latin lookup 1 subtable" W.smcp
EndChar

StartChar: X
Encoding: 88 88 60
Width: 654
GlyphClass: 2
Flags: W
HStem: 0 21G<6 204.037 447.963 646> 691 20G<11 207.886 444.114 641>
LayerCount: 2
Fore
SplineSet
6 0 m 1
 222 358 l 1
 11 711 l 1
 197 711 l 1
 326 474 l 1
 455 711 l 1
 641 711 l 1
 430 358 l 1
 646 -0 l 1
 459 0 l 1
 326 241 l 1
 193 0 l 1
 6 0 l 1
EndSplineSet
Substitution2: "'smcp' Lowercase to Small Capitals in Latin lookup 1 subtable" X.smcp
EndChar

StartChar: Y
Encoding: 89 89 61
Width: 658
GlyphClass: 2
Flags: W
HStem: 0 21G<246 410> 691 20G<8 195.161 461.774 648>
VStem: 246 164<0 258>
LayerCount: 2
Fore
SplineSet
8 711 m 1
 186 711 l 1
 328 401 l 1
 471 711 l 1
 648 711 l 1
 410 258 l 1
 410 0 l 1
 246 0 l 1
 246 258 l 1
 8 711 l 1
EndSplineSet
Substitution2: "'smcp' Lowercase to Small Capitals in Latin lookup 1 subtable" Y.smcp
EndChar

StartChar: Z
Encoding: 90 90 62
Width: 596
GlyphClass: 2
Flags: W
HStem: 0 130<224 576> 577 134<20 364>
LayerCount: 2
Fore
SplineSet
20 0 m 1
 20 93 l 1
 364 577 l 1
 20 577 l 1
 20 711 l 1
 568 711 l 1
 568 619 l 1
 224 130 l 1
 576 130 l 1
 576 0 l 1
 20 0 l 1
EndSplineSet
Substitution2: "'smcp' Lowercase to Small Capitals in Latin lookup 1 subtable" Z.smcp
EndChar

StartChar: bracketleft
Encoding: 91 91 63
Width: 269
GlyphClass: 2
Flags: W
HStem: -181 124<186 256> 703 124<186 256>
VStem: 30 226<-181 -57 703 827> 30 156<-57 703>
LayerCount: 2
Fore
SplineSet
30 -181 m 1xe0
 30 827 l 1
 256 827 l 1
 256 703 l 1xe0
 186 703 l 1
 186 -57 l 1xd0
 256 -57 l 1
 256 -181 l 1
 30 -181 l 1xe0
EndSplineSet
Substitution2: "'rtla' Right to Left Alternates lookup 0 subtable" bracketright
EndChar

StartChar: backslash
Encoding: 92 92 64
Width: 480
GlyphClass: 2
Flags: W
HStem: 691 20G<9 176.85>
LayerCount: 2
Fore
SplineSet
9 711 m 1
 169 711 l 1
 472 -61 l 1
 311 -61 l 1
 9 711 l 1
EndSplineSet
EndChar

StartChar: bracketright
Encoding: 93 93 65
Width: 270
GlyphClass: 2
Flags: W
HStem: -181 124<14 84> 703 124<14 84>
VStem: 14 226<-181 -57 703 827> 84 156<-57 703>
LayerCount: 2
Fore
SplineSet
14 -57 m 1xe0
 84 -57 l 1
 84 703 l 1xd0
 14 703 l 1
 14 827 l 1
 240 827 l 1
 240 -181 l 1
 14 -181 l 1
 14 -57 l 1xe0
EndSplineSet
Substitution2: "'rtla' Right to Left Alternates lookup 0 subtable" bracketleft
EndChar

StartChar: asciicircum
Encoding: 94 94 66
Width: 444
GlyphClass: 2
Flags: W
HStem: 691 20G<156.437 286.563>
LayerCount: 2
Fore
SplineSet
13 356 m 1
 165 711 l 1
 278 711 l 1
 430 356 l 1
 302 356 l 1
 222 565 l 1
 142 356 l 1
 13 356 l 1
EndSplineSet
EndChar

StartChar: underscore
Encoding: 95 95 67
Width: 518
GlyphClass: 2
Flags: W
HStem: -125 125<28 488>
LayerCount: 2
Fore
SplineSet
28 0 m 1
 488 0 l 1
 488 -125 l 1
 28 -125 l 1
 28 0 l 1
EndSplineSet
EndChar

StartChar: grave
Encoding: 96 96 68
Width: 311
GlyphClass: 2
Flags: W
HStem: 584 166<160 186>
VStem: 11 282
LayerCount: 2
Fore
SplineSet
11 750 m 1
 186 750 l 1
 293 584 l 1
 160 584 l 1
 11 750 l 1
EndSplineSet
EndChar

StartChar: a
Encoding: 97 97 69
Width: 521
GlyphClass: 2
Flags: W
HStem: -10 123<184.535 296.505> 0 21G<344 502> 232 98<195.706 324> 419 119<197.226 310.678>
VStem: 18 156<123.874 210.113> 324 158<133.591 232 330 405.359>
LayerCount: 2
Fore
SplineSet
18 152 m 0xbc
 18 286 134 330 269 330 c 2
 324 330 l 1
 324 351 l 2
 324 395 303 419 254 419 c 0
 212 419 186 399 186 362 c 2
 186 355 l 1
 30 355 l 1
 30 362 l 2
 30 418 60 459 93 486 c 0
 134 518 192 538 262 538 c 0
 362 538 433 501 465 432 c 1
 477 409 482 381 482 350 c 2
 482 132 l 2
 482 85 488 49 502 18 c 1
 502 0 l 1
 348 0 l 1x7c
 340 10 336 23 333 38 c 1
 303 9 262 -10 205 -10 c 0
 121 -10 60 31 32 87 c 0
 22 107 18 128 18 152 c 0xbc
174 163 m 0
 174 133 200 113 236 113 c 0xbc
 278 113 309 132 324 156 c 1
 324 232 l 1
 274 232 l 2
 214 232 174 213 174 163 c 0
EndSplineSet
Substitution2: "'smcp' Lowercase to Small Capitals in Latin lookup 1 subtable" A.smcp
EndChar

StartChar: b
Encoding: 98 98 70
Width: 546
GlyphClass: 2
Flags: W
HStem: -10 129<218.039 332.264> 0 21G<28 172.174> 408 130<216.458 328.912> 730 20G<28 184>
VStem: 28 156<139.068 388.615 492 750> 364 156<154.431 372.34>
LayerCount: 2
Fore
SplineSet
28 0 m 1x7c
 28 750 l 1
 184 750 l 1
 184 492 l 1
 214 521 253 538 306 538 c 0
 421 538 483 467 507 377 c 0
 515 344 520 308 520 270 c 2
 520 259 l 2
 520 141 483 51 400 10 c 0
 373 -3 342 -10 307 -10 c 0xbc
 247 -10 205 13 175 46 c 1
 170 -0 l 1
 28 0 l 1x7c
184 167 m 1
 199 138 224 119 271 119 c 0
 347 119 364 179 364 259 c 2
 364 270 l 2
 364 348 345 408 270 408 c 0
 223 408 199 390 184 361 c 1
 184 167 l 1
EndSplineSet
Substitution2: "'smcp' Lowercase to Small Capitals in Latin lookup 1 subtable" B.smcp
EndChar

StartChar: c
Encoding: 99 99 71
Width: 523
GlyphClass: 2
Flags: W
HStem: -10 129<209.365 331.252> 409 129<208.431 326.729>
VStem: 20 156<153.875 373.775> 352 146<140.114 198 317 383.826>
LayerCount: 2
Fore
SplineSet
20 257 m 2
 20 271 l 2
 20 392 72 479 161 518 c 0
 192 532 229 538 271 538 c 0
 377 538 449 489 481 413 c 0
 492 386 498 356 498 324 c 2
 498 317 l 1
 352 317 l 1
 352 324 l 2
 352 374 319 409 269 409 c 0
 194 409 176 349 176 271 c 2
 176 257 l 2
 176 178 193 119 270 119 c 0
 320 119 349 145 352 191 c 2
 352 198 l 1
 498 198 l 1
 498 190 l 2
 498 126 467 77 432 46 c 0
 395 13 339 -10 272 -10 c 0
 144 -10 67 58 36 153 c 0
 26 185 20 220 20 257 c 2
EndSplineSet
Substitution2: "'smcp' Lowercase to Small Capitals in Latin lookup 1 subtable" C.smcp
EndChar

StartChar: d
Encoding: 100 100 72
Width: 544
GlyphClass: 2
Flags: W
HStem: -10 129<213.064 321.803> 0 21G<367.826 512> 408 130<212.18 322.66> 730 20G<356 512>
VStem: 20 156<159.675 368.863> 356 156<139.508 387.679 491 750>
LayerCount: 2
Fore
SplineSet
20 258 m 2xbc
 20 268 l 2
 20 385 61 477 144 518 c 0
 171 531 201 538 235 538 c 0
 289 538 327 519 356 491 c 1
 356 750 l 1
 512 750 l 1
 512 0 l 1
 370 0 l 1x7c
 365 46 l 1
 334 13 294 -10 234 -10 c 0
 160 -10 109 24 76 67 c 0
 41 113 20 180 20 258 c 2xbc
176 258 m 2
 176 182 198 119 270 119 c 0xbc
 315 119 341 139 356 167 c 1
 356 361 l 1
 340 390 315 408 271 408 c 0
 198 408 176 344 176 268 c 2
 176 258 l 2
EndSplineSet
Substitution2: "'smcp' Lowercase to Small Capitals in Latin lookup 1 subtable" D.smcp
EndChar

StartChar: e
Encoding: 101 101 73
Width: 541
GlyphClass: 2
Flags: W
HStem: -10 129<221.691 382.737> 210 112<182 362> 409 129<212.978 338.747>
VStem: 20 160<160.263 210 322 370.77>
LayerCount: 2
Fore
SplineSet
20 246 m 2
 20 265 l 2
 20 389 78 479 169 518 c 0
 200 531 236 538 275 538 c 0
 436 538 516 431 516 276 c 2
 516 210 l 1
 180 210 l 1
 190 154 231 119 300 119 c 0
 357 119 395 141 421 175 c 2
 427 182 l 1
 506 93 l 1
 502 88 l 2
 460 30 390 -10 290 -10 c 0
 160 -10 75 56 39 148 c 0
 27 179 20 211 20 246 c 2
182 322 m 1
 362 322 l 1
 362 326 l 2
 362 379 331 409 274 409 c 0
 216 409 190 371 182 322 c 1
EndSplineSet
Substitution2: "'smcp' Lowercase to Small Capitals in Latin lookup 1 subtable" E.smcp
EndChar

StartChar: f
Encoding: 102 102 74
Width: 391
GlyphClass: 2
Flags: W
HStem: 0 21G<94 250> 410 118<16 94 250 356> 631 129<265.805 372.586>
VStem: 94 156<0 410 528 615.376>
LayerCount: 2
Fore
SplineSet
16 410 m 1
 16 528 l 1
 94 528 l 1
 94 566 l 2
 94 691 172 760 296 760 c 0
 325 760 353 755 375 748 c 1
 373 624 l 1
 357 627 345 630 323 631 c 0
 277 631 250 609 250 566 c 2
 250 528 l 1
 356 528 l 1
 356 410 l 1
 250 410 l 1
 250 0 l 1
 94 0 l 1
 94 410 l 1
 16 410 l 1
EndSplineSet
Substitution2: "'smcp' Lowercase to Small Capitals in Latin lookup 1 subtable" F.smcp
EndChar

StartChar: g
Encoding: 103 103 75
Width: 563
GlyphClass: 2
Flags: W
HStem: -214 122<174.711 360.608> 4 122<198.24 378.445> 160 122<209.743 338.489> 416 122<208.299 339.35> 440 88<488 541>
VStem: 10 148<-74.6978 -5.35782> 36 156<300.908 397.578> 82 116<105.859 167.386> 356 154<300.178 397.973> 384 156<-69.4168 -4.24191>
LayerCount: 2
Fore
SplineSet
10 -72 m 0xec40
 10 -21 42 12 72 33 c 0
 81 39 90 45 99 49 c 1
 88 65 82 83 82 106 c 0xe9
 82 148 107 176 132 195 c 1
 81 223 36 273 36 345 c 2
 36 355 l 2
 36 416 66 460 102 488 c 0
 143 520 203 538 274 538 c 0xf2
 303 538 331 535 357 528 c 1
 541 528 l 1
 543 440 l 1
 488 440 l 1
 502 417 510 389 510 354 c 2
 510 344 l 2
 510 285 482 241 446 213 c 0
 405 180 346 160 275 160 c 0
 250 160 227 164 207 168 c 1
 202 162 198 156 198 149 c 0xe980
 198 130 221 126 253 126 c 2
 343 126 l 2
 454 126 540 79 540 -30 c 0
 540 -86 502 -128 466 -155 c 0
 417 -191 346 -214 261 -214 c 0
 185 -214 123 -201 76 -173 c 0
 42 -153 10 -121 10 -72 c 0xec40
158 -38 m 0xe440
 158 -79 209 -92 261 -92 c 0
 315 -92 359 -81 378 -54 c 0
 382 -48 384 -42 384 -36 c 0
 384 -7 360 4 322 4 c 2
 227 4 l 2
 212 4 195 5 183 7 c 1
 168 -2 158 -17 158 -38 c 0xe440
192 344 m 2xf280
 192 304 229 282 275 282 c 0
 321 282 356 305 356 344 c 2
 356 354 l 2
 356 394 321 416 274 416 c 0
 226 416 192 395 192 354 c 2
 192 344 l 2xf280
EndSplineSet
Substitution2: "'smcp' Lowercase to Small Capitals in Latin lookup 1 subtable" G.smcp
EndChar

StartChar: h
Encoding: 104 104 76
Width: 529
GlyphClass: 2
Flags: W
HStem: 0 21G<28 184 342 498> 408 130<227.972 325.102> 730 20G<28 184>
VStem: 28 156<0 390.959 483 750> 342 156<0 391.798>
LayerCount: 2
Fore
SplineSet
28 0 m 1
 28 750 l 1
 184 750 l 1
 184 483 l 1
 216 516 259 538 317 538 c 0
 447 538 498 457 498 331 c 2
 498 0 l 1
 342 0 l 1
 342 329 l 2
 342 385 322 408 266 408 c 0
 224 408 200 392 184 367 c 1
 184 0 l 1
 28 0 l 1
EndSplineSet
Substitution2: "'smcp' Lowercase to Small Capitals in Latin lookup 1 subtable" H.smcp
EndChar

StartChar: i
Encoding: 105 105 77
Width: 221
GlyphClass: 2
Flags: W
HStem: 0 21G<30 186> 508 20G<30 186> 577 161<48.0843 169.75>
VStem: 22 172<601.448 712.719> 30 156<0 528>
LayerCount: 2
Fore
SplineSet
22 658 m 0xf0
 22 706 59 738 108 738 c 0
 158 738 194 708 194 658 c 0
 194 608 158 577 108 577 c 0
 59 577 22 607 22 658 c 0xf0
30 0 m 1xe8
 30 528 l 1
 186 528 l 1
 186 0 l 1
 30 0 l 1xe8
EndSplineSet
Substitution2: "'smcp' Lowercase to Small Capitals in Latin lookup 1 subtable" I.smcp
EndChar

StartChar: j
Encoding: 106 106 78
Width: 308
GlyphClass: 2
Flags: W
HStem: -213 130<10.5952 109.302> 508 20G<118 276> 577 161<132.625 255.375>
VStem: 108 172<601.051 713.702> 118 158<-74.9109 528>
LayerCount: 2
Fore
SplineSet
10 -76 m 1xe8
 20 -78 l 2
 34 -81 47 -83 62 -83 c 0
 102 -83 118 -64 118 -22 c 2
 118 528 l 1
 276 528 l 1
 276 -22 l 2
 276 -143 208 -213 87 -213 c 0
 58 -213 32 -210 10 -203 c 1
 10 -76 l 1xe8
108 658 m 0xf0
 108 707 144 738 194 738 c 0
 244 738 280 707 280 658 c 0
 280 607 243 577 194 577 c 0
 145 577 108 607 108 658 c 0xf0
EndSplineSet
Substitution2: "'smcp' Lowercase to Small Capitals in Latin lookup 1 subtable" J.smcp
EndChar

StartChar: k
Encoding: 107 107 79
Width: 534
GlyphClass: 2
Flags: W
HStem: 0 21G<28 184 328.278 529> 508 20G<307.725 509> 742 20G<28 184>
VStem: 28 156<0 216 346 762>
LayerCount: 2
Fore
SplineSet
28 0 m 1
 28 762 l 1
 184 762 l 1
 184 346 l 1
 323 528 l 1
 509 528 l 1
 308 282 l 1
 529 -0 l 1
 343 0 l 1
 184 216 l 1
 184 0 l 1
 28 0 l 1
EndSplineSet
Substitution2: "'smcp' Lowercase to Small Capitals in Latin lookup 1 subtable" K.smcp
EndChar

StartChar: l
Encoding: 108 108 80
Width: 216
GlyphClass: 2
Flags: W
HStem: 0 21G<28 184> 730 20G<28 184>
VStem: 28 156<0 750>
LayerCount: 2
Fore
SplineSet
28 0 m 1
 28 750 l 1
 184 750 l 1
 184 0 l 1
 28 0 l 1
EndSplineSet
Substitution2: "'smcp' Lowercase to Small Capitals in Latin lookup 1 subtable" L.smcp
EndChar

StartChar: m
Encoding: 109 109 81
Width: 831
GlyphClass: 2
Flags: W
HStem: 0 21G<28 184 336 492 644 800> 408 130<228.59 357.5 525.67 630.044> 508 20G<28 176.25>
VStem: 28 156<0 391.098> 336 156<0 387.112> 644 156<0 394.209>
CounterMasks: 1 1c
LayerCount: 2
Fore
SplineSet
28 0 m 1xdc
 28 528 l 1
 175 528 l 1xbc
 178 480 l 1
 213 515 260 538 324 538 c 0
 391 538 438 512 465 465 c 1
 499 510 548 538 623 538 c 0
 751 538 800 459 800 334 c 2
 800 0 l 1
 644 0 l 1
 644 331 l 2
 644 386 626 408 571 408 c 0
 528 408 505 386 491 356 c 1
 491 352 492 350 492 347 c 2
 492 0 l 1
 336 0 l 1
 336 330 l 2
 336 388 316 408 263 408 c 0
 222 408 199 391 184 366 c 1
 184 0 l 1
 28 0 l 1xdc
EndSplineSet
Substitution2: "'smcp' Lowercase to Small Capitals in Latin lookup 1 subtable" M.smcp
EndChar

StartChar: n
Encoding: 110 110 82
Width: 529
GlyphClass: 2
Flags: W
HStem: 0 21G<28 184 342 498> 408 130<230.858 389.428> 508 20G<28 176.2>
VStem: 28 156<0 388.288> 342 156<0 393.148>
LayerCount: 2
Fore
SplineSet
28 0 m 1xd8
 28 528 l 1
 175 528 l 1xb8
 178 478 l 1
 212 513 261 538 324 538 c 0
 451 538 498 456 498 334 c 2
 498 0 l 1
 342 0 l 1
 342 332 l 2
 342 387 321 408 266 408 c 0
 225 408 200 389 184 365 c 1
 184 0 l 1
 28 0 l 1xd8
EndSplineSet
Substitution2: "'smcp' Lowercase to Small Capitals in Latin lookup 1 subtable" N.smcp
EndChar

StartChar: o
Encoding: 111 111 83
Width: 563
GlyphClass: 2
Flags: W
HStem: -10 129<215.656 341.374> 409 129<215.938 340.715>
VStem: 20 156<161.759 364.407> 380 156<163.593 365.854>
LayerCount: 2
Fore
SplineSet
20 259 m 2
 20 269 l 2
 20 393 78 479 169 518 c 0
 201 532 237 538 278 538 c 0
 406 538 486 469 519 375 c 0
 530 342 536 308 536 269 c 2
 536 259 l 2
 536 135 480 49 389 10 c 0
 357 -4 320 -10 279 -10 c 0
 151 -10 70 59 37 153 c 0
 26 186 20 220 20 259 c 2
176 259 m 2
 176 180 201 119 279 119 c 0
 354 119 380 181 380 259 c 2
 380 269 l 2
 380 347 354 409 278 409 c 0
 203 409 176 346 176 269 c 2
 176 259 l 2
EndSplineSet
Substitution2: "'smcp' Lowercase to Small Capitals in Latin lookup 1 subtable" O.smcp
EndChar

StartChar: p
Encoding: 112 112 84
Width: 546
GlyphClass: 2
Flags: W
HStem: -203 21G<28 184> -10 129<218.16 326.414> 408 130<215.478 325.787> 508 20G<28 174.951>
VStem: 28 156<-203 36 137.648 390.715> 362 156<158.5 369.453>
LayerCount: 2
Fore
SplineSet
28 -203 m 1xec
 28 528 l 1
 173 528 l 1xdc
 177 487 l 1
 208 518 247 538 305 538 c 0
 420 538 479 468 504 379 c 0
 513 346 518 310 518 270 c 2
 518 259 l 2
 518 143 477 52 398 10 c 0
 372 -4 340 -10 306 -10 c 0
 252 -10 214 10 184 36 c 1
 184 -203 l 1
 28 -203 l 1xec
184 163 m 1
 200 135 224 119 269 119 c 0
 341 119 362 184 362 259 c 2
 362 270 l 2
 362 345 340 408 268 408 c 0xec
 223 408 200 392 184 366 c 1
 184 163 l 1
EndSplineSet
Substitution2: "'smcp' Lowercase to Small Capitals in Latin lookup 1 subtable" P.smcp
EndChar

StartChar: q
Encoding: 113 113 85
Width: 544
GlyphClass: 2
Flags: W
HStem: -203 21G<356 512> -10 129<213.354 324.12> 409 129<213.698 324.373> 508 20G<370.444 512>
VStem: 20 156<157.774 365.26> 356 156<-203 34 138.09 391.321>
LayerCount: 2
Fore
SplineSet
20 259 m 2xdc
 20 269 l 2
 20 385 61 477 143 518 c 0
 170 531 201 538 236 538 c 0xec
 296 538 337 515 366 483 c 1
 374 528 l 1
 512 528 l 1
 512 -203 l 1
 356 -203 l 1
 356 34 l 1
 327 8 287 -10 235 -10 c 0
 120 -10 61 66 35 153 c 0
 26 186 20 220 20 259 c 2xdc
176 259 m 2
 176 182 198 119 271 119 c 0
 316 119 340 136 356 163 c 1
 356 367 l 1
 340 394 316 409 272 409 c 0
 200 409 176 345 176 269 c 2
 176 259 l 2
EndSplineSet
Substitution2: "'smcp' Lowercase to Small Capitals in Latin lookup 1 subtable" Q.smcp
EndChar

StartChar: r
Encoding: 114 114 86
Width: 365
GlyphClass: 2
Flags: W
HStem: 0 21G<28 184> 385 153<215.286 338.857> 508 20G<28 176.851>
VStem: 28 156<0 365.337>
LayerCount: 2
Fore
SplineSet
28 0 m 1xd0
 28 528 l 1
 176 528 l 1xb0
 178 481 l 1
 203 514 239 538 290 538 c 0
 308 538 329 534 342 530 c 1
 339 380 l 1
 323 382 298 385 281 385 c 0
 228 385 201 370 184 339 c 1
 184 0 l 1
 28 0 l 1xd0
EndSplineSet
Substitution2: "'smcp' Lowercase to Small Capitals in Latin lookup 1 subtable" R.smcp
EndChar

StartChar: s
Encoding: 115 115 87
Width: 504
GlyphClass: 2
Flags: W
HStem: -10 115<184.718 318.104> 423 115<192.317 308.599>
VStem: 32 150<342.483 411.532> 328 152<116.477 185.49 353 403.752>
LayerCount: 2
Fore
SplineSet
14 176 m 2
 14 183 l 1
 163 183 l 1
 163 176 l 2
 166 128 200 105 253 105 c 0
 297 105 328 120 328 152 c 0
 328 180 307 187 278 197 c 0
 265 202 248 206 226 210 c 0
 151 226 79 253 46 311 c 0
 36 329 32 349 32 372 c 0
 32 424 59 463 90 489 c 1
 128 519 183 538 250 538 c 0
 352 538 427 501 462 432 c 1
 472 410 478 386 478 360 c 2
 478 353 l 1
 322 353 l 1
 322 360 l 2
 322 401 296 423 249 423 c 0
 209 423 182 405 182 374 c 0
 182 350 204 340 229 332 c 0
 264 321 318 313 355 301 c 0
 402 286 441 261 464 222 c 0
 475 203 480 180 480 154 c 0
 480 100 451 62 417 37 c 0
 376 8 319 -10 250 -10 c 0
 144 -10 64 35 30 108 c 0
 20 130 14 154 14 176 c 2
EndSplineSet
Substitution2: "'smcp' Lowercase to Small Capitals in Latin lookup 1 subtable" S.smcp
EndChar

StartChar: t
Encoding: 116 116 88
Width: 366
GlyphClass: 2
Flags: W
HStem: -10 131<197.961 343.061> 410 118<16 92 248 338>
VStem: 92 156<124.742 410 528 658>
LayerCount: 2
Fore
SplineSet
16 410 m 1
 16 528 l 1
 92 528 l 1
 92 658 l 1
 248 658 l 1
 248 528 l 1
 338 528 l 1
 338 410 l 1
 248 410 l 1
 248 166 l 2
 248 132 259 121 295 121 c 0
 316 121 329 124 344 127 c 1
 344 5 l 1
 319 -5 287 -10 251 -10 c 0
 145 -10 92 45 92 148 c 2
 92 410 l 1
 16 410 l 1
EndSplineSet
Substitution2: "'smcp' Lowercase to Small Capitals in Latin lookup 1 subtable" T.smcp
EndChar

StartChar: u
Encoding: 117 117 89
Width: 529
GlyphClass: 2
Flags: W
HStem: -10 129<195.681 304.479> 0 21G<348.605 496> 508 20G<26 182 340 496>
VStem: 26 156<135.23 528> 340 156<138.703 528>
LayerCount: 2
Fore
SplineSet
26 189 m 2xb8
 26 528 l 1
 182 528 l 1
 182 191 l 2
 182 144 202 119 249 119 c 0xb8
 296 119 323 136 340 162 c 1
 340 528 l 1
 496 528 l 1
 496 0 l 1
 350 0 l 1x78
 347 43 l 1
 314 10 269 -10 208 -10 c 0
 82 -10 26 67 26 189 c 2xb8
EndSplineSet
Substitution2: "'smcp' Lowercase to Small Capitals in Latin lookup 1 subtable" U.smcp
EndChar

StartChar: v
Encoding: 118 118 90
Width: 536
GlyphClass: 2
Flags: W
HStem: 0 21G<188.03 345.97> 508 20G<11 180.493 353.507 523>
LayerCount: 2
Fore
SplineSet
11 528 m 1
 175 528 l 1
 267 193 l 1
 359 528 l 1
 523 528 l 1
 339 0 l 1
 195 0 l 1
 11 528 l 1
EndSplineSet
Substitution2: "'smcp' Lowercase to Small Capitals in Latin lookup 1 subtable" V.smcp
EndChar

StartChar: w
Encoding: 119 119 91
Width: 750
GlyphClass: 2
Flags: W
HStem: 0 21G<143.773 284.987 461.013 602.265> 508 20G<11 167.103 310.295 435.769 579.897 736>
LayerCount: 2
Fore
SplineSet
11 528 m 1
 163 528 l 1
 227 216 l 1
 316 528 l 1
 430 528 l 1
 520 216 l 1
 584 528 l 1
 736 528 l 1
 597 0 l 1
 467 0 l 1
 373 314 l 1
 279 -0 l 1
 149 0 l 1
 11 528 l 1
EndSplineSet
Substitution2: "'smcp' Lowercase to Small Capitals in Latin lookup 1 subtable" W.smcp
EndChar

StartChar: x
Encoding: 120 120 92
Width: 535
GlyphClass: 2
Flags: W
HStem: 0 21G<8 188.392 345.608 525> 508 20G<15 194.141 339.591 519>
LayerCount: 2
Fore
SplineSet
8 0 m 1
 169 270 l 1
 15 528 l 1
 183 528 l 1
 266 379 l 1
 351 528 l 1
 519 528 l 1
 365 270 l 1
 525 0 l 1
 357 0 l 1
 267 158 l 1
 177 0 l 1
 8 0 l 1
EndSplineSet
Substitution2: "'smcp' Lowercase to Small Capitals in Latin lookup 1 subtable" X.smcp
EndChar

StartChar: y
Encoding: 121 121 93
Width: 542
GlyphClass: 2
Flags: W
HStem: -213 131<70.0625 166.776> 508 20G<9 183.955 356.045 530>
LayerCount: 2
Fore
SplineSet
9 528 m 1
 178 528 l 1
 270 219 l 1
 362 528 l 1
 530 528 l 1
 315 -74 l 2
 290 -147 243 -213 139 -213 c 0
 115 -213 93 -211 74 -203 c 2
 70 -202 l 1
 70 -82 l 1
 77 -82 l 2
 85 -82 92 -83 98 -83 c 0
 148 -83 171 -67 183 -31 c 1
 198 7 l 1
 9 528 l 1
EndSplineSet
Substitution2: "'smcp' Lowercase to Small Capitals in Latin lookup 1 subtable" Y.smcp
EndChar

StartChar: z
Encoding: 122 122 94
Width: 495
GlyphClass: 2
Flags: W
HStem: 0 125<222 474> 399 129<26 261>
LayerCount: 2
Fore
SplineSet
20 0 m 1
 20 93 l 1
 261 399 l 1
 26 399 l 1
 26 528 l 1
 466 528 l 1
 466 438 l 1
 222 125 l 1
 474 125 l 1
 474 0 l 1
 20 0 l 1
EndSplineSet
Substitution2: "'smcp' Lowercase to Small Capitals in Latin lookup 1 subtable" Z.smcp
EndChar

StartChar: braceleft
Encoding: 123 123 95
Width: 334
GlyphClass: 2
Flags: W
HStem: 244 116<16 80.5416>
VStem: 102 142<-44.4744 221.312 380.248 644.744>
LayerCount: 2
Fore
SplineSet
16 244 m 1
 16 360 l 1
 23 360 l 2
 81 360 102 392 102 452 c 2
 102 550 l 2
 102 688 180 750 291 782 c 1
 322 690 l 1
 267 672 244 626 244 549 c 2
 244 451 l 2
 244 380 214 331 165 301 c 1
 214 271 244 221 244 151 c 2
 244 52 l 2
 244 -26 267 -74 322 -92 c 1
 291 -185 l 1
 179 -153 102 -88 102 52 c 2
 102 151 l 2
 102 210 79 244 23 244 c 2
 16 244 l 1
EndSplineSet
Substitution2: "'rtla' Right to Left Alternates lookup 0 subtable" braceright
EndChar

StartChar: bar
Encoding: 124 124 96
Width: 159
GlyphClass: 2
Flags: W
HStem: 691 20G<28 130>
VStem: 28 102<-147 711>
LayerCount: 2
Fore
SplineSet
28 -147 m 1
 28 711 l 1
 130 711 l 1
 130 -147 l 1
 28 -147 l 1
EndSplineSet
EndChar

StartChar: braceright
Encoding: 125 125 97
Width: 335
GlyphClass: 2
Flags: W
HStem: 244 116<250.726 318>
VStem: 88 142<-48.7154 223.158 380.682 644.744>
LayerCount: 2
Fore
SplineSet
11 -92 m 1
 66 -74 88 -25 88 52 c 2
 88 151 l 2
 88 224 121 273 169 301 c 1
 118 330 88 380 88 451 c 2
 88 549 l 2
 88 625 66 672 11 690 c 1
 42 782 l 1
 153 750 230 688 230 550 c 2
 230 452 l 2
 230 392 252 360 310 360 c 2
 318 360 l 1
 318 244 l 1
 310 244 l 2
 252 244 230 212 230 151 c 2
 230 52 l 2
 230 -88 154 -153 42 -185 c 1
 11 -92 l 1
EndSplineSet
Substitution2: "'rtla' Right to Left Alternates lookup 0 subtable" braceleft
EndChar

StartChar: asciitilde
Encoding: 126 126 98
Width: 608
GlyphClass: 2
Flags: W
HStem: 176 130<354.622 447.91> 282 130<159.975 251.108>
VStem: 24 120<196 264.394> 464 120<321.641 394>
LayerCount: 2
Fore
SplineSet
24 196 m 1x70
 24 203 l 2
 24 296 59 366 125 397 c 0
 146 406 169 412 193 412 c 0x70
 221 412 246 407 268 395 c 0
 290 384 313 367 336 346 c 1
 336 345 l 1
 357 324 374 306 406 306 c 0
 445 306 464 343 464 388 c 2
 464 396 l 1
 584 394 l 1
 584 387 l 2
 584 294 546 223 482 191 c 0
 461 180 438 176 414 176 c 0xb0
 345 176 307 210 272 243 c 0
 258 256 245 265 234 272 c 0
 223 279 213 282 200 282 c 0
 163 282 144 245 144 202 c 2
 144 194 l 1
 24 196 l 1x70
EndSplineSet
EndChar

StartChar: exclamdown
Encoding: 161 161 100
Width: 217
GlyphClass: 2
Flags: W
HStem: 373 165<48.6077 167.874>
VStem: 22 174<-187 -18.6667 400.398 509.845> 43 132<111.235 320>
LayerCount: 2
Fore
SplineSet
22 456 m 0xc0
 22 506 60 538 109 538 c 0
 149 538 176 516 189 488 c 0
 193 478 196 468 196 456 c 0
 196 407 158 373 109 373 c 0
 68 373 41 395 28 423 c 0
 24 433 22 444 22 456 c 0xc0
26 -188 m 1
 43 320 l 1
 175 320 l 1xa0
 192 -187 l 1
 26 -188 l 1
EndSplineSet
EndChar

StartChar: cent
Encoding: 162 162 101
Width: 513
GlyphClass: 2
Flags: W
HStem: -128 240<215.506 325.625> 416 236<215.57 324.782>
VStem: 18 156<151.13 379.018> 214 112<-128 -8.1335 535.721 652> 349 147<134.372 190 324 391.349>
LayerCount: 2
Fore
SplineSet
18 257 m 2
 18 271 l 2
 18 382 61 464 131 508 c 0
 154 523 184 535 214 540 c 1
 214 652 l 1
 326 652 l 1
 326 540 l 1
 403 524 457 479 482 410 c 0
 490 386 496 360 496 332 c 2
 496 324 l 1
 348 324 l 1
 348 332 l 2
 348 382 317 416 266 416 c 0
 191 416 174 353 174 271 c 2
 174 257 l 2
 174 174 190 112 267 112 c 0
 317 112 346 137 349 183 c 2
 349 191 l 1
 496 190 l 1
 496 183 l 2
 496 97 447 42 390 11 c 0
 370 1 348 -7 326 -11 c 1
 326 -128 l 1
 214 -128 l 1
 214 -12 l 1
 87 12 18 111 18 257 c 2
EndSplineSet
EndChar

StartChar: sterling
Encoding: 163 163 102
Width: 571
GlyphClass: 2
Flags: W
HStem: -8 134<22 94.2814 242 554> 274 126<20 95 262 408> 587 133<274.245 378.039>
VStem: 95 162<404 569.747> 102 162<129.261 273>
LayerCount: 2
Fore
SplineSet
20 274 m 1xe8
 20 404 l 1
 95 404 l 1
 92 504 l 1
 92 642 181 720 321 720 c 0
 429 720 503 674 534 595 c 0
 544 569 550 541 550 510 c 2
 550 502 l 1
 394 502 l 1
 394 510 l 2
 394 562 370 587 320 587 c 0
 276 587 254 553 254 502 c 1
 257 400 l 1xf0
 408 400 l 1
 408 274 l 1
 262 274 l 1
 264 213 l 1
 264 176 257 149 242 126 c 1
 554 126 l 1
 554 -8 l 1
 22 -8 l 1
 22 126 l 1
 73 126 l 1
 97 133 102 167 102 205 c 1
 99 273 l 1
 20 274 l 1xe8
EndSplineSet
EndChar

StartChar: currency
Encoding: 164 164 103
Width: 662
GlyphClass: 2
Flags: W
HStem: -10 108<241.032 419.483> 495 108<240.603 418.251>
VStem: 32 104<204.5 387.965> 522 106<204.351 390.888>
LayerCount: 2
Fore
SplineSet
12 63 m 1
 78 130 l 1
 51 175 32 228 32 296 c 0
 32 367 51 425 82 469 c 1
 12 539 l 1
 90 620 l 1
 161 548 l 1
 205 579 260 603 330 603 c 0
 400 603 456 578 499 547 c 1
 570 621 l 1
 651 539 l 1
 577 467 l 1
 607 423 628 365 628 296 c 0
 628 229 607 174 581 131 c 1
 651 63 l 1
 570 -16 l 1
 505 49 l 1
 460 15 403 -10 330 -10 c 0
 256 -10 198 15 154 49 c 1
 90 -16 l 1
 12 63 l 1
136 297 m 0
 136 236 161 188 193 155 c 0
 224 123 270 98 330 98 c 0
 390 98 435 123 466 155 c 0
 498 187 522 236 522 297 c 0
 522 389 471 451 405 480 c 0
 382 490 356 495 330 495 c 0
 270 495 224 470 193 438 c 0
 161 405 136 358 136 297 c 0
EndSplineSet
EndChar

StartChar: yen
Encoding: 165 165 104
Width: 633
GlyphClass: 2
Flags: W
HStem: -8 21G<232 394> 128 100<68 232 394 550> 270 100<68 191 440 550> 691 20G<8 195.123 436.877 624>
VStem: 232 162<-8 128 228 270>
LayerCount: 2
Fore
SplineSet
8 711 m 1
 186 711 l 1
 316 426 l 1
 446 711 l 1
 624 711 l 1
 440 370 l 1
 550 370 l 1
 550 270 l 1
 394 270 l 1
 394 228 l 1
 550 228 l 1
 550 128 l 1
 394 128 l 1
 394 -8 l 1
 232 -8 l 1
 232 128 l 1
 68 128 l 1
 68 228 l 1
 232 228 l 1
 232 270 l 1
 68 270 l 1
 68 370 l 1
 191 370 l 1
 8 711 l 1
EndSplineSet
EndChar

StartChar: brokenbar
Encoding: 166 166 105
Width: 200
GlyphClass: 2
Flags: W
HStem: 691 20G<28 170>
VStem: 28 142<-140 264 326 711>
LayerCount: 2
Fore
SplineSet
28 -140 m 1
 28 264 l 1
 170 264 l 1
 170 -140 l 1
 28 -140 l 1
28 326 m 1
 28 711 l 1
 170 711 l 1
 170 326 l 1
 28 326 l 1
EndSplineSet
EndChar

StartChar: section
Encoding: 167 167 106
Width: 579
GlyphClass: 2
Flags: W
HStem: -221 130<199.148 377.716> -22 20G<16 172> 592 129<207.605 364.934>
VStem: 16 156<-64.8381 -2 226.905 326.962> 30 156<484.104 568.716> 394 156<-71.0354 6.44415 497 563.336> 408 154<169.686 266.209>
LayerCount: 2
Fore
SplineSet
16 -2 m 1xf4
 172 -2 l 1
 172 -10 l 2
 172 -73 222 -91 290 -91 c 0
 348 -91 394 -76 394 -33 c 0xf4
 394 -10 384 0 367 11 c 0
 337 30 302 40 256 53 c 0
 164 77 74 105 34 183 c 0
 22 205 18 232 18 262 c 0
 18 325 49 366 91 393 c 1
 52 424 30 466 30 531 c 0
 30 633 105 685 185 708 c 0
 217 717 251 721 291 721 c 0
 442 721 552 657 552 504 c 2
 552 497 l 1
 396 497 l 1
 396 504 l 2
 396 562 353 592 291 592 c 0
 242 592 207 580 193 553 c 0
 189 545 186 537 186 530 c 0
 186 488 214 477 252 464 c 0
 379 423 562 408 562 234 c 0xea
 562 171 531 130 489 104 c 1
 527 73 550 31 550 -34 c 0
 550 -135 479 -188 396 -209 c 0
 364 -217 329 -221 290 -221 c 0
 163 -221 62 -179 28 -81 c 0
 21 -60 16 -37 16 -10 c 2
 16 -2 l 1xf4
174 275 m 0
 174 231 201 217 240 203 c 0
 274 191 334 176 374 160 c 1
 394 173 408 193 408 221 c 0xe2
 408 263 376 277 338 292 c 0
 303 305 245 320 204 336 c 1
 185 324 174 304 174 275 c 0
EndSplineSet
EndChar

StartChar: dieresis
Encoding: 168 168 107
Width: 439
GlyphClass: 2
Flags: W
HStem: 590 139<43.7342 154.822 281.734 392.822>
VStem: 24 150<609.641 709.11> 262 150<609.551 709.11>
LayerCount: 2
Fore
SplineSet
24 660 m 0
 24 703 59 729 100 729 c 0
 141 729 174 702 174 660 c 0
 174 617 141 590 100 590 c 0
 58 590 24 616 24 660 c 0
262 660 m 0
 262 703 297 729 338 729 c 0
 379 729 412 702 412 660 c 0
 412 618 379 589 338 589 c 0
 296 589 262 617 262 660 c 0
EndSplineSet
EndChar

StartChar: copyright
Encoding: 169 169 108
Width: 742
GlyphClass: 2
Flags: W
HStem: -10 76<262.07 479.294> 130 82<306.365 427.856> 500 82<307.414 427.252> 645 76<264.083 477.384>
VStem: 16 76<240.823 469.99> 186 90<244.871 467.25> 444 92<228.801 298 412 482.322> 650 74<239.585 472.712>
LayerCount: 2
Fore
SplineSet
16 356 m 0
 16 471 63 556 121 616 c 0
 162 658 214 690 277 708 c 0
 308 717 338 721 371 721 c 0
 482 721 564 673 621 616 c 1
 680 555 724 472 724 356 c 0
 724 243 680 155 621 95 c 0
 564 37 479 -10 371 -10 c 0
 260 -10 177 37 121 95 c 0
 63 156 16 241 16 356 c 0
92 356 m 0
 92 221 166 131 262 88 c 0
 296 73 332 66 371 66 c 0
 460 66 524 102 569 149 c 0
 616 198 650 264 650 356 c 0
 650 478 589 560 511 607 c 0
 474 629 427 645 371 645 c 0
 284 645 219 607 173 561 c 0
 126 515 92 445 92 356 c 0
186 327 m 2
 186 385 l 2
 186 474 225 539 289 567 c 0
 311 576 336 582 364 582 c 0
 469 582 536 526 536 420 c 2
 536 412 l 1
 444 412 l 1
 444 420 l 2
 444 477 420 500 364 500 c 0
 303 500 276 451 276 385 c 2
 276 327 l 2
 276 259 302 212 364 212 c 0
 421 212 444 232 444 291 c 2
 444 298 l 1
 534 298 l 1
 534 291 l 2
 534 185 469 130 364 130 c 0
 275 130 221 181 198 248 c 0
 190 272 186 298 186 327 c 2
EndSplineSet
EndChar

StartChar: ordfeminine
Encoding: 170 170 109
Width: 368
GlyphClass: 2
Flags: W
HStem: 337 86<121.381 227.306> 504 73<128.651 234> 633 88<130.74 230.045>
VStem: 18 100<428.779 491.17> 234 102<434.976 504 577 627.357>
LayerCount: 2
Fore
SplineSet
18 456 m 0
 18 548 97 577 192 577 c 2
 234 577 l 1
 234 590 l 2
 234 619 220 633 186 633 c 0
 149 633 126 621 126 592 c 2
 126 584 l 1
 26 593 l 1
 26 600 l 2
 26 685 106 721 186 721 c 0
 277 721 336 673 336 586 c 2
 336 440 l 2
 336 407 339 381 347 354 c 2
 350 344 l 1
 249 344 l 1
 246 352 242 361 241 369 c 1
 218 349 188 337 147 337 c 0
 70 337 18 379 18 456 c 0
118 458 m 1
 118 432 135 423 168 423 c 0
 192 423 220 437 234 449 c 1
 234 504 l 1
 193 504 l 2
 157 504 133 495 123 475 c 1
 122 476 118 458 118 458 c 1
EndSplineSet
EndChar

StartChar: guillemotleft
Encoding: 171 171 110
Width: 468
GlyphClass: 2
Flags: W
LayerCount: 2
Fore
SplineSet
18 249 m 1
 18 263 l 1
 158 451 l 1
 266 451 l 1
 145 256 l 1
 266 61 l 1
 158 61 l 1
 18 249 l 1
206 249 m 1
 206 263 l 1
 346 451 l 1
 454 451 l 1
 333 256 l 1
 454 61 l 1
 346 61 l 1
 206 249 l 1
EndSplineSet
EndChar

StartChar: logicalnot
Encoding: 172 172 111
Width: 477
GlyphClass: 2
Flags: W
HStem: 302 98<26 336>
VStem: 336 112<176 302>
LayerCount: 2
Fore
SplineSet
26 302 m 1
 26 400 l 1
 448 400 l 1
 448 176 l 1
 336 176 l 1
 336 302 l 1
 26 302 l 1
EndSplineSet
EndChar

StartChar: uni00AD
Encoding: 173 173 112
Width: 346
GlyphClass: 2
Flags: W
HStem: 240 128<28 318>
VStem: 28 290<240 368>
LayerCount: 2
Fore
SplineSet
28 240 m 1
 28 368 l 1
 318 368 l 1
 318 240 l 1
 28 240 l 1
EndSplineSet
EndChar

StartChar: registered
Encoding: 174 174 113
Width: 742
GlyphClass: 2
Flags: W
HStem: -10 76<262.07 479.294> 312 80<308 431.139> 496 80<308 432.883> 645 76<264.411 477.384>
VStem: 16 76<240.982 472.423> 220 88<146 312 392 496> 440 88<146.802 303.357 403.447 487.041> 449 87<146 296.124> 650 74<239.743 472.616>
LayerCount: 2
Fore
SplineSet
16 356 m 0xfc80
 16 471 63 556 121 616 c 0
 177 674 259 721 371 721 c 0
 482 721 564 673 621 616 c 0
 663 573 694 520 711 455 c 0
 719 424 724 391 724 356 c 0
 724 243 680 156 621 96 c 0
 564 38 479 -10 371 -10 c 0
 260 -10 177 38 121 96 c 0
 63 157 16 241 16 356 c 0xfc80
92 356 m 0
 92 221 166 131 262 88 c 0
 296 73 332 66 371 66 c 0
 460 66 524 102 569 149 c 0
 616 198 650 264 650 356 c 0
 650 478 589 560 511 607 c 0
 474 629 427 645 371 645 c 0
 284 645 219 608 173 562 c 0
 126 516 92 445 92 356 c 0
220 146 m 1
 220 576 l 1
 364 576 l 2
 457 576 530 538 530 441 c 0
 530 400 507 373 482 356 c 1
 515 335 528 299 528 251 c 2
 528 224 l 2xfe80
 528 201 530 179 536 165 c 1
 536 146 l 1
 449 146 l 1xfd80
 442 163 440 187 440 210 c 2
 440 251 l 2xfe80
 440 296 424 312 378 312 c 2
 308 312 l 1
 308 146 l 1
 220 146 l 1
308 392 m 1
 367 392 l 2
 407 392 442 408 442 441 c 0
 442 488 417 496 364 496 c 2
 308 496 l 1
 308 392 l 1
EndSplineSet
EndChar

StartChar: macron
Encoding: 175 175 114
AltUni2: 0002c9.ffffffff.0
Width: 427
GlyphClass: 2
Flags: W
HStem: 600 111<53 440>
LayerCount: 2
Fore
SplineSet
53 600 m 1
 53 711 l 1
 440 711 l 1
 440 600 l 1
 53 600 l 1
EndSplineSet
EndChar

StartChar: degree
Encoding: 176 176 115
Width: 321
GlyphClass: 2
Flags: W
HStem: 453 87<114.949 205.484> 633 88<114.129 204.782>
VStem: 20 86<549.476 624.021> 212 86<547.816 625.654>
LayerCount: 2
Fore
SplineSet
20 586 m 0
 20 649 60 689 106 709 c 0
 123 716 141 721 160 721 c 0
 224 721 269 682 288 638 c 0
 295 622 298 605 298 586 c 0
 298 524 260 484 214 465 c 0
 197 458 179 453 160 453 c 0
 96 453 51 491 31 534 c 0
 24 550 20 567 20 586 c 0
106 586 m 0
 106 560 132 540 160 540 c 0
 192 540 212 558 212 586 c 0
 212 614 192 633 160 633 c 0
 129 633 106 613 106 586 c 0
EndSplineSet
EndChar

StartChar: plusminus
Encoding: 177 177 116
Width: 501
GlyphClass: 2
Flags: W
HStem: -8 132<32 468> 336 132<20 182 322 482>
VStem: 182 140<158 336 468 636>
LayerCount: 2
Fore
SplineSet
20 336 m 1
 20 468 l 1
 182 468 l 1
 182 636 l 1
 322 636 l 1
 322 468 l 1
 482 468 l 1
 482 336 l 1
 322 336 l 1
 322 158 l 1
 182 158 l 1
 182 336 l 1
 20 336 l 1
32 -8 m 1
 32 124 l 1
 468 124 l 1
 468 -8 l 1
 32 -8 l 1
EndSplineSet
EndChar

StartChar: twosuperior
Encoding: 178 178 117
Width: 366
GlyphClass: 2
Flags: W
HStem: 326 95<188 344> 621 95<139.762 216.374>
VStem: 218 116<554.664 618.267>
LayerCount: 2
Fore
SplineSet
18 568 m 1
 18 576 l 2
 18 643 60 687 110 706 c 0
 130 713 151 716 175 716 c 0
 265 716 334 679 334 595 c 0
 334 542 302 512 272 488 c 1
 259 476 243 464 225 450 c 2
 188 421 l 1
 344 421 l 1
 344 326 l 1
 28 326 l 1
 28 404 l 1
 170 532 l 1
 188 545 201 558 208 568 c 0
 216 579 218 587 218 592 c 0
 218 611 206 621 180 621 c 0
 152 621 134 604 134 576 c 2
 134 568 l 1
 18 568 l 1
EndSplineSet
EndChar

StartChar: threesuperior
Encoding: 179 179 118
Width: 369
GlyphClass: 2
Flags: W
HStem: 320 95<137.746 230.788> 488 82<128 225.422> 620 96<140.147 224.184>
VStem: 234 114<419.917 483.544>
LayerCount: 2
Fore
SplineSet
18 448 m 2
 18 455 l 1
 134 455 l 1
 134 448 l 2
 134 427 158 415 186 415 c 0
 216 415 234 428 234 450 c 0
 234 480 215 488 179 488 c 2
 128 488 l 1
 128 570 l 1
 179 570 l 2
 210 570 226 578 226 597 c 0
 226 613 210 620 183 620 c 0
 160 620 140 611 140 598 c 2
 140 591 l 1
 26 591 l 1
 26 598 l 2
 26 662 74 696 122 709 c 0
 140 714 160 716 180 716 c 0
 264 716 342 688 342 606 c 0
 342 568 317 546 289 532 c 1
 324 518 348 488 348 440 c 0
 348 352 263 320 180 320 c 0
 114 320 61 344 34 388 c 0
 24 404 18 425 18 448 c 2
EndSplineSet
EndChar

StartChar: acute
Encoding: 180 180 119
Width: 308
GlyphClass: 2
Flags: W
HStem: 584 166<123 148>
VStem: 16 281
LayerCount: 2
Fore
SplineSet
16 584 m 1
 123 750 l 1
 297 750 l 1
 148 584 l 1
 16 584 l 1
EndSplineSet
EndChar

StartChar: mu
Encoding: 181 181 120
Width: 543
GlyphClass: 2
Flags: W
HStem: -203 21G<30 186> -10 129<206.546 337.459> 0 21G<367.4 514> 508 20G<30 186 358 514>
VStem: 30 156<-203 7 139.298 528> 358 156<139.268 528>
LayerCount: 2
Fore
SplineSet
30 -203 m 1xdc
 30 528 l 1
 186 528 l 1
 186 229 l 2
 186 158 201 119 266 119 c 0xdc
 314 119 341 136 358 164 c 1
 358 528 l 1
 514 528 l 1
 514 0 l 1
 369 0 l 1xbc
 367 25 l 1
 341 3 307 -10 263 -10 c 0
 234 -10 208 -4 186 7 c 1
 186 -203 l 1
 30 -203 l 1xdc
EndSplineSet
EndChar

StartChar: paragraph
Encoding: 182 182 121
Width: 582
GlyphClass: 2
Flags: W
HStem: 691 20G<244 418 430 552>
VStem: 16 402<368.851 580.773> 296 122<-15 239> 430 122<-15 711>
LayerCount: 2
Fore
SplineSet
16 474 m 0xd0
 16 588 73 660 158 693 c 0
 189 705 224 711 264 711 c 2
 418 711 l 1
 418 -15 l 1
 296 -15 l 1
 296 239 l 1xb0
 264 239 l 2
 146 239 64 293 32 381 c 0
 22 410 16 440 16 474 c 0xd0
430 -15 m 1
 430 711 l 1
 552 711 l 1
 552 -15 l 1
 430 -15 l 1
EndSplineSet
EndChar

StartChar: periodcentered
Encoding: 183 183 122
Width: 225
GlyphClass: 2
Flags: W
HStem: 265 166<51.1311 172.869>
VStem: 24 176<291.991 404.009>
LayerCount: 2
Fore
SplineSet
24 348 m 0
 24 398 61 431 112 431 c 0
 162 431 200 399 200 348 c 0
 200 298 161 265 112 265 c 0
 63 265 24 297 24 348 c 0
EndSplineSet
EndChar

StartChar: cedilla
Encoding: 184 184 123
Width: 249
GlyphClass: 2
Flags: W
HStem: -226 97<41 90.6318> -72 75<39 91.1504>
VStem: 21 205
LayerCount: 2
Fore
SplineSet
21 -72 m 1
 39 3 l 1
 159 3 l 1
 154 -25 l 1
 196 -33 226 -62 226 -109 c 0
 226 -172 177 -205 124 -218 c 0
 102 -224 76 -226 48 -226 c 2
 41 -226 l 1
 36 -129 l 1
 44 -129 l 2
 74 -129 92 -121 92 -100 c 0
 92 -77 68 -75 29 -72 c 2
 21 -72 l 1
EndSplineSet
EndChar

StartChar: onesuperior
Encoding: 185 185 124
Width: 253
GlyphClass: 2
Flags: W
HStem: 690 20G<141.593 224>
VStem: 108 116<326 582>
LayerCount: 2
Fore
SplineSet
16 563 m 1
 16 651 l 1
 206 710 l 1
 224 710 l 1
 224 326 l 1
 108 326 l 1
 108 582 l 1
 16 563 l 1
EndSplineSet
EndChar

StartChar: ordmasculine
Encoding: 186 186 125
Width: 391
GlyphClass: 2
Flags: W
HStem: 337 86<140.371 248.471> 633 88<137.937 251.066>
VStem: 18 100<446.092 612.397> 272 100<446.792 612.32>
LayerCount: 2
Fore
SplineSet
18 518 m 2
 18 552 l 2
 18 631 59 684 121 707 c 0
 143 716 168 721 195 721 c 0
 281 721 336 679 359 620 c 0
 367 600 372 576 372 552 c 2
 372 518 l 2
 372 433 331 376 269 351 c 0
 247 343 223 337 196 337 c 0
 109 337 55 381 31 445 c 0
 23 467 18 492 18 518 c 2
118 518 m 2
 118 461 142 423 196 423 c 0
 247 423 272 463 272 518 c 2
 272 550 l 2
 272 599 247 633 195 633 c 0
 142 633 118 600 118 550 c 2
 118 518 l 2
EndSplineSet
EndChar

StartChar: guillemotright
Encoding: 187 187 126
Width: 475
GlyphClass: 2
Flags: W
LayerCount: 2
Fore
SplineSet
15 61 m 1
 136 255 l 1
 15 451 l 1
 123 451 l 1
 264 262 l 1
 264 249 l 1
 123 61 l 1
 15 61 l 1
207 61 m 1
 328 255 l 1
 207 451 l 1
 315 451 l 1
 456 262 l 1
 456 249 l 1
 315 61 l 1
 207 61 l 1
EndSplineSet
EndChar

StartChar: onequarter
Encoding: 188 188 127
Width: 675
GlyphClass: 2
Flags: W
HStem: -8 21G<502 616> 70 96<446 502 616 660>
VStem: 106 116<309 575> 502 114<-8 70 166 238 386 392>
LayerCount: 2
Fore
SplineSet
14 555 m 1
 14 647 l 1
 204 708 l 1
 222 708 l 1
 222 309 l 1
 106 309 l 1
 106 575 l 1
 14 555 l 1
117 91 m 1
 472 660 l 1
 555 616 l 1
 199 47 l 1
 117 91 l 1
327 146 m 1
 502 386 l 1
 502 392 l 1
 616 392 l 1
 616 166 l 1
 660 166 l 1
 660 70 l 1
 616 70 l 1
 616 -8 l 1
 502 -8 l 1
 502 70 l 1
 334 70 l 1
 327 146 l 1
446 166 m 1
 502 166 l 1
 502 238 l 1
 484 213 464 189 446 166 c 1
EndSplineSet
EndChar

StartChar: onehalf
Encoding: 189 189 128
Width: 725
GlyphClass: 2
Flags: W
HStem: -8 96<553 710> 302 96<503.778 581.515> 691 20G<141.705 222>
VStem: 106 116<312 578> 584 114<227.605 298.751>
LayerCount: 2
Fore
SplineSet
14 558 m 1
 14 650 l 1
 204 711 l 1
 222 711 l 1
 222 312 l 1
 106 312 l 1
 106 578 l 1
 14 558 l 1
105 91 m 1
 460 660 l 1
 543 616 l 1
 187 47 l 1
 105 91 l 1
384 250 m 1
 384 257 l 2
 384 325 425 367 475 387 c 0
 495 394 516 398 540 398 c 0
 630 398 698 359 698 270 c 0
 698 214 667 180 637 154 c 0
 624 142 608 130 590 116 c 2
 553 88 l 1
 710 88 l 1
 710 -8 l 1
 392 -8 l 1
 392 70 l 1
 535 199 l 2
 553 215 565 229 572 242 c 0
 580 256 584 265 584 269 c 0
 584 292 571 302 545 302 c 0
 516 302 498 285 498 257 c 2
 498 250 l 1
 384 250 l 1
EndSplineSet
EndChar

StartChar: threequarters
Encoding: 190 190 129
Width: 757
GlyphClass: 2
Flags: W
HStem: -8 21G<584 698> 70 96<528 584 698 742> 314 94<134.792 227.227> 482 80<126 222.141> 621 96<138.095 223.118>
VStem: 22 116<411.245 448 592 617.399> 224 114<566.076 617.52> 230 116<412.566 477.505> 584 114<-8 70 166 238 386 392>
LayerCount: 2
Fore
SplineSet
16 441 m 2xfd80
 16 448 l 1
 132 448 l 1
 132 441 l 2
 132 420 155 408 183 408 c 0
 213 408 230 422 230 444 c 0xfd80
 230 474 212 482 176 482 c 2
 126 482 l 1
 126 562 l 1
 176 562 l 2
 206 562 224 573 224 594 c 0
 224 613 207 621 180 621 c 0
 157 621 138 613 138 600 c 2
 138 592 l 1
 22 592 l 1
 22 600 l 2
 22 665 71 696 119 710 c 0
 137 715 157 717 177 717 c 0
 260 717 338 687 338 601 c 0xfe80
 338 561 314 536 286 521 c 1
 321 507 346 479 346 432 c 0
 346 346 260 314 177 314 c 0
 109 314 58 336 31 381 c 0
 21 397 16 418 16 441 c 2xfd80
201 91 m 1
 556 660 l 1
 639 616 l 1
 283 47 l 1
 201 91 l 1
409 146 m 1
 584 386 l 1
 584 392 l 1
 698 392 l 1
 698 166 l 1
 742 166 l 1
 742 70 l 1
 698 70 l 1
 698 -8 l 1
 584 -8 l 1
 584 70 l 1
 416 70 l 1
 409 146 l 1
528 167 m 1
 584 166 l 1
 584 238 l 1
 566 213 546 190 528 167 c 1
EndSplineSet
EndChar

StartChar: questiondown
Encoding: 191 191 130
Width: 490
GlyphClass: 2
Flags: W
HStem: -196 130<189.728 299.131> 374 164<195.698 316.302>
VStem: 18 156<-50.7374 66.7798> 170 172<398.995 513.402> 184 140<228.531 322>
LayerCount: 2
Fore
SplineSet
18 3 m 0xe8
 18 52 35 86 57 116 c 0
 82 150 113 179 143 207 c 1
 172 232 184 259 184 314 c 2
 184 322 l 1
 324 322 l 1
 324 314 l 2
 324 222 299 169 250 125 c 1
 222 98 193 74 180 37 c 0
 176 27 174 16 174 4 c 0
 174 -42 198 -66 242 -66 c 0
 290 -66 318 -38 318 11 c 2
 318 18 l 1
 474 18 l 1
 474 11 l 2
 474 -126 379 -196 245 -196 c 0
 111 -196 18 -133 18 3 c 0xe8
170 456 m 0xd0
 170 507 205 538 256 538 c 0
 306 538 342 507 342 456 c 0
 342 406 306 374 256 374 c 0
 206 374 170 406 170 456 c 0xd0
EndSplineSet
EndChar

StartChar: Agrave
Encoding: 192 192 131
Width: 708
GlyphClass: 2
Flags: W
HStem: 0 21G<9 187.712 519.288 698> 146 126<275 432> 691 20G<272.377 433.651> 735 21G<288.048 439>
LayerCount: 2
Fore
SplineSet
9 0 m 1
 280 711 l 1
 426 711 l 1
 698 -0 l 1
 526 0 l 1
 477 146 l 1
 230 146 l 1
 181 0 l 1
 9 0 l 1
157 901 m 1
 332 901 l 1
 439 735 l 1
 306 735 l 1
 157 901 l 1
275 272 m 1
 432 272 l 1
 353 507 l 1
 275 272 l 1
EndSplineSet
Substitution2: "'smcp' Lowercase to Small Capitals in Latin lookup 1 subtable" Agrave.smcp
EndChar

StartChar: Aacute
Encoding: 193 193 132
Width: 708
GlyphClass: 2
Flags: W
HStem: 0 21G<9 187.712 519.288 698> 146 126<275 432> 691 20G<272.377 433.651> 735 21G<273 422.952>
LayerCount: 2
Fore
SplineSet
9 0 m 1
 280 711 l 1
 426 711 l 1
 698 -0 l 1
 526 0 l 1
 477 146 l 1
 230 146 l 1
 181 0 l 1
 9 0 l 1
273 735 m 1
 380 901 l 1
 554 901 l 1
 405 735 l 1
 273 735 l 1
275 272 m 1
 432 272 l 1
 353 507 l 1
 275 272 l 1
EndSplineSet
Substitution2: "'smcp' Lowercase to Small Capitals in Latin lookup 1 subtable" Aacute.smcp
EndChar

StartChar: Acircumflex
Encoding: 194 194 133
Width: 708
GlyphClass: 2
Flags: W
HStem: 0 21G<9 187.712 519.288 698> 146 126<275 432> 691 20G<272.377 433.651>
LayerCount: 2
Fore
SplineSet
9 0 m 1
 280 711 l 1
 426 711 l 1
 698 -0 l 1
 526 0 l 1
 477 146 l 1
 230 146 l 1
 181 0 l 1
 9 0 l 1
162 743 m 1
 162 762 l 1
 311 901 l 1
 399 901 l 1
 550 760 l 1
 550 743 l 1
 427 743 l 1
 355 811 l 1
 282 743 l 1
 162 743 l 1
275 272 m 1
 432 272 l 1
 353 507 l 1
 275 272 l 1
EndSplineSet
Substitution2: "'smcp' Lowercase to Small Capitals in Latin lookup 1 subtable" Acircumflex.smcp
EndChar

StartChar: Atilde
Encoding: 195 195 134
Width: 708
GlyphClass: 2
Flags: W
HStem: 0 21G<9 187.712 519.288 698> 146 126<275 432> 691 20G<272.377 433.651> 749 104<353.723 447.067> 791 104<262.855 353.723>
VStem: 164 96<749 788.201> 450 96<856.084 893>
LayerCount: 2
Fore
SplineSet
9 0 m 1xe6
 280 711 l 1
 426 711 l 1
 698 -0 l 1
 526 0 l 1
 477 146 l 1
 230 146 l 1
 181 0 l 1
 9 0 l 1xe6
164 749 m 1xf6
 164 756 l 2
 164 816 193 862 234 883 c 0
 249 891 265 895 281 895 c 0xee
 341 895 366 853 415 853 c 0
 436 853 450 868 450 892 c 2
 450 901 l 1
 546 893 l 1
 546 886 l 2
 546 825 516 781 476 760 c 0
 462 752 445 749 428 749 c 0xf6
 380 749 354 773 325 786 c 0
 316 789 306 791 294 791 c 0xee
 273 791 260 776 260 752 c 2
 260 744 l 1
 164 749 l 1xf6
275 272 m 1
 432 272 l 1
 353 507 l 1
 275 272 l 1
EndSplineSet
Substitution2: "'smcp' Lowercase to Small Capitals in Latin lookup 1 subtable" Atilde.smcp
EndChar

StartChar: Adieresis
Encoding: 196 196 135
Width: 708
GlyphClass: 2
Flags: W
HStem: 0 21G<9 187.712 519.288 698> 146 126<275 432> 691 20G<272.377 433.651> 741 139<179.631 290.369 417.631 528.369>
VStem: 160 150<760.504 859.586> 398 150<760.414 859.586>
LayerCount: 2
Fore
SplineSet
9 0 m 1
 280 711 l 1
 426 711 l 1
 698 -0 l 1
 526 0 l 1
 477 146 l 1
 230 146 l 1
 181 0 l 1
 9 0 l 1
160 810 m 0
 160 853 194 880 235 880 c 0
 276 880 310 852 310 810 c 0
 310 767 276 741 235 741 c 0
 193 741 160 766 160 810 c 0
275 272 m 1
 432 272 l 1
 353 507 l 1
 275 272 l 1
398 810 m 0
 398 853 432 880 473 880 c 0
 514 880 548 852 548 810 c 0
 548 768 514 740 473 740 c 0
 431 740 398 767 398 810 c 0
EndSplineSet
Substitution2: "'smcp' Lowercase to Small Capitals in Latin lookup 1 subtable" Adieresis.smcp
EndChar

StartChar: Aring
Encoding: 197 197 136
Width: 708
GlyphClass: 2
Flags: W
HStem: 0 21G<9 187.712 519.288 698> 146 126<275 432> 691 20G<272.377 433.651> 732 61<316.238 393.136> 883 62<315.49 393.504>
VStem: 238 72<799.408 877.253> 400 72<798.64 877.53>
LayerCount: 2
Fore
SplineSet
9 0 m 1
 280 711 l 1
 426 711 l 1
 698 -0 l 1
 526 0 l 1
 477 146 l 1
 230 146 l 1
 181 0 l 1
 9 0 l 1
238 838 m 0
 238 890 272 921 309 936 c 0
 323 941 339 945 355 945 c 0
 419 945 472 904 472 838 c 0
 472 772 419 732 355 732 c 0
 302 732 265 759 248 795 c 0
 242 808 238 823 238 838 c 0
275 272 m 1
 432 272 l 1
 353 507 l 1
 275 272 l 1
310 838 m 0
 310 813 329 793 355 793 c 0
 382 793 400 812 400 838 c 0
 400 865 383 883 355 883 c 0
 327 883 310 865 310 838 c 0
EndSplineSet
Substitution2: "'smcp' Lowercase to Small Capitals in Latin lookup 1 subtable" Aring.smcp
EndChar

StartChar: AE
Encoding: 198 198 137
Width: 956
GlyphClass: 2
Flags: W
HStem: 0 127<634 936> 163 127<339 471> 300 126<627 866> 581 130<615 906>
VStem: 461 160<426 533>
LayerCount: 2
Fore
SplineSet
6 0 m 1
 399 711 l 1
 906 711 l 1
 906 581 l 1
 615 581 l 1
 621 426 l 1
 866 426 l 1
 866 300 l 1
 627 300 l 1
 634 127 l 1
 936 127 l 1
 936 0 l 1
 484 0 l 1
 477 163 l 1
 271 163 l 1
 190 -0 l 1
 6 0 l 1
339 290 m 1
 471 290 l 1
 461 533 l 1
 339 290 l 1
EndSplineSet
EndChar

StartChar: Ccedilla
Encoding: 199 199 138
Width: 639
GlyphClass: 2
Flags: W
HStem: -226 97<266 313.92> 586 135<246.055 408.336>
VStem: 20 164<196.016 511.888> 316 134<-125.907 -72.4788>
LayerCount: 2
Fore
SplineSet
20 333 m 2
 20 378 l 2
 20 535 86 649 199 697 c 0
 236 713 277 721 323 721 c 0
 500 721 599 621 616 463 c 2
 617 455 l 1
 455 455 l 1
 455 462 l 1
 450 545 411 586 323 586 c 0
 215 586 184 502 184 378 c 2
 184 333 l 2
 184 216 209 125 321 125 c 0
 409 125 449 163 454 245 c 1
 454 252 l 1
 616 252 l 1
 615 244 l 1
 604 101 515 13 379 -6 c 1
 379 -11 l 1
 421 -20 450 -51 450 -102 c 0
 450 -170 401 -204 348 -218 c 0
 326 -224 301 -226 273 -226 c 2
 266 -226 l 1
 261 -129 l 1
 269 -129 l 2
 299 -129 316 -120 316 -96 c 0
 316 -68 285 -70 246 -65 c 1
 259 -5 l 1
 142 16 73 92 41 191 c 0
 27 233 20 281 20 333 c 2
EndSplineSet
Substitution2: "'smcp' Lowercase to Small Capitals in Latin lookup 1 subtable" Ccedilla.smcp
EndChar

StartChar: Egrave
Encoding: 200 200 139
Width: 541
GlyphClass: 2
Flags: W
HStem: 0 133<190 520> 300 130<190 470> 577 134<190 518> 737 21G<215.048 366>
VStem: 28 162<133 300 430 577>
LayerCount: 2
Fore
SplineSet
28 0 m 1
 28 711 l 1
 518 711 l 1
 518 577 l 1
 190 577 l 1
 190 430 l 1
 470 430 l 1
 470 300 l 1
 190 300 l 1
 190 133 l 1
 520 133 l 1
 520 0 l 1
 28 0 l 1
84 903 m 1
 259 903 l 1
 366 737 l 1
 233 737 l 1
 84 903 l 1
EndSplineSet
Substitution2: "'smcp' Lowercase to Small Capitals in Latin lookup 1 subtable" Egrave.smcp
EndChar

StartChar: Eacute
Encoding: 201 201 140
Width: 541
GlyphClass: 2
Flags: W
HStem: 0 133<190 520> 300 130<190 470> 577 134<190 518> 737 21G<200 349.952>
VStem: 28 162<133 300 430 577>
LayerCount: 2
Fore
SplineSet
28 0 m 1
 28 711 l 1
 518 711 l 1
 518 577 l 1
 190 577 l 1
 190 430 l 1
 470 430 l 1
 470 300 l 1
 190 300 l 1
 190 133 l 1
 520 133 l 1
 520 0 l 1
 28 0 l 1
200 737 m 1
 307 903 l 1
 481 903 l 1
 332 737 l 1
 200 737 l 1
EndSplineSet
Substitution2: "'smcp' Lowercase to Small Capitals in Latin lookup 1 subtable" Eacute.smcp
EndChar

StartChar: Ecircumflex
Encoding: 202 202 141
Width: 541
GlyphClass: 2
Flags: W
HStem: 0 133<190 520> 300 130<190 470> 577 134<190 518>
VStem: 28 162<133 300 430 577>
LayerCount: 2
Fore
SplineSet
28 0 m 1
 28 711 l 1
 518 711 l 1
 518 577 l 1
 190 577 l 1
 190 430 l 1
 470 430 l 1
 470 300 l 1
 190 300 l 1
 190 133 l 1
 520 133 l 1
 520 0 l 1
 28 0 l 1
88 745 m 1
 88 764 l 1
 238 903 l 1
 326 903 l 1
 476 762 l 1
 476 745 l 1
 354 745 l 1
 282 813 l 1
 209 745 l 1
 88 745 l 1
EndSplineSet
Substitution2: "'smcp' Lowercase to Small Capitals in Latin lookup 1 subtable" Ecircumflex.smcp
EndChar

StartChar: Edieresis
Encoding: 203 203 142
Width: 541
GlyphClass: 2
Flags: W
HStem: 0 133<190 520> 300 130<190 470> 577 134<190 518> 743 139<107.631 218.369 345.631 456.369>
VStem: 28 162<133 300 430 577> 88 150<762.504 861.586> 326 150<762.414 861.586>
LayerCount: 2
Fore
SplineSet
28 0 m 1xfa
 28 711 l 1
 518 711 l 1
 518 577 l 1
 190 577 l 1
 190 430 l 1
 470 430 l 1
 470 300 l 1
 190 300 l 1
 190 133 l 1
 520 133 l 1
 520 0 l 1
 28 0 l 1xfa
88 812 m 0xf6
 88 855 122 882 163 882 c 0
 204 882 238 854 238 812 c 0
 238 769 204 743 163 743 c 0
 121 743 88 768 88 812 c 0xf6
326 812 m 0
 326 855 360 882 401 882 c 0
 442 882 476 854 476 812 c 0
 476 770 442 742 401 742 c 0
 359 742 326 769 326 812 c 0
EndSplineSet
Substitution2: "'smcp' Lowercase to Small Capitals in Latin lookup 1 subtable" Edieresis.smcp
EndChar

StartChar: Igrave
Encoding: 204 204 143
Width: 312
GlyphClass: 2
Flags: W
HStem: 0 21G<118 280> 691 20G<118 280> 737 21G<132.048 283>
VStem: 118 162<0 711>
LayerCount: 2
Fore
SplineSet
1 903 m 1
 176 903 l 1
 283 737 l 1
 150 737 l 1
 1 903 l 1
118 0 m 1
 118 711 l 1
 280 711 l 1
 280 0 l 1
 118 0 l 1
EndSplineSet
Substitution2: "'smcp' Lowercase to Small Capitals in Latin lookup 1 subtable" Igrave.smcp
EndChar

StartChar: Iacute
Encoding: 205 205 144
Width: 309
GlyphClass: 2
Flags: W
HStem: 0 21G<28 188> 691 20G<28 188> 737 21G<25 174.952>
VStem: 28 160<0 711>
LayerCount: 2
Fore
SplineSet
25 737 m 1
 132 903 l 1
 306 903 l 1
 157 737 l 1
 25 737 l 1
28 0 m 1
 28 711 l 1
 188 711 l 1
 188 0 l 1
 28 0 l 1
EndSplineSet
Substitution2: "'smcp' Lowercase to Small Capitals in Latin lookup 1 subtable" Iacute.smcp
EndChar

StartChar: Icircumflex
Encoding: 206 206 145
Width: 411
GlyphClass: 2
Flags: W
HStem: 0 21G<124 284> 691 20G<124 284>
VStem: 124 160<0 711>
LayerCount: 2
Fore
SplineSet
10 745 m 1
 10 764 l 1
 160 903 l 1
 248 903 l 1
 398 762 l 1
 398 745 l 1
 276 745 l 1
 204 813 l 1
 131 745 l 1
 10 745 l 1
124 0 m 1
 124 711 l 1
 284 711 l 1
 284 0 l 1
 124 0 l 1
EndSplineSet
Substitution2: "'smcp' Lowercase to Small Capitals in Latin lookup 1 subtable" Icircumflex.smcp
EndChar

StartChar: Idieresis
Encoding: 207 207 146
Width: 411
GlyphClass: 2
Flags: W
HStem: 0 21G<124 286> 691 20G<124 286> 743 139<30.0844 140.822 268.084 378.822>
VStem: 10 150<762.118 861.586> 124 162<0 711> 248 150<762.027 861.586>
LayerCount: 2
Fore
SplineSet
10 812 m 0xf0
 10 855 45 882 86 882 c 0
 127 882 160 854 160 812 c 0
 160 769 127 743 86 743 c 0
 44 743 10 768 10 812 c 0xf0
124 0 m 1xe8
 124 711 l 1
 286 711 l 1
 286 0 l 1
 124 0 l 1xe8
248 812 m 0xe4
 248 855 283 882 324 882 c 0
 365 882 398 854 398 812 c 0
 398 770 365 742 324 742 c 0
 282 742 248 769 248 812 c 0xe4
EndSplineSet
Substitution2: "'smcp' Lowercase to Small Capitals in Latin lookup 1 subtable" Idieresis.smcp
EndChar

StartChar: Eth
Encoding: 208 208 147
Width: 675
GlyphClass: 2
Flags: W
HStem: 0 133<252 402.89> 306 104<16 90 252 372> 577 134<252 404.466>
VStem: 90 162<133 306 410 577> 484 164<223.705 491.095>
LayerCount: 2
Fore
SplineSet
16 306 m 1
 16 410 l 1
 90 410 l 1
 90 711 l 1
 316 711 l 2
 477 711 579 625 624 509 c 0
 640 467 648 422 648 371 c 2
 648 339 l 2
 648 180 568 71 450 24 c 0
 409 8 364 0 314 0 c 2
 90 0 l 1
 90 306 l 1
 16 306 l 1
252 133 m 1
 314 133 l 2
 434 133 484 215 484 340 c 2
 484 371 l 2
 484 496 436 577 316 577 c 2
 252 577 l 1
 252 410 l 1
 372 410 l 1
 372 306 l 1
 252 306 l 1
 252 133 l 1
EndSplineSet
Substitution2: "'smcp' Lowercase to Small Capitals in Latin lookup 1 subtable" Eth.smcp
EndChar

StartChar: Ntilde
Encoding: 209 209 148
Width: 654
GlyphClass: 2
Flags: W
HStem: 0 21G<28 190 450.84 622> 691 20G<28 198.178 460 622> 749 104<324.723 417.265> 791 104<234.64 324.723>
VStem: 28 162<0 449> 134 98<749 788.201> 420 98<856.084 893> 460 162<261 711>
LayerCount: 2
Fore
SplineSet
28 0 m 1xc9
 28 711 l 1
 186 711 l 1
 460 261 l 1
 460 711 l 1
 622 711 l 1
 622 0 l 1
 463 0 l 1
 190 449 l 1
 190 0 l 1
 28 0 l 1xc9
134 749 m 1xe6
 134 756 l 2
 134 816 164 862 205 883 c 0
 220 891 236 895 252 895 c 0xd6
 312 895 337 853 386 853 c 0
 407 853 420 868 420 892 c 2
 420 901 l 1
 518 893 l 1
 518 886 l 2
 518 825 487 781 447 760 c 0
 433 752 416 749 399 749 c 0xe6
 351 749 325 773 296 786 c 0
 287 789 277 791 265 791 c 0xd6
 244 791 232 776 232 752 c 2
 232 744 l 1
 134 749 l 1xe6
EndSplineSet
Substitution2: "'smcp' Lowercase to Small Capitals in Latin lookup 1 subtable" Ntilde.smcp
EndChar

StartChar: Ograve
Encoding: 210 210 149
Width: 666
GlyphClass: 2
Flags: W
HStem: -10 135<257.936 406.972> 585 136<255.623 405.898> 735 21G<264.048 415>
VStem: 20 164<211.926 495.748> 478 162<213.816 500.677>
LayerCount: 2
Fore
SplineSet
20 339 m 2
 20 371 l 2
 20 533 89 646 205 696 c 0
 243 712 285 721 331 721 c 0
 431 721 506 680 555 626 c 0
 608 567 640 480 640 371 c 2
 640 339 l 2
 640 176 573 64 457 14 c 0
 419 -2 378 -10 332 -10 c 0
 233 -10 156 31 107 85 c 0
 54 143 20 231 20 339 c 2
133 901 m 1
 308 901 l 1
 415 735 l 1
 282 735 l 1
 133 901 l 1
184 340 m 2
 184 244 208 170 269 139 c 0
 287 130 308 125 332 125 c 0
 439 125 478 219 478 340 c 2
 478 371 l 2
 478 493 439 585 331 585 c 0
 224 585 184 492 184 371 c 2
 184 340 l 2
EndSplineSet
Substitution2: "'smcp' Lowercase to Small Capitals in Latin lookup 1 subtable" Ograve.smcp
EndChar

StartChar: Oacute
Encoding: 211 211 150
Width: 666
GlyphClass: 2
Flags: W
HStem: -10 135<257.936 406.972> 585 136<255.623 405.898> 735 21G<249 398.952>
VStem: 20 164<211.926 495.748> 478 162<213.816 500.677>
LayerCount: 2
Fore
SplineSet
20 339 m 2
 20 371 l 2
 20 533 89 646 205 696 c 0
 243 712 285 721 331 721 c 0
 431 721 506 680 555 626 c 0
 608 567 640 480 640 371 c 2
 640 339 l 2
 640 176 573 64 457 14 c 0
 419 -2 378 -10 332 -10 c 0
 233 -10 156 31 107 85 c 0
 54 143 20 231 20 339 c 2
184 340 m 2
 184 244 208 170 269 139 c 0
 287 130 308 125 332 125 c 0
 439 125 478 219 478 340 c 2
 478 371 l 2
 478 493 439 585 331 585 c 0
 224 585 184 492 184 371 c 2
 184 340 l 2
249 735 m 1
 356 901 l 1
 530 901 l 1
 381 735 l 1
 249 735 l 1
EndSplineSet
Substitution2: "'smcp' Lowercase to Small Capitals in Latin lookup 1 subtable" Oacute.smcp
EndChar

StartChar: Ocircumflex
Encoding: 212 212 151
Width: 666
GlyphClass: 2
Flags: W
HStem: -10 135<257.936 406.972> 585 136<255.623 405.898>
VStem: 20 164<211.926 495.748> 478 162<213.816 500.677>
LayerCount: 2
Fore
SplineSet
20 339 m 2
 20 371 l 2
 20 533 89 646 205 696 c 0
 243 712 285 721 331 721 c 0
 431 721 506 680 555 626 c 0
 608 567 640 480 640 371 c 2
 640 339 l 2
 640 176 573 64 457 14 c 0
 419 -2 378 -10 332 -10 c 0
 233 -10 156 31 107 85 c 0
 54 143 20 231 20 339 c 2
138 743 m 1
 138 762 l 1
 287 901 l 1
 375 901 l 1
 526 760 l 1
 526 743 l 1
 403 743 l 1
 331 811 l 1
 258 743 l 1
 138 743 l 1
184 340 m 2
 184 244 208 170 269 139 c 0
 287 130 308 125 332 125 c 0
 439 125 478 219 478 340 c 2
 478 371 l 2
 478 493 439 585 331 585 c 0
 224 585 184 492 184 371 c 2
 184 340 l 2
EndSplineSet
Substitution2: "'smcp' Lowercase to Small Capitals in Latin lookup 1 subtable" Ocircumflex.smcp
EndChar

StartChar: Otilde
Encoding: 213 213 152
Width: 666
GlyphClass: 2
Flags: W
HStem: -10 135<257.936 406.972> 585 136<255.623 405.898> 749 104<329.699 423.067> 791 104<238.653 328.533>
VStem: 20 164<211.926 495.748> 140 96<749 788.201> 426 96<856.084 893> 478 162<213.816 500.677>
LayerCount: 2
Fore
SplineSet
20 339 m 2xc9
 20 371 l 2
 20 533 89 646 205 696 c 0
 243 712 285 721 331 721 c 0
 431 721 506 680 555 626 c 0
 608 567 640 480 640 371 c 2
 640 339 l 2
 640 176 573 64 457 14 c 0
 419 -2 378 -10 332 -10 c 0
 233 -10 156 31 107 85 c 0
 54 143 20 231 20 339 c 2xc9
140 749 m 1xe6
 140 756 l 2
 140 816 170 862 211 883 c 0
 226 890 241 895 257 895 c 0xd6
 287 895 309 882 329 873 c 0
 349 864 367 853 391 853 c 0
 412 853 426 868 426 892 c 2
 426 901 l 1
 522 893 l 1
 522 886 l 2
 522 825 492 781 452 760 c 0
 438 752 421 749 404 749 c 0xe6
 356 749 330 773 301 786 c 0
 292 789 282 791 270 791 c 0xd6
 249 791 236 776 236 752 c 2
 236 744 l 1
 140 749 l 1xe6
184 340 m 2xc9
 184 244 208 170 269 139 c 0
 287 130 308 125 332 125 c 0
 439 125 478 219 478 340 c 2
 478 371 l 2
 478 493 439 585 331 585 c 0
 224 585 184 492 184 371 c 2
 184 340 l 2xc9
EndSplineSet
Substitution2: "'smcp' Lowercase to Small Capitals in Latin lookup 1 subtable" Otilde.smcp
EndChar

StartChar: Odieresis
Encoding: 214 214 153
Width: 666
GlyphClass: 2
Flags: W
HStem: -10 135<257.936 406.972> 585 136<255.623 405.898> 741 139<155.631 266.369 393.631 504.369>
VStem: 20 164<211.926 495.748> 136 150<760.504 859.586> 374 150<760.414 859.586> 478 162<213.816 500.677>
LayerCount: 2
Fore
SplineSet
20 339 m 2xf2
 20 371 l 2
 20 533 89 646 205 696 c 0
 243 712 285 721 331 721 c 0
 431 721 506 680 555 626 c 0
 608 567 640 480 640 371 c 2
 640 339 l 2
 640 176 573 64 457 14 c 0
 419 -2 378 -10 332 -10 c 0
 233 -10 156 31 107 85 c 0
 54 143 20 231 20 339 c 2xf2
136 810 m 0xe8
 136 853 170 880 211 880 c 0
 252 880 286 852 286 810 c 0
 286 767 252 741 211 741 c 0
 169 741 136 766 136 810 c 0xe8
184 340 m 2xf2
 184 244 208 170 269 139 c 0
 287 130 308 125 332 125 c 0
 439 125 478 219 478 340 c 2
 478 371 l 2
 478 493 439 585 331 585 c 0
 224 585 184 492 184 371 c 2
 184 340 l 2xf2
374 810 m 0xe4
 374 853 408 880 449 880 c 0
 490 880 524 852 524 810 c 0
 524 768 490 740 449 740 c 0
 407 740 374 767 374 810 c 0xe4
EndSplineSet
Substitution2: "'smcp' Lowercase to Small Capitals in Latin lookup 1 subtable" Odieresis.smcp
EndChar

StartChar: multiply
Encoding: 215 215 154
Width: 511
GlyphClass: 2
Flags: W
LayerCount: 2
Fore
SplineSet
11 182 m 1
 161 335 l 1
 11 483 l 1
 105 575 l 1
 253 423 l 1
 402 575 l 1
 496 483 l 1
 346 335 l 1
 496 182 l 1
 402 95 l 1
 253 240 l 1
 105 95 l 1
 11 182 l 1
EndSplineSet
EndChar

StartChar: Oslash
Encoding: 216 216 155
Width: 667
GlyphClass: 2
Flags: W
HStem: -10 135<264.166 407.28> 585 136<255.932 405.039> 721 20G<504.931 625>
VStem: 20 164<212.212 494.505> 478 164<215.059 483.636>
LayerCount: 2
Fore
SplineSet
20 339 m 2xb8
 20 370 l 2
 20 531 91 646 206 696 c 0
 244 712 285 721 331 721 c 0xd8
 391 721 442 706 482 683 c 1
 517 741 l 1
 625 741 l 1
 555 626 l 1
 610 565 642 481 642 371 c 2
 642 340 l 2
 642 178 574 64 458 14 c 0
 420 -2 378 -10 332 -10 c 0
 280 -10 233 1 191 22 c 1
 151 -46 l 1
 42 -46 l 1
 116 75 l 1
 57 136 20 224 20 339 c 2xb8
184 332 m 2
 184 284 190 243 202 210 c 1
 410 560 l 1
 387 577 362 584 331 585 c 1
 224 585 184 488 184 364 c 2
 184 332 l 2
263 143 m 1
 283 131 305 125 332 125 c 0
 439 125 478 221 478 346 c 2
 478 380 l 2
 478 421 473 456 465 485 c 1
 263 143 l 1
EndSplineSet
EndChar

StartChar: Ugrave
Encoding: 217 217 156
Width: 616
GlyphClass: 2
Flags: W
HStem: -10 133<225.574 384.929> 691 20G<26 186 424 586> 735 21G<237.048 388>
VStem: 26 160<163.687 711> 424 162<163.687 711>
LayerCount: 2
Fore
SplineSet
26 244 m 2
 26 711 l 1
 186 711 l 1
 186 246 l 2
 186 163 225 123 305 123 c 0
 386 123 424 163 424 246 c 2
 424 711 l 1
 586 711 l 1
 586 244 l 2
 586 116 516 37 416 6 c 0
 382 -5 345 -10 305 -10 c 0
 175 -10 86 44 46 135 c 0
 33 167 26 203 26 244 c 2
106 901 m 1
 281 901 l 1
 388 735 l 1
 255 735 l 1
 106 901 l 1
EndSplineSet
Substitution2: "'smcp' Lowercase to Small Capitals in Latin lookup 1 subtable" Ugrave.smcp
EndChar

StartChar: Uacute
Encoding: 218 218 157
Width: 616
GlyphClass: 2
Flags: W
HStem: -10 133<225.574 384.929> 691 20G<26 186 424 586> 735 21G<221 370.952>
VStem: 26 160<163.687 711> 424 162<163.687 711>
LayerCount: 2
Fore
SplineSet
26 244 m 2
 26 711 l 1
 186 711 l 1
 186 246 l 2
 186 163 225 123 305 123 c 0
 386 123 424 163 424 246 c 2
 424 711 l 1
 586 711 l 1
 586 244 l 2
 586 116 516 37 416 6 c 0
 382 -5 345 -10 305 -10 c 0
 175 -10 86 44 46 135 c 0
 33 167 26 203 26 244 c 2
221 735 m 1
 328 901 l 1
 502 901 l 1
 353 735 l 1
 221 735 l 1
EndSplineSet
Substitution2: "'smcp' Lowercase to Small Capitals in Latin lookup 1 subtable" Uacute.smcp
EndChar

StartChar: Ucircumflex
Encoding: 219 219 158
Width: 616
GlyphClass: 2
Flags: W
HStem: -10 133<225.574 384.929> 691 20G<26 186 424 586>
VStem: 26 160<163.687 711> 424 162<163.687 711>
LayerCount: 2
Fore
SplineSet
26 244 m 2
 26 711 l 1
 186 711 l 1
 186 246 l 2
 186 163 225 123 305 123 c 0
 386 123 424 163 424 246 c 2
 424 711 l 1
 586 711 l 1
 586 244 l 2
 586 116 516 37 416 6 c 0
 382 -5 345 -10 305 -10 c 0
 175 -10 86 44 46 135 c 0
 33 167 26 203 26 244 c 2
110 743 m 1
 110 762 l 1
 260 901 l 1
 348 901 l 1
 498 760 l 1
 498 743 l 1
 376 743 l 1
 304 811 l 1
 231 743 l 1
 110 743 l 1
EndSplineSet
Substitution2: "'smcp' Lowercase to Small Capitals in Latin lookup 1 subtable" Ucircumflex.smcp
EndChar

StartChar: Udieresis
Encoding: 220 220 159
Width: 616
GlyphClass: 2
Flags: W
HStem: -10 133<225.574 384.929> 691 20G<26 186 424 586> 741 139<128.084 238.822 366.084 476.822>
VStem: 26 160<163.687 711> 108 150<760.118 859.586> 346 150<760.027 859.586> 424 162<163.687 711>
LayerCount: 2
Fore
SplineSet
26 244 m 2xf2
 26 711 l 1
 186 711 l 1
 186 246 l 2
 186 163 225 123 305 123 c 0
 386 123 424 163 424 246 c 2
 424 711 l 1
 586 711 l 1
 586 244 l 2
 586 116 516 37 416 6 c 0
 382 -5 345 -10 305 -10 c 0
 175 -10 86 44 46 135 c 0
 33 167 26 203 26 244 c 2xf2
108 810 m 0xe8
 108 853 143 880 184 880 c 0
 225 880 258 852 258 810 c 0
 258 767 225 741 184 741 c 0
 142 741 108 766 108 810 c 0xe8
346 810 m 0xe4
 346 853 381 880 422 880 c 0
 463 880 496 852 496 810 c 0
 496 768 463 740 422 740 c 0
 380 740 346 767 346 810 c 0xe4
EndSplineSet
Substitution2: "'smcp' Lowercase to Small Capitals in Latin lookup 1 subtable" Udieresis.smcp
EndChar

StartChar: Yacute
Encoding: 221 221 160
Width: 656
GlyphClass: 2
Flags: W
HStem: 0 21G<244 408> 691 20G<7 194.161 460.774 647> 735 21G<246 395.952>
VStem: 244 164<0 258>
LayerCount: 2
Fore
SplineSet
7 711 m 1
 185 711 l 1
 327 401 l 1
 470 711 l 1
 647 711 l 1
 408 258 l 1
 408 0 l 1
 244 0 l 1
 244 258 l 1
 7 711 l 1
246 735 m 1
 353 901 l 1
 527 901 l 1
 378 735 l 1
 246 735 l 1
EndSplineSet
Substitution2: "'smcp' Lowercase to Small Capitals in Latin lookup 1 subtable" Yacute.smcp
EndChar

StartChar: Thorn
Encoding: 222 222 161
Width: 578
GlyphClass: 2
Flags: W
HStem: 0 21G<28 184> 132 130<184 363.595> 460 128<184 361.306> 691 20G<28 184>
VStem: 28 156<0 132 262 460 588 711> 398 156<295.966 423.762>
LayerCount: 2
Fore
SplineSet
28 0 m 1
 28 711 l 1
 184 711 l 1
 184 588 l 1
 285 588 l 2
 409 588 499 539 537 451 c 0
 549 423 554 393 554 360 c 0
 554 245 486 179 399 149 c 0
 365 138 328 132 285 132 c 2
 184 132 l 1
 184 0 l 1
 28 0 l 1
184 262 m 1
 285 262 l 2
 354 262 398 294 398 359 c 0
 398 424 354 460 285 460 c 2
 184 460 l 1
 184 262 l 1
EndSplineSet
EndChar

StartChar: germandbls
Encoding: 223 223 162
Width: 596
GlyphClass: 2
Flags: W
HStem: -10 129<248.518 403.889> 0 21G<28 184> 633 128<205.519 309.551>
VStem: 28 156<0 613.152> 272 156<359.433 471.144> 326 154<495.068 617.047> 418 156<133.88 222.573>
LayerCount: 2
Fore
SplineSet
28 0 m 1x74
 28 530 l 2
 28 681 117 761 266 761 c 0
 362 761 432 723 463 655 c 0
 475 631 480 604 480 574 c 0x74
 480 531 470 502 453 477 c 0
 439 456 428 435 428 402 c 0x78
 428 379 446 362 463 346 c 0
 497 313 540 281 563 232 c 0
 570 215 574 197 574 176 c 0
 574 47 479 -10 349 -10 c 0
 293 -10 241 0 204 22 c 1
 235 148 l 1
 260 132 301 119 346 119 c 0
 391 119 418 138 418 176 c 0xb2
 418 203 401 219 383 235 c 0
 339 275 272 310 272 397 c 0xb8
 272 478 326 497 326 566 c 0
 326 608 298 633 256 633 c 0
 199 633 184 592 184 528 c 2
 184 0 l 1
 28 0 l 1x74
EndSplineSet
Substitution2: "'smcp' Lowercase to Small Capitals in Latin lookup 1 subtable" germandbls.smcp
EndChar

StartChar: agrave
Encoding: 224 224 163
Width: 519
GlyphClass: 2
Flags: W
HStem: -10 123<183.182 295.813> 0 21G<343 502> 232 98<194.614 324> 419 119<195.895 309.963> 730 20G<62 249.892>
VStem: 16 156<124.245 210.113> 324 156<133.591 232 330 405.359>
LayerCount: 2
Fore
SplineSet
16 152 m 0xbe
 16 286 133 330 268 330 c 2
 324 330 l 1
 324 351 l 2
 324 395 302 419 253 419 c 0
 211 419 184 399 184 362 c 2
 184 355 l 1
 28 355 l 1
 28 362 l 2
 28 418 59 459 92 486 c 0
 133 518 191 538 261 538 c 0
 361 538 432 501 464 432 c 1
 476 409 480 381 480 350 c 2
 480 132 l 2
 480 85 487 49 501 18 c 1
 502 17 l 1
 502 0 l 1
 347 0 l 1x7e
 339 10 335 23 332 38 c 1
 302 9 261 -10 204 -10 c 0
 120 -10 59 31 31 87 c 0
 21 107 16 128 16 152 c 0xbe
62 750 m 1
 237 750 l 1
 344 584 l 1
 211 584 l 1
 62 750 l 1
172 163 m 0
 172 133 199 113 235 113 c 0xbe
 277 113 309 132 324 156 c 1
 324 232 l 1
 273 232 l 2
 213 232 172 213 172 163 c 0
EndSplineSet
Substitution2: "'smcp' Lowercase to Small Capitals in Latin lookup 1 subtable" Agrave.smcp
EndChar

StartChar: aacute
Encoding: 225 225 164
Width: 519
GlyphClass: 2
Flags: W
HStem: -10 123<183.182 295.813> 0 21G<343 502> 232 98<194.614 324> 419 119<195.895 309.963> 730 20G<272.108 459>
VStem: 16 156<124.245 210.113> 324 156<133.591 232 330 405.359>
LayerCount: 2
Fore
SplineSet
16 152 m 0xbe
 16 286 133 330 268 330 c 2
 324 330 l 1
 324 351 l 2
 324 395 302 419 253 419 c 0
 211 419 184 399 184 362 c 2
 184 355 l 1
 28 355 l 1
 28 362 l 2
 28 418 59 459 92 486 c 0
 133 518 191 538 261 538 c 0
 361 538 432 501 464 432 c 1
 476 409 480 381 480 350 c 2
 480 132 l 2
 480 85 487 49 501 18 c 1
 502 17 l 1
 502 0 l 1
 347 0 l 1x7e
 339 10 335 23 332 38 c 1
 302 9 261 -10 204 -10 c 0
 120 -10 59 31 31 87 c 0
 21 107 16 128 16 152 c 0xbe
172 163 m 0
 172 133 199 113 235 113 c 0xbe
 277 113 309 132 324 156 c 1
 324 232 l 1
 273 232 l 2
 213 232 172 213 172 163 c 0
178 584 m 1
 285 750 l 1
 459 750 l 1
 310 584 l 1
 178 584 l 1
EndSplineSet
Substitution2: "'smcp' Lowercase to Small Capitals in Latin lookup 1 subtable" Aacute.smcp
EndChar

StartChar: acircumflex
Encoding: 226 226 165
Width: 519
GlyphClass: 2
Flags: W
HStem: -10 123<183.182 295.813> 0 21G<343 502> 232 98<194.614 324> 419 119<195.895 309.963> 730 20G<194.417 325.277>
VStem: 16 156<124.245 210.113> 324 156<133.591 232 330 405.359>
LayerCount: 2
Fore
SplineSet
16 152 m 0xbe
 16 286 133 330 268 330 c 2
 324 330 l 1
 324 351 l 2
 324 395 302 419 253 419 c 0
 211 419 184 399 184 362 c 2
 184 355 l 1
 28 355 l 1
 28 362 l 2
 28 418 59 459 92 486 c 0
 133 518 191 538 261 538 c 0
 361 538 432 501 464 432 c 1
 476 409 480 381 480 350 c 2
 480 132 l 2
 480 85 487 49 501 18 c 1
 502 17 l 1
 502 0 l 1
 347 0 l 1x7e
 339 10 335 23 332 38 c 1
 302 9 261 -10 204 -10 c 0
 120 -10 59 31 31 87 c 0
 21 107 16 128 16 152 c 0xbe
66 592 m 1
 66 611 l 1
 216 750 l 1
 304 750 l 1
 454 609 l 1
 454 592 l 1
 332 592 l 1
 260 660 l 1
 187 592 l 1
 66 592 l 1
172 163 m 0
 172 133 199 113 235 113 c 0xbe
 277 113 309 132 324 156 c 1
 324 232 l 1
 273 232 l 2
 213 232 172 213 172 163 c 0
EndSplineSet
Substitution2: "'smcp' Lowercase to Small Capitals in Latin lookup 1 subtable" Acircumflex.smcp
EndChar

StartChar: atilde
Encoding: 227 227 166
Width: 519
GlyphClass: 2
Flags: W
HStem: -10 123<183.182 295.813> 0 21G<343 502> 232 98<194.614 324> 419 119<195.895 309.963> 599 104<258.699 351.265> 641 104<168.787 257.533> 731 20G<354 452>
VStem: 16 156<124.245 210.113> 68 98<599 638.201> 324 156<133.591 232 330 405.359> 354 98<706.084 743>
LayerCount: 2
Fore
SplineSet
16 152 m 0xb140
 16 286 133 330 268 330 c 2
 324 330 l 1
 324 351 l 2
 324 395 302 419 253 419 c 0
 211 419 184 399 184 362 c 2
 184 355 l 1
 28 355 l 1
 28 362 l 2
 28 418 59 459 92 486 c 0
 133 518 191 538 261 538 c 0
 361 538 432 501 464 432 c 1
 476 409 480 381 480 350 c 2
 480 132 l 2
 480 85 487 49 501 18 c 1
 502 17 l 1
 502 0 l 1
 347 0 l 1x7140
 339 10 335 23 332 38 c 1
 302 9 261 -10 204 -10 c 0
 120 -10 59 31 31 87 c 0
 21 107 16 128 16 152 c 0xb140
68 599 m 1x38a0
 68 606 l 2
 68 666 99 712 140 733 c 0
 155 740 170 745 186 745 c 0x34a0
 216 745 238 732 258 723 c 0
 278 714 296 703 320 703 c 0
 341 703 354 718 354 742 c 2
 354 751 l 1
 452 743 l 1
 452 736 l 2
 452 675 421 631 381 610 c 0
 367 602 350 599 333 599 c 0x3aa0
 285 599 259 623 230 636 c 0
 221 639 211 641 199 641 c 0x34a0
 178 641 166 626 166 602 c 2
 166 594 l 1
 68 599 l 1x38a0
172 163 m 0xb140
 172 133 199 113 235 113 c 0
 277 113 309 132 324 156 c 1
 324 232 l 1
 273 232 l 2
 213 232 172 213 172 163 c 0xb140
EndSplineSet
Substitution2: "'smcp' Lowercase to Small Capitals in Latin lookup 1 subtable" Atilde.smcp
EndChar

StartChar: adieresis
Encoding: 228 228 167
Width: 519
GlyphClass: 2
Flags: W
HStem: -10 123<183.182 295.813> 0 21G<343 502> 232 98<194.614 324> 419 119<195.895 309.963> 590 139<85.281 196.369 323.281 434.369>
VStem: 16 156<124.245 210.113> 66 150<610.027 709.11> 304 150<609.937 709.11> 324 156<133.591 232 330 405.359>
LayerCount: 2
Fore
SplineSet
16 152 m 0xbc80
 16 286 133 330 268 330 c 2
 324 330 l 1
 324 351 l 2
 324 395 302 419 253 419 c 0
 211 419 184 399 184 362 c 2
 184 355 l 1
 28 355 l 1
 28 362 l 2
 28 418 59 459 92 486 c 0
 133 518 191 538 261 538 c 0
 361 538 432 501 464 432 c 1
 476 409 480 381 480 350 c 2
 480 132 l 2
 480 85 487 49 501 18 c 1
 502 17 l 1
 502 0 l 1
 347 0 l 1x7c80
 339 10 335 23 332 38 c 1
 302 9 261 -10 204 -10 c 0
 120 -10 59 31 31 87 c 0
 21 107 16 128 16 152 c 0xbc80
66 660 m 0x3a
 66 703 100 729 141 729 c 0
 182 729 216 702 216 660 c 0
 216 617 182 590 141 590 c 0
 99 590 66 616 66 660 c 0x3a
172 163 m 0xbc80
 172 133 199 113 235 113 c 0
 277 113 309 132 324 156 c 1
 324 232 l 1
 273 232 l 2
 213 232 172 213 172 163 c 0xbc80
304 660 m 0x39
 304 703 338 729 379 729 c 0
 420 729 454 702 454 660 c 0
 454 618 420 589 379 589 c 0
 337 589 304 617 304 660 c 0x39
EndSplineSet
Substitution2: "'smcp' Lowercase to Small Capitals in Latin lookup 1 subtable" Adieresis.smcp
EndChar

StartChar: aring
Encoding: 229 229 168
Width: 519
GlyphClass: 2
Flags: W
HStem: -10 123<183.182 295.813> 0 21G<343 502> 232 98<194.614 324> 419 119<195.895 309.963> 580 61<222.238 299.136> 731 62<221.49 299.504>
VStem: 16 156<124.245 210.113> 144 72<647.408 725.253> 306 72<646.64 725.53> 324 156<133.591 232 330 405.359>
LayerCount: 2
Fore
SplineSet
16 152 m 0xbe40
 16 286 133 330 268 330 c 2
 324 330 l 1
 324 351 l 2
 324 395 302 419 253 419 c 0
 211 419 184 399 184 362 c 2
 184 355 l 1
 28 355 l 1
 28 362 l 2
 28 418 59 459 92 486 c 0
 133 518 191 538 261 538 c 0
 361 538 432 501 464 432 c 1
 476 409 480 381 480 350 c 2
 480 132 l 2
 480 85 487 49 501 18 c 1
 502 17 l 1
 502 0 l 1
 347 0 l 1x7e40
 339 10 335 23 332 38 c 1
 302 9 261 -10 204 -10 c 0
 120 -10 59 31 31 87 c 0
 21 107 16 128 16 152 c 0xbe40
144 686 m 0x3d80
 144 738 178 769 215 784 c 0
 229 789 245 793 261 793 c 0
 325 793 378 752 378 686 c 0
 378 620 325 580 261 580 c 0
 208 580 171 607 154 643 c 0
 148 656 144 671 144 686 c 0x3d80
172 163 m 0xbe40
 172 133 199 113 235 113 c 0
 277 113 309 132 324 156 c 1
 324 232 l 1
 273 232 l 2
 213 232 172 213 172 163 c 0xbe40
216 686 m 0x3d80
 216 661 235 641 261 641 c 0
 288 641 306 660 306 686 c 0
 306 713 289 731 261 731 c 0
 233 731 216 713 216 686 c 0x3d80
EndSplineSet
Substitution2: "'smcp' Lowercase to Small Capitals in Latin lookup 1 subtable" Aring.smcp
EndChar

StartChar: ae
Encoding: 230 230 169
Width: 846
GlyphClass: 2
Flags: W
HStem: -10 129<534.94 726.678> -10 119<183.539 320.648> 212 102<496 666> 225 95<200.431 340> 409 129<205.07 325.122 530.846 644.976>
VStem: 18 156<120.299 201.613> 340 154<158.052 212 320 370.097> 666 154<314 389.13>
LayerCount: 2
Fore
SplineSet
18 158 m 0x4f
 18 280 134 320 267 320 c 2
 340 320 l 1x5f
 340 340 l 2
 340 384 315 409 270 409 c 0
 232 409 208 398 196 376 c 0
 193 370 190 363 190 356 c 2
 190 349 l 1
 34 358 l 1
 34 366 l 2
 34 424 66 464 101 490 c 0
 143 520 201 538 271 538 c 0
 339 538 394 520 431 487 c 1
 470 519 522 539 590 538 c 1
 704 538 775 481 804 396 c 0
 814 367 820 334 820 297 c 2
 820 212 l 1
 494 212 l 1
 502 152 542 119 616 119 c 0
 679 119 723 136 764 159 c 1
 807 54 l 1
 757 17 687 -10 601 -10 c 0xaf
 518 -10 455 17 413 59 c 1
 369 16 305 -10 221 -10 c 0
 128 -10 59 24 31 89 c 0
 22 109 18 133 18 158 c 0x4f
174 162 m 0
 174 125 200 109 247 109 c 0
 285 109 318 125 340 144 c 1
 340 225 l 1
 268 225 l 2
 224 225 194 210 180 184 c 0
 176 176 174 170 174 162 c 0
496 314 m 1x2f
 666 314 l 1x2f
 666 320 l 2x1f
 666 376 643 409 590 409 c 0
 530 409 505 369 496 314 c 1x2f
EndSplineSet
EndChar

StartChar: ccedilla
Encoding: 231 231 170
Width: 522
GlyphClass: 2
Flags: W
HStem: -226 97<212 259.92> 409 129<208.431 326.729>
VStem: 20 156<150.431 373.219> 262 134<-125.907 -72.4788> 352 146<135.535 191 317 383.826>
LayerCount: 2
Fore
SplineSet
20 257 m 2xf0
 20 271 l 2
 20 392 72 479 161 518 c 0
 192 532 229 538 271 538 c 0
 377 538 449 489 481 413 c 0
 492 386 498 356 498 324 c 2
 498 317 l 1
 352 317 l 1
 352 324 l 2
 352 374 319 409 269 409 c 0
 194 409 176 348 176 269 c 2
 176 255 l 2
 176 175 193 115 270 115 c 0
 320 115 349 140 352 184 c 2
 352 191 l 1
 498 191 l 1
 498 184 l 2xe8
 498 123 467 74 432 44 c 0
 405 21 368 3 326 -5 c 1
 325 -11 l 1
 367 -20 396 -51 396 -102 c 0
 396 -170 347 -204 294 -218 c 0
 272 -224 247 -226 219 -226 c 2
 212 -226 l 1
 207 -129 l 1
 215 -129 l 2
 245 -129 262 -120 262 -96 c 0
 262 -68 231 -70 192 -65 c 1
 205 -3 l 1
 114 17 61 76 36 153 c 0
 26 185 20 220 20 257 c 2xf0
EndSplineSet
Substitution2: "'smcp' Lowercase to Small Capitals in Latin lookup 1 subtable" Ccedilla.smcp
EndChar

StartChar: egrave
Encoding: 232 232 171
Width: 540
GlyphClass: 2
Flags: W
HStem: -10 129<220.691 381.737> 210 112<181 360> 409 129<212.275 337.47> 730 20G<60 247.892>
VStem: 20 159<160.263 210 322 370.77>
LayerCount: 2
Fore
SplineSet
20 246 m 2
 20 265 l 2
 20 389 78 479 169 518 c 0
 200 531 235 538 274 538 c 0
 435 538 514 431 514 276 c 2
 514 210 l 1
 179 210 l 1
 189 154 230 119 299 119 c 0
 356 119 394 141 420 175 c 2
 426 182 l 1
 505 93 l 1
 501 88 l 2
 459 30 389 -10 289 -10 c 0
 159 -10 74 55 38 147 c 0
 26 178 20 211 20 246 c 2
60 750 m 1
 235 750 l 1
 342 584 l 1
 209 584 l 1
 60 750 l 1
181 322 m 1
 360 322 l 1
 360 326 l 2
 360 379 330 409 273 409 c 0
 215 409 189 371 181 322 c 1
EndSplineSet
Substitution2: "'smcp' Lowercase to Small Capitals in Latin lookup 1 subtable" Egrave.smcp
EndChar

StartChar: eacute
Encoding: 233 233 172
Width: 540
GlyphClass: 2
Flags: W
HStem: -10 129<220.691 381.737> 210 112<181 360> 409 129<212.275 337.47> 730 20G<269.108 456>
VStem: 20 159<160.263 210 322 370.77>
LayerCount: 2
Fore
SplineSet
20 246 m 2
 20 265 l 2
 20 389 78 479 169 518 c 0
 200 531 235 538 274 538 c 0
 435 538 514 431 514 276 c 2
 514 210 l 1
 179 210 l 1
 189 154 230 119 299 119 c 0
 356 119 394 141 420 175 c 2
 426 182 l 1
 505 93 l 1
 501 88 l 2
 459 30 389 -10 289 -10 c 0
 159 -10 74 55 38 147 c 0
 26 178 20 211 20 246 c 2
175 584 m 1
 282 750 l 1
 456 750 l 1
 307 584 l 1
 175 584 l 1
181 322 m 1
 360 322 l 1
 360 326 l 2
 360 379 330 409 273 409 c 0
 215 409 189 371 181 322 c 1
EndSplineSet
Substitution2: "'smcp' Lowercase to Small Capitals in Latin lookup 1 subtable" Eacute.smcp
EndChar

StartChar: ecircumflex
Encoding: 234 234 173
Width: 540
GlyphClass: 2
Flags: W
HStem: -10 129<220.691 381.737> 210 112<181 360> 409 129<212.275 337.47> 730 20G<192.417 323.277>
VStem: 20 159<160.263 210 322 370.77>
LayerCount: 2
Fore
SplineSet
20 246 m 2
 20 265 l 2
 20 389 78 479 169 518 c 0
 200 531 235 538 274 538 c 0
 435 538 514 431 514 276 c 2
 514 210 l 1
 179 210 l 1
 189 154 230 119 299 119 c 0
 356 119 394 141 420 175 c 2
 426 182 l 1
 505 93 l 1
 501 88 l 2
 459 30 389 -10 289 -10 c 0
 159 -10 74 55 38 147 c 0
 26 178 20 211 20 246 c 2
64 592 m 1
 64 611 l 1
 214 750 l 1
 302 750 l 1
 452 609 l 1
 452 592 l 1
 330 592 l 1
 258 660 l 1
 185 592 l 1
 64 592 l 1
181 322 m 1
 360 322 l 1
 360 326 l 2
 360 379 330 409 273 409 c 0
 215 409 189 371 181 322 c 1
EndSplineSet
Substitution2: "'smcp' Lowercase to Small Capitals in Latin lookup 1 subtable" Ecircumflex.smcp
EndChar

StartChar: edieresis
Encoding: 235 235 174
Width: 540
GlyphClass: 2
Flags: W
HStem: -10 129<220.691 381.737> 210 112<181 360> 409 129<212.275 337.47> 590 139<81.7342 192.822 319.734 430.822>
VStem: 20 159<160.263 210 322 370.77> 62 150<609.641 709.11> 300 150<609.551 709.11>
LayerCount: 2
Fore
SplineSet
20 246 m 2xfa
 20 265 l 2
 20 389 78 479 169 518 c 0
 200 531 235 538 274 538 c 0
 435 538 514 431 514 276 c 2
 514 210 l 1
 179 210 l 1
 189 154 230 119 299 119 c 0
 356 119 394 141 420 175 c 2
 426 182 l 1
 505 93 l 1
 501 88 l 2
 459 30 389 -10 289 -10 c 0
 159 -10 74 55 38 147 c 0
 26 178 20 211 20 246 c 2xfa
62 660 m 0xf6
 62 703 97 729 138 729 c 0
 179 729 212 702 212 660 c 0
 212 617 179 590 138 590 c 0
 96 590 62 616 62 660 c 0xf6
181 322 m 1
 360 322 l 1
 360 326 l 2
 360 379 330 409 273 409 c 0
 215 409 189 371 181 322 c 1
300 660 m 0
 300 703 335 729 376 729 c 0
 417 729 450 702 450 660 c 0
 450 618 417 589 376 589 c 0
 334 589 300 617 300 660 c 0
EndSplineSet
Substitution2: "'smcp' Lowercase to Small Capitals in Latin lookup 1 subtable" Edieresis.smcp
EndChar

StartChar: igrave
Encoding: 236 236 175
Width: 307
GlyphClass: 2
Flags: W
HStem: 0 21G<118 276> 508 20G<118 276>
VStem: 118 158<0 528>
LayerCount: 2
Fore
SplineSet
1 743 m 1
 176 743 l 1
 283 577 l 1
 150 577 l 1
 1 743 l 1
118 0 m 1
 118 528 l 1
 276 528 l 1
 276 0 l 1
 118 0 l 1
EndSplineSet
Substitution2: "'smcp' Lowercase to Small Capitals in Latin lookup 1 subtable" Igrave.smcp
EndChar

StartChar: iacute
Encoding: 237 237 176
Width: 308
GlyphClass: 2
Flags: W
HStem: 0 21G<26 184> 508 20G<26 184>
VStem: 26 158<0 528>
LayerCount: 2
Fore
SplineSet
24 577 m 1
 131 743 l 1
 305 743 l 1
 156 577 l 1
 24 577 l 1
26 0 m 1
 26 528 l 1
 184 528 l 1
 184 0 l 1
 26 0 l 1
EndSplineSet
Substitution2: "'smcp' Lowercase to Small Capitals in Latin lookup 1 subtable" Iacute.smcp
EndChar

StartChar: icircumflex
Encoding: 238 238 177
Width: 412
GlyphClass: 2
Flags: W
HStem: 0 21G<124 282> 508 20G<124 282>
VStem: 124 158<0 528>
LayerCount: 2
Fore
SplineSet
12 585 m 1
 12 604 l 1
 161 743 l 1
 249 743 l 1
 400 602 l 1
 400 585 l 1
 277 585 l 1
 205 653 l 1
 132 585 l 1
 12 585 l 1
124 0 m 1
 124 528 l 1
 282 528 l 1
 282 0 l 1
 124 0 l 1
EndSplineSet
Substitution2: "'smcp' Lowercase to Small Capitals in Latin lookup 1 subtable" Icircumflex.smcp
EndChar

StartChar: idieresis
Encoding: 239 239 178
Width: 417
GlyphClass: 2
Flags: W
HStem: 0 21G<128 286> 508 20G<128 286> 583 139<33.6312 144.369 271.631 382.369>
VStem: 14 150<602.504 701.586> 128 158<0 528> 252 150<602.414 701.586>
LayerCount: 2
Fore
SplineSet
14 652 m 0xf0
 14 695 48 722 89 722 c 0
 130 722 164 694 164 652 c 0
 164 609 130 583 89 583 c 0
 47 583 14 608 14 652 c 0xf0
128 0 m 1xe8
 128 528 l 1
 286 528 l 1
 286 0 l 1
 128 0 l 1xe8
252 652 m 0xe4
 252 695 286 722 327 722 c 0
 368 722 402 694 402 652 c 0
 402 610 368 582 327 582 c 0
 285 582 252 609 252 652 c 0xe4
EndSplineSet
Substitution2: "'smcp' Lowercase to Small Capitals in Latin lookup 1 subtable" Idieresis.smcp
EndChar

StartChar: eth
Encoding: 240 240 179
Width: 560
GlyphClass: 2
Flags: W
HStem: -10 129<214.756 333.587> 364 110<213.2 344.715> 719 20G<401.148 446.235>
VStem: 20 156<158.987 324.883> 376 158<170.114 342.246>
LayerCount: 2
Fore
SplineSet
20 230 m 0
 20 342 68 422 151 456 c 0
 179 468 212 474 248 474 c 0
 289 474 325 463 353 448 c 1
 337 488 313 519 285 547 c 1
 191 486 l 1
 143 555 l 1
 215 599 l 1
 180 620 140 635 98 647 c 2
 90 650 l 1
 139 772 l 1
 218 759 288 728 347 685 c 1
 433 739 l 1
 478 671 l 1
 413 628 l 1
 484 553 534 454 534 317 c 2
 534 283 l 2
 534 151 472 54 377 12 c 0
 345 -2 310 -10 273 -10 c 0
 153 -10 74 53 38 137 c 0
 26 166 20 197 20 230 c 0
176 236 m 0
 176 182 198 146 233 128 c 0
 245 122 259 119 275 119 c 0
 350 119 376 193 376 276 c 2
 376 329 l 1
 356 351 325 364 279 364 c 0
 207 364 176 313 176 236 c 0
EndSplineSet
Substitution2: "'smcp' Lowercase to Small Capitals in Latin lookup 1 subtable" Eth.smcp
EndChar

StartChar: ntilde
Encoding: 241 241 180
Width: 527
GlyphClass: 2
Flags: W
HStem: 0 21G<26 182 342 498> 408 130<229.732 388.713> 508 20G<26 175.2> 599 104<262.699 355.265> 641 104<172.787 261.533> 731 20G<358 456>
VStem: 26 156<0 388.288> 72 98<599 638.201> 342 156<0 393.148> 358 98<706.084 743>
LayerCount: 2
Fore
SplineSet
26 0 m 1xc280
 26 528 l 1
 174 528 l 1xa280
 177 478 l 1
 211 513 260 538 323 538 c 0
 450 538 498 456 498 334 c 2
 498 0 l 1
 342 0 l 1
 342 332 l 2
 342 387 320 408 265 408 c 0
 224 408 198 389 182 365 c 1
 182 0 l 1
 26 0 l 1xc280
72 599 m 1x9140
 72 606 l 2
 72 666 103 712 144 733 c 0
 159 740 174 745 190 745 c 0x8940
 220 745 242 732 262 723 c 0
 282 714 300 703 324 703 c 0
 345 703 358 718 358 742 c 2
 358 751 l 1
 456 743 l 1
 456 736 l 2
 456 675 425 631 385 610 c 0
 371 602 354 599 337 599 c 0x9540
 289 599 263 623 234 636 c 0
 225 639 215 641 203 641 c 0x8940
 182 641 170 626 170 602 c 2
 170 594 l 1
 72 599 l 1x9140
EndSplineSet
Substitution2: "'smcp' Lowercase to Small Capitals in Latin lookup 1 subtable" Ntilde.smcp
EndChar

StartChar: ograve
Encoding: 242 242 181
Width: 561
GlyphClass: 2
Flags: W
HStem: -10 129<214.803 340.522> 409 129<215.916 339.862> 730 20G<79 266.892>
VStem: 20 156<159.375 364.407> 380 156<163.593 365.689>
LayerCount: 2
Fore
SplineSet
20 259 m 2
 20 269 l 2
 20 393 77 479 168 518 c 0
 200 532 236 538 277 538 c 0
 405 538 485 469 518 375 c 0
 529 342 536 308 536 269 c 2
 536 259 l 2
 536 135 479 49 388 10 c 0
 356 -4 319 -10 278 -10 c 0
 150 -10 69 59 36 153 c 0
 25 186 20 220 20 259 c 2
79 750 m 1
 254 750 l 1
 361 584 l 1
 228 584 l 1
 79 750 l 1
176 259 m 2
 176 180 200 119 278 119 c 0
 353 119 380 181 380 259 c 2
 380 269 l 2
 380 347 353 409 277 409 c 0
 202 409 176 346 176 269 c 2
 176 259 l 2
EndSplineSet
Substitution2: "'smcp' Lowercase to Small Capitals in Latin lookup 1 subtable" Ograve.smcp
EndChar

StartChar: oacute
Encoding: 243 243 182
Width: 561
GlyphClass: 2
Flags: W
HStem: -10 129<214.803 340.522> 409 129<215.916 339.862> 730 20G<288.108 475>
VStem: 20 156<159.375 364.407> 380 156<163.593 365.689>
LayerCount: 2
Fore
SplineSet
20 259 m 2
 20 269 l 2
 20 393 77 479 168 518 c 0
 200 532 236 538 277 538 c 0
 405 538 485 469 518 375 c 0
 529 342 536 308 536 269 c 2
 536 259 l 2
 536 135 479 49 388 10 c 0
 356 -4 319 -10 278 -10 c 0
 150 -10 69 59 36 153 c 0
 25 186 20 220 20 259 c 2
176 259 m 2
 176 180 200 119 278 119 c 0
 353 119 380 181 380 259 c 2
 380 269 l 2
 380 347 353 409 277 409 c 0
 202 409 176 346 176 269 c 2
 176 259 l 2
194 584 m 1
 301 750 l 1
 475 750 l 1
 326 584 l 1
 194 584 l 1
EndSplineSet
Substitution2: "'smcp' Lowercase to Small Capitals in Latin lookup 1 subtable" Oacute.smcp
EndChar

StartChar: ocircumflex
Encoding: 244 244 183
Width: 561
GlyphClass: 2
Flags: W
HStem: -10 129<214.803 340.522> 409 129<215.916 339.862> 730 20G<211.561 342.418>
VStem: 20 156<159.375 364.407> 380 156<163.593 365.689>
LayerCount: 2
Fore
SplineSet
20 259 m 2
 20 269 l 2
 20 393 77 479 168 518 c 0
 200 532 236 538 277 538 c 0
 405 538 485 469 518 375 c 0
 529 342 536 308 536 269 c 2
 536 259 l 2
 536 135 479 49 388 10 c 0
 356 -4 319 -10 278 -10 c 0
 150 -10 69 59 36 153 c 0
 25 186 20 220 20 259 c 2
84 592 m 1
 84 611 l 1
 233 750 l 1
 321 750 l 1
 472 609 l 1
 472 592 l 1
 349 592 l 1
 277 660 l 1
 204 592 l 1
 84 592 l 1
176 259 m 2
 176 180 200 119 278 119 c 0
 353 119 380 181 380 259 c 2
 380 269 l 2
 380 347 353 409 277 409 c 0
 202 409 176 346 176 269 c 2
 176 259 l 2
EndSplineSet
Substitution2: "'smcp' Lowercase to Small Capitals in Latin lookup 1 subtable" Ocircumflex.smcp
EndChar

StartChar: otilde
Encoding: 245 245 184
Width: 561
GlyphClass: 2
Flags: W
HStem: -10 129<214.803 340.522> 409 129<215.916 339.862> 599 104<274.699 367.265> 641 104<184.787 273.533> 731 20G<370 468>
VStem: 20 156<159.375 364.407> 84 98<599 638.201> 370 98<706.084 743> 380 156<163.593 365.689>
LayerCount: 2
Fore
SplineSet
20 259 m 2xc480
 20 269 l 2
 20 393 77 479 168 518 c 0
 200 532 236 538 277 538 c 0
 405 538 485 469 518 375 c 0
 529 342 536 308 536 269 c 2
 536 259 l 2
 536 135 479 49 388 10 c 0
 356 -4 319 -10 278 -10 c 0
 150 -10 69 59 36 153 c 0
 25 186 20 220 20 259 c 2xc480
84 599 m 1xe3
 84 606 l 2
 84 666 115 712 156 733 c 0
 171 740 186 745 202 745 c 0xd3
 232 745 254 732 274 723 c 0
 294 714 312 703 336 703 c 0
 357 703 370 718 370 742 c 2
 370 751 l 1
 468 743 l 1
 468 736 l 2
 468 675 437 631 397 610 c 0
 383 602 366 599 349 599 c 0xeb
 301 599 275 623 246 636 c 0
 237 639 227 641 215 641 c 0xd3
 194 641 182 626 182 602 c 2
 182 594 l 1
 84 599 l 1xe3
176 259 m 2xc480
 176 180 200 119 278 119 c 0
 353 119 380 181 380 259 c 2
 380 269 l 2
 380 347 353 409 277 409 c 0
 202 409 176 346 176 269 c 2
 176 259 l 2xc480
EndSplineSet
Substitution2: "'smcp' Lowercase to Small Capitals in Latin lookup 1 subtable" Otilde.smcp
EndChar

StartChar: odieresis
Encoding: 246 246 185
Width: 561
GlyphClass: 2
Flags: W
HStem: -10 129<214.803 340.522> 409 129<215.916 339.862> 590 139<101.281 212.369 339.281 450.369>
VStem: 20 156<159.375 364.407> 82 150<610.027 709.11> 320 150<609.937 709.11> 380 156<163.593 365.689>
LayerCount: 2
Fore
SplineSet
20 259 m 2xf2
 20 269 l 2
 20 393 77 479 168 518 c 0
 200 532 236 538 277 538 c 0
 405 538 485 469 518 375 c 0
 529 342 536 308 536 269 c 2
 536 259 l 2
 536 135 479 49 388 10 c 0
 356 -4 319 -10 278 -10 c 0
 150 -10 69 59 36 153 c 0
 25 186 20 220 20 259 c 2xf2
82 660 m 0xe8
 82 703 116 729 157 729 c 0
 198 729 232 702 232 660 c 0
 232 617 198 590 157 590 c 0
 115 590 82 616 82 660 c 0xe8
176 259 m 2xf2
 176 180 200 119 278 119 c 0
 353 119 380 181 380 259 c 2
 380 269 l 2
 380 347 353 409 277 409 c 0
 202 409 176 346 176 269 c 2
 176 259 l 2xf2
320 660 m 0xe4
 320 703 354 729 395 729 c 0
 436 729 470 702 470 660 c 0
 470 618 436 589 395 589 c 0
 353 589 320 617 320 660 c 0xe4
EndSplineSet
Substitution2: "'smcp' Lowercase to Small Capitals in Latin lookup 1 subtable" Odieresis.smcp
EndChar

StartChar: divide
Encoding: 247 247 186
Width: 566
GlyphClass: 2
Flags: W
HStem: 54 162<218.25 342.75> 272 126<22 538> 443 163<218.25 342.75>
VStem: 194 174<79.038 190.555 468.445 579.985>
LayerCount: 2
Fore
SplineSet
22 272 m 1
 22 398 l 1
 538 398 l 1
 538 272 l 1
 22 272 l 1
194 135 m 0
 194 186 230 216 280 216 c 0
 330 216 368 186 368 135 c 0
 368 83 330 54 280 54 c 0
 230 54 194 84 194 135 c 0
194 524 m 0
 194 575 230 606 280 606 c 0
 330 606 368 575 368 524 c 0
 368 473 330 443 280 443 c 0
 230 443 194 473 194 524 c 0
EndSplineSet
EndChar

StartChar: oslash
Encoding: 248 248 187
Width: 561
GlyphClass: 2
Flags: W
HStem: -10 129<255.279 339.494> 409 129<215.916 304.422>
VStem: 20 156<171.907 363.349> 380 156<164.4 350.645>
LayerCount: 2
Fore
SplineSet
20 258 m 2
 20 268 l 2
 20 392 77 478 168 517 c 0
 200 531 236 538 277 538 c 0
 308 538 338 534 364 526 c 1
 397 594 l 1
 492 594 l 1
 439 488 l 1
 499 441 536 368 536 270 c 2
 536 260 l 2
 536 136 479 49 388 10 c 0
 356 -4 319 -10 278 -10 c 0
 249 -10 221 -7 196 1 c 1
 162 -69 l 1
 66 -69 l 1
 118 36 l 1
 55 82 20 159 20 258 c 2
176 252 m 2
 176 220 181 191 189 168 c 1
 305 405 l 1
 296 408 287 409 277 409 c 0
 202 409 176 343 176 262 c 2
 176 252 l 2
255 121 m 1
 264 119 269 119 278 119 c 0
 353 119 380 184 380 266 c 2
 380 276 l 2
 380 306 375 332 368 354 c 1
 255 121 l 1
EndSplineSet
EndChar

StartChar: ugrave
Encoding: 249 249 188
Width: 528
GlyphClass: 2
Flags: W
HStem: -10 129<194.395 303.717> 0 21G<347.605 496> 508 20G<24 180 340 496> 730 20G<63 250.892>
VStem: 24 156<135.23 528> 340 156<138.703 528>
LayerCount: 2
Fore
SplineSet
24 189 m 2xbc
 24 528 l 1
 180 528 l 1
 180 191 l 2
 180 144 201 119 248 119 c 0xbc
 295 119 323 136 340 162 c 1
 340 528 l 1
 496 528 l 1
 496 0 l 1
 349 0 l 1x7c
 346 43 l 1
 313 10 268 -10 207 -10 c 0
 81 -10 24 67 24 189 c 2xbc
63 750 m 1
 238 750 l 1
 345 584 l 1
 212 584 l 1
 63 750 l 1
EndSplineSet
Substitution2: "'smcp' Lowercase to Small Capitals in Latin lookup 1 subtable" Ugrave.smcp
EndChar

StartChar: uacute
Encoding: 250 250 189
Width: 528
GlyphClass: 2
Flags: W
HStem: -10 129<194.395 303.717> 0 21G<347.605 496> 508 20G<24 180 340 496> 730 20G<272.108 459>
VStem: 24 156<135.23 528> 340 156<138.703 528>
LayerCount: 2
Fore
SplineSet
24 189 m 2xbc
 24 528 l 1
 180 528 l 1
 180 191 l 2
 180 144 201 119 248 119 c 0xbc
 295 119 323 136 340 162 c 1
 340 528 l 1
 496 528 l 1
 496 0 l 1
 349 0 l 1x7c
 346 43 l 1
 313 10 268 -10 207 -10 c 0
 81 -10 24 67 24 189 c 2xbc
178 584 m 1
 285 750 l 1
 459 750 l 1
 310 584 l 1
 178 584 l 1
EndSplineSet
Substitution2: "'smcp' Lowercase to Small Capitals in Latin lookup 1 subtable" Uacute.smcp
EndChar

StartChar: ucircumflex
Encoding: 251 251 190
Width: 528
GlyphClass: 2
Flags: W
HStem: -10 129<194.395 303.717> 0 21G<347.605 496> 508 20G<24 180 340 496> 730 20G<195.561 326.418>
VStem: 24 156<135.23 528> 340 156<138.703 528>
LayerCount: 2
Fore
SplineSet
24 189 m 2xbc
 24 528 l 1
 180 528 l 1
 180 191 l 2
 180 144 201 119 248 119 c 0xbc
 295 119 323 136 340 162 c 1
 340 528 l 1
 496 528 l 1
 496 0 l 1
 349 0 l 1x7c
 346 43 l 1
 313 10 268 -10 207 -10 c 0
 81 -10 24 67 24 189 c 2xbc
68 592 m 1
 68 611 l 1
 217 750 l 1
 305 750 l 1
 456 609 l 1
 456 592 l 1
 333 592 l 1
 261 660 l 1
 188 592 l 1
 68 592 l 1
EndSplineSet
Substitution2: "'smcp' Lowercase to Small Capitals in Latin lookup 1 subtable" Ucircumflex.smcp
EndChar

StartChar: udieresis
Encoding: 252 252 191
Width: 527
GlyphClass: 2
Flags: W
HStem: -10 129<194.395 303.717> 0 21G<347.605 496> 508 20G<24 180 340 496> 590 139<85.281 196.369 323.281 434.369>
VStem: 24 156<135.23 528> 66 150<610.027 709.11> 304 150<609.937 709.11> 340 156<138.703 528>
LayerCount: 2
Fore
SplineSet
24 189 m 2xb9
 24 528 l 1
 180 528 l 1
 180 191 l 2
 180 144 201 119 248 119 c 0xb9
 295 119 323 136 340 162 c 1
 340 528 l 1
 496 528 l 1
 496 0 l 1
 349 0 l 1x79
 346 43 l 1
 313 10 268 -10 207 -10 c 0
 81 -10 24 67 24 189 c 2xb9
66 660 m 0x34
 66 703 100 729 141 729 c 0
 182 729 216 702 216 660 c 0
 216 617 182 590 141 590 c 0
 99 590 66 616 66 660 c 0x34
304 660 m 0x32
 304 703 338 729 379 729 c 0
 420 729 454 702 454 660 c 0
 454 618 420 589 379 589 c 0
 337 589 304 617 304 660 c 0x32
EndSplineSet
Substitution2: "'smcp' Lowercase to Small Capitals in Latin lookup 1 subtable" Udieresis.smcp
EndChar

StartChar: yacute
Encoding: 253 253 192
Width: 542
GlyphClass: 2
Flags: W
HStem: -213 131<70.0625 166.776> 508 20G<9 183.955 356.045 530> 730 20G<285.108 472>
LayerCount: 2
Fore
SplineSet
9 528 m 1
 178 528 l 1
 270 219 l 1
 362 528 l 1
 530 528 l 1
 315 -74 l 2
 290 -147 243 -213 139 -213 c 0
 115 -213 93 -211 74 -203 c 2
 70 -202 l 1
 70 -82 l 1
 77 -82 l 2
 85 -82 92 -83 98 -83 c 0
 148 -83 171 -67 183 -31 c 1
 198 7 l 1
 9 528 l 1
191 584 m 1
 298 750 l 1
 472 750 l 1
 323 584 l 1
 191 584 l 1
EndSplineSet
Substitution2: "'smcp' Lowercase to Small Capitals in Latin lookup 1 subtable" Yacute.smcp
EndChar

StartChar: thorn
Encoding: 254 254 193
Width: 545
GlyphClass: 2
Flags: W
HStem: -203 21G<28 184> -10 129<215.898 326.364> 408 130<215.091 325.793> 730 20G<28 184>
VStem: 28 156<-203 34 136.942 390.959 494 750> 362 156<158.5 369.453>
LayerCount: 2
Fore
SplineSet
28 -203 m 1
 28 750 l 1
 184 750 l 1
 184 494 l 1
 214 521 252 538 305 538 c 0
 420 538 480 468 505 379 c 0
 514 346 518 309 518 270 c 2
 518 259 l 2
 518 143 478 52 398 10 c 0
 371 -4 340 -10 306 -10 c 0
 253 -10 213 8 184 34 c 1
 184 -45 184 -124 184 -203 c 1
 28 -203 l 1
184 162 m 1
 200 134 224 119 269 119 c 0
 341 119 362 184 362 259 c 2
 362 270 l 2
 362 345 340 408 268 408 c 0
 225 408 199 392 184 367 c 1
 184 162 l 1
EndSplineSet
EndChar

StartChar: ydieresis
Encoding: 255 255 194
Width: 542
GlyphClass: 2
Flags: W
HStem: -213 131<70.0625 166.776> 508 20G<9 183.955 356.045 530> 590 139<97.281 208.369 335.281 446.369>
VStem: 78 150<610.027 709.11> 316 150<609.937 709.11>
LayerCount: 2
Fore
SplineSet
9 528 m 1
 178 528 l 1
 270 219 l 1
 362 528 l 1
 530 528 l 1
 315 -74 l 2
 290 -147 243 -213 139 -213 c 0
 115 -213 93 -211 74 -203 c 2
 70 -202 l 1
 70 -82 l 1
 77 -82 l 2
 85 -82 92 -83 98 -83 c 0
 148 -83 171 -67 183 -31 c 1
 198 7 l 1
 9 528 l 1
78 660 m 0
 78 703 112 729 153 729 c 0
 194 729 228 702 228 660 c 0
 228 617 194 590 153 590 c 0
 111 590 78 616 78 660 c 0
316 660 m 0
 316 703 350 729 391 729 c 0
 432 729 466 702 466 660 c 0
 466 618 432 589 391 589 c 0
 349 589 316 617 316 660 c 0
EndSplineSet
Substitution2: "'smcp' Lowercase to Small Capitals in Latin lookup 1 subtable" Ydieresis.smcp
EndChar

StartChar: Amacron
Encoding: 256 256 195
Width: 708
GlyphClass: 2
Flags: W
HStem: 0 21G<9 187.712 519.288 698> 146 126<275 432> 691 20G<272.377 433.651> 765 96<170 542>
LayerCount: 2
Fore
SplineSet
9 0 m 1
 280 711 l 1
 426 711 l 1
 698 -0 l 1
 526 0 l 1
 477 146 l 1
 230 146 l 1
 181 0 l 1
 9 0 l 1
170 765 m 1
 170 861 l 1
 542 861 l 1
 542 765 l 1
 170 765 l 1
275 272 m 1
 432 272 l 1
 353 507 l 1
 275 272 l 1
EndSplineSet
Substitution2: "'smcp' Lowercase to Small Capitals in Latin lookup 1 subtable" Amacron.smcp
EndChar

StartChar: amacron
Encoding: 257 257 196
Width: 519
GlyphClass: 2
Flags: W
HStem: -10 123<183.182 295.813> 0 21G<343 502> 232 98<194.614 324> 419 119<195.895 309.963> 615 96<76 448>
VStem: 16 156<124.245 210.113> 324 156<133.591 232 330 405.359>
LayerCount: 2
Fore
SplineSet
16 152 m 0xbe
 16 286 133 330 268 330 c 2
 324 330 l 1
 324 351 l 2
 324 395 302 419 253 419 c 0
 211 419 184 399 184 362 c 2
 184 355 l 1
 28 355 l 1
 28 362 l 2
 28 418 59 459 92 486 c 0
 133 518 191 538 261 538 c 0
 361 538 432 501 464 432 c 1
 476 409 480 381 480 350 c 2
 480 132 l 2
 480 85 487 49 501 18 c 1
 502 17 l 1
 502 0 l 1
 347 0 l 1x7e
 339 10 335 23 332 38 c 1
 302 9 261 -10 204 -10 c 0
 120 -10 59 31 31 87 c 0
 21 107 16 128 16 152 c 0xbe
76 615 m 1
 76 711 l 1
 448 711 l 1
 448 615 l 1
 76 615 l 1
172 163 m 0
 172 133 199 113 235 113 c 0xbe
 277 113 309 132 324 156 c 1
 324 232 l 1
 273 232 l 2
 213 232 172 213 172 163 c 0
EndSplineSet
Substitution2: "'smcp' Lowercase to Small Capitals in Latin lookup 1 subtable" Amacron.smcp
EndChar

StartChar: Abreve
Encoding: 258 258 197
Width: 708
GlyphClass: 2
Flags: W
HStem: 0 21G<9 187.712 519.288 698> 146 126<275 432> 691 20G<272.377 433.651> 736 96<303.367 406.967>
VStem: 180 114<841.452 896> 416 116<842.112 896>
LayerCount: 2
Fore
SplineSet
9 0 m 1
 280 711 l 1
 426 711 l 1
 698 -0 l 1
 526 0 l 1
 477 146 l 1
 230 146 l 1
 181 0 l 1
 9 0 l 1
180 888 m 2
 180 896 l 1
 294 896 l 1
 294 888 l 2
 294 849 316 832 356 832 c 0
 396 832 416 851 416 888 c 2
 416 896 l 1
 532 896 l 1
 532 888 l 2
 532 811 484 767 427 747 c 0
 405 740 382 736 356 736 c 0
 277 736 216 771 192 828 c 0
 184 847 180 866 180 888 c 2
275 272 m 1
 432 272 l 1
 353 507 l 1
 275 272 l 1
EndSplineSet
Substitution2: "'smcp' Lowercase to Small Capitals in Latin lookup 1 subtable" Abreve.smcp
EndChar

StartChar: abreve
Encoding: 259 259 198
Width: 519
GlyphClass: 2
Flags: W
HStem: -10 123<183.182 295.813> 0 21G<343 502> 232 98<194.614 324> 419 119<195.895 309.963> 585 96<210.429 312.148>
VStem: 16 156<124.245 210.113> 84 116<690.28 745> 322 116<691.989 745> 324 156<133.591 232 330 405.359>
LayerCount: 2
Fore
SplineSet
16 152 m 0xbc80
 16 286 133 330 268 330 c 2
 324 330 l 1
 324 351 l 2
 324 395 302 419 253 419 c 0
 211 419 184 399 184 362 c 2
 184 355 l 1
 28 355 l 1
 28 362 l 2
 28 418 59 459 92 486 c 0
 133 518 191 538 261 538 c 0
 361 538 432 501 464 432 c 1
 476 409 480 381 480 350 c 2
 480 132 l 2
 480 85 487 49 501 18 c 1
 502 17 l 1
 502 0 l 1
 347 0 l 1x7c80
 339 10 335 23 332 38 c 1
 302 9 261 -10 204 -10 c 0
 120 -10 59 31 31 87 c 0
 21 107 16 128 16 152 c 0xbc80
84 738 m 2x3b
 84 745 l 1
 200 745 l 1
 200 738 l 2
 200 699 221 681 261 681 c 0
 301 681 322 701 322 738 c 2
 322 745 l 1
 438 745 l 1
 438 738 l 2
 438 661 390 616 333 596 c 0
 311 589 287 585 261 585 c 0
 162 585 84 637 84 738 c 2x3b
172 163 m 0xbc80
 172 133 199 113 235 113 c 0
 277 113 309 132 324 156 c 1
 324 232 l 1
 273 232 l 2
 213 232 172 213 172 163 c 0xbc80
EndSplineSet
Substitution2: "'smcp' Lowercase to Small Capitals in Latin lookup 1 subtable" Abreve.smcp
EndChar

StartChar: Aogonek
Encoding: 260 260 199
Width: 710
GlyphClass: 2
Flags: W
HStem: -206 103<542.5 651.218> 0 21G<10 188.712> 146 126<276 433> 691 20G<273.377 434.651>
VStem: 458 122<-102.758 -34.1111>
LayerCount: 2
Fore
SplineSet
10 0 m 1
 281 711 l 1
 427 711 l 1
 699 -0 l 1
 649 0 l 1
 626 -14 609 -26 597 -38 c 0
 585 -50 580 -63 580 -78 c 0
 580 -96 586 -103 604 -103 c 0
 623 -103 635 -96 649 -90 c 1
 665 -181 l 1
 646 -195 614 -206 577 -206 c 0
 508 -206 458 -167 458 -96 c 0
 458 -43 485 -9 521 16 c 1
 478 146 l 1
 231 146 l 1
 182 0 l 1
 10 0 l 1
276 272 m 1
 433 272 l 1
 354 507 l 1
 276 272 l 1
EndSplineSet
Substitution2: "'smcp' Lowercase to Small Capitals in Latin lookup 1 subtable" Aogonek.smcp
EndChar

StartChar: aogonek
Encoding: 261 261 200
Width: 520
GlyphClass: 2
Flags: W
HStem: -206 103<367 476.423> -10 123<184.535 296.858> 232 98<195.706 324> 419 119<197.226 310.678>
VStem: 18 156<123.874 210.113> 282 122<-102.734 -34.1594> 324 158<133.591 232 330 405.359>
LayerCount: 2
Fore
SplineSet
18 152 m 0xfc
 18 286 134 330 269 330 c 2
 324 330 l 1
 324 351 l 2
 324 395 303 419 254 419 c 0
 212 419 186 399 186 362 c 2
 186 355 l 1
 30 355 l 1
 30 362 l 2
 30 418 60 459 93 486 c 0
 134 518 192 538 262 538 c 0
 362 538 433 501 465 432 c 1
 477 409 482 381 482 350 c 2
 482 132 l 2xfa
 482 85 488 49 502 18 c 1
 502 0 l 1
 473 0 l 1
 450 -14 433 -26 421 -38 c 0
 409 -50 404 -63 404 -78 c 0
 404 -95 410 -103 429 -103 c 0
 448 -103 460 -96 474 -90 c 1
 490 -181 l 1
 469 -196 439 -206 401 -206 c 0
 333 -206 282 -167 282 -96 c 0
 282 -44 309 -12 342 12 c 1
 339 21 336 30 334 39 c 1
 304 10 262 -10 205 -10 c 0
 121 -10 60 31 32 87 c 0
 22 107 18 128 18 152 c 0xfc
174 163 m 0
 174 133 200 113 236 113 c 0
 278 113 309 132 324 156 c 1
 324 232 l 1
 274 232 l 2
 214 232 174 213 174 163 c 0
EndSplineSet
Substitution2: "'smcp' Lowercase to Small Capitals in Latin lookup 1 subtable" Aogonek.smcp
EndChar

StartChar: Cacute
Encoding: 262 262 201
Width: 639
GlyphClass: 2
Flags: W
HStem: -10 135<246.741 408.599> 586 135<246.055 408.336> 739 21G<240 389.952>
VStem: 20 164<196.016 511.888>
LayerCount: 2
Fore
SplineSet
20 332 m 2
 20 378 l 2
 20 535 86 649 199 697 c 0
 236 713 277 721 323 721 c 0
 500 721 599 621 616 463 c 2
 617 455 l 1
 455 455 l 1
 455 462 l 1
 450 545 411 586 323 586 c 0
 215 586 184 502 184 378 c 2
 184 333 l 2
 184 216 209 125 321 125 c 0
 409 125 449 163 454 245 c 1
 454 252 l 1
 616 252 l 1
 615 244 l 1
 606 122 539 43 440 8 c 0
 405 -4 366 -10 321 -10 c 0
 168 -10 79 76 41 191 c 0
 27 233 20 280 20 332 c 2
240 739 m 1
 347 905 l 1
 521 905 l 1
 372 739 l 1
 240 739 l 1
EndSplineSet
Substitution2: "'smcp' Lowercase to Small Capitals in Latin lookup 1 subtable" Cacute.smcp
EndChar

StartChar: cacute
Encoding: 263 263 202
Width: 521
GlyphClass: 2
Flags: W
HStem: -10 129<208.512 330.252> 409 129<207.578 325.502> 730 20G<268.108 455>
VStem: 20 156<153.01 374.049> 351 147<140.114 198 317 382.775>
LayerCount: 2
Fore
SplineSet
20 257 m 2
 20 271 l 2
 20 392 71 479 160 518 c 0
 191 532 228 538 270 538 c 0
 376 538 448 489 480 413 c 0
 491 386 498 356 498 324 c 2
 498 317 l 1
 350 317 l 1
 350 324 l 2
 350 374 318 409 268 409 c 0
 193 409 176 349 176 271 c 2
 176 257 l 2
 176 178 192 119 269 119 c 0
 319 119 348 145 351 191 c 2
 351 198 l 1
 498 198 l 1
 498 190 l 2
 498 126 466 77 431 46 c 0
 394 13 338 -10 271 -10 c 0
 143 -10 66 58 35 153 c 0
 25 185 20 220 20 257 c 2
174 584 m 1
 281 750 l 1
 455 750 l 1
 306 584 l 1
 174 584 l 1
EndSplineSet
Substitution2: "'smcp' Lowercase to Small Capitals in Latin lookup 1 subtable" Cacute.smcp
EndChar

StartChar: Ccircumflex
Encoding: 264 264 203
Width: 639
GlyphClass: 2
Flags: W
HStem: -10 135<246.741 408.599> 586 135<246.055 408.336>
VStem: 20 164<196.016 511.888>
LayerCount: 2
Fore
SplineSet
20 332 m 2
 20 378 l 2
 20 535 86 649 199 697 c 0
 236 713 277 721 323 721 c 0
 500 721 599 621 616 463 c 2
 617 455 l 1
 455 455 l 1
 455 462 l 1
 450 545 411 586 323 586 c 0
 215 586 184 502 184 378 c 2
 184 333 l 2
 184 216 209 125 321 125 c 0
 409 125 449 163 454 245 c 1
 454 252 l 1
 616 252 l 1
 615 244 l 1
 606 122 539 43 440 8 c 0
 405 -4 366 -10 321 -10 c 0
 168 -10 79 76 41 191 c 0
 27 233 20 280 20 332 c 2
128 747 m 1
 128 766 l 1
 278 905 l 1
 366 905 l 1
 516 764 l 1
 516 747 l 1
 394 747 l 1
 322 815 l 1
 249 747 l 1
 128 747 l 1
EndSplineSet
Substitution2: "'smcp' Lowercase to Small Capitals in Latin lookup 1 subtable" Ccircumflex.smcp
EndChar

StartChar: ccircumflex
Encoding: 265 265 204
Width: 521
GlyphClass: 2
Flags: W
HStem: -10 129<208.512 330.252> 409 129<207.578 325.502> 730 20G<190.417 321.277>
VStem: 20 156<153.01 374.049> 351 147<140.114 198 317 382.775>
LayerCount: 2
Fore
SplineSet
20 257 m 2
 20 271 l 2
 20 392 71 479 160 518 c 0
 191 532 228 538 270 538 c 0
 376 538 448 489 480 413 c 0
 491 386 498 356 498 324 c 2
 498 317 l 1
 350 317 l 1
 350 324 l 2
 350 374 318 409 268 409 c 0
 193 409 176 349 176 271 c 2
 176 257 l 2
 176 178 192 119 269 119 c 0
 319 119 348 145 351 191 c 2
 351 198 l 1
 498 198 l 1
 498 190 l 2
 498 126 466 77 431 46 c 0
 394 13 338 -10 271 -10 c 0
 143 -10 66 58 35 153 c 0
 25 185 20 220 20 257 c 2
62 592 m 1
 62 611 l 1
 212 750 l 1
 300 750 l 1
 450 609 l 1
 450 592 l 1
 328 592 l 1
 256 660 l 1
 183 592 l 1
 62 592 l 1
EndSplineSet
Substitution2: "'smcp' Lowercase to Small Capitals in Latin lookup 1 subtable" Ccircumflex.smcp
EndChar

StartChar: uni010A
Encoding: 266 266 205
Width: 639
GlyphClass: 2
Flags: W
HStem: -10 135<246.741 408.599> 586 135<246.055 408.336> 753 149<265.125 380.569>
VStem: 20 164<196.016 511.888> 242 160<776.151 880.652>
LayerCount: 2
Fore
SplineSet
20 332 m 2
 20 378 l 2
 20 535 86 649 199 697 c 0
 236 713 277 721 323 721 c 0
 500 721 599 621 616 463 c 2
 617 455 l 1
 455 455 l 1
 455 462 l 1
 450 545 411 586 323 586 c 0
 215 586 184 502 184 378 c 2
 184 333 l 2
 184 216 209 125 321 125 c 0
 409 125 449 163 454 245 c 1
 454 252 l 1
 616 252 l 1
 615 244 l 1
 606 122 539 43 440 8 c 0
 405 -4 366 -10 321 -10 c 0
 168 -10 79 76 41 191 c 0
 27 233 20 280 20 332 c 2
242 828 m 0
 242 874 276 902 322 902 c 0
 368 902 402 873 402 828 c 0
 402 783 368 753 322 753 c 0
 277 753 242 784 242 828 c 0
EndSplineSet
EndChar

StartChar: uni010B
Encoding: 267 267 206
Width: 521
GlyphClass: 2
Flags: W
HStem: -10 129<208.512 330.252> 409 129<207.578 325.502> 597 149<198.625 313.046>
VStem: 20 156<153.01 374.049> 176 158<619.258 724.652> 351 147<140.114 198 317 382.775>
LayerCount: 2
Fore
SplineSet
20 257 m 2xf4
 20 271 l 2
 20 392 71 479 160 518 c 0
 191 532 228 538 270 538 c 0
 376 538 448 489 480 413 c 0
 491 386 498 356 498 324 c 2
 498 317 l 1
 350 317 l 1
 350 324 l 2
 350 374 318 409 268 409 c 0
 193 409 176 349 176 271 c 2
 176 257 l 2
 176 178 192 119 269 119 c 0
 319 119 348 145 351 191 c 2
 351 198 l 1
 498 198 l 1
 498 190 l 2
 498 126 466 77 431 46 c 0
 394 13 338 -10 271 -10 c 0
 143 -10 66 58 35 153 c 0
 25 185 20 220 20 257 c 2xf4
176 672 m 0xec
 176 718 209 746 255 746 c 0
 301 746 334 717 334 672 c 0
 334 627 301 597 255 597 c 0
 210 597 176 628 176 672 c 0xec
EndSplineSet
EndChar

StartChar: Ccaron
Encoding: 268 268 207
Width: 639
GlyphClass: 2
Flags: W
HStem: -10 135<246.741 408.599> 586 135<246.055 408.336>
VStem: 20 164<196.016 511.888>
LayerCount: 2
Fore
SplineSet
20 332 m 2
 20 378 l 2
 20 535 86 649 199 697 c 0
 236 713 277 721 323 721 c 0
 500 721 599 621 616 463 c 2
 617 455 l 1
 455 455 l 1
 455 462 l 1
 450 545 411 586 323 586 c 0
 215 586 184 502 184 378 c 2
 184 333 l 2
 184 216 209 125 321 125 c 0
 409 125 449 163 454 245 c 1
 454 252 l 1
 616 252 l 1
 615 244 l 1
 606 122 539 43 440 8 c 0
 405 -4 366 -10 321 -10 c 0
 168 -10 79 76 41 191 c 0
 27 233 20 280 20 332 c 2
122 890 m 1
 122 905 l 1
 253 905 l 1
 322 839 l 1
 390 905 l 1
 522 905 l 1
 522 889 l 1
 369 748 l 1
 274 748 l 1
 122 890 l 1
EndSplineSet
Substitution2: "'smcp' Lowercase to Small Capitals in Latin lookup 1 subtable" Ccaron.smcp
EndChar

StartChar: ccaron
Encoding: 269 269 208
Width: 521
GlyphClass: 2
Flags: W
HStem: -10 129<208.512 330.252> 409 129<207.578 325.502> 730 20G<56 207.909 303.394 456>
VStem: 20 156<153.01 374.049> 351 147<140.114 198 317 382.775>
LayerCount: 2
Fore
SplineSet
20 257 m 2
 20 271 l 2
 20 392 71 479 160 518 c 0
 191 532 228 538 270 538 c 0
 376 538 448 489 480 413 c 0
 491 386 498 356 498 324 c 2
 498 317 l 1
 350 317 l 1
 350 324 l 2
 350 374 318 409 268 409 c 0
 193 409 176 349 176 271 c 2
 176 257 l 2
 176 178 192 119 269 119 c 0
 319 119 348 145 351 191 c 2
 351 198 l 1
 498 198 l 1
 498 190 l 2
 498 126 466 77 431 46 c 0
 394 13 338 -10 271 -10 c 0
 143 -10 66 58 35 153 c 0
 25 185 20 220 20 257 c 2
56 735 m 1
 56 750 l 1
 187 750 l 1
 256 684 l 1
 324 750 l 1
 456 750 l 1
 456 734 l 1
 303 593 l 1
 208 593 l 1
 56 735 l 1
EndSplineSet
Substitution2: "'smcp' Lowercase to Small Capitals in Latin lookup 1 subtable" Ccaron.smcp
EndChar

StartChar: Dcaron
Encoding: 270 270 209
Width: 612
GlyphClass: 2
Flags: W
HStem: 0 133<190 341.678> 577 134<190 342.906>
VStem: 28 162<133 577> 422 164<222.676 491.551>
LayerCount: 2
Fore
SplineSet
28 0 m 1
 28 711 l 1
 254 711 l 2
 415 711 516 625 562 509 c 0
 578 467 586 422 586 371 c 2
 586 339 l 2
 586 179 507 71 388 24 c 0
 347 8 302 0 253 0 c 2
 28 0 l 1
30 888 m 1
 30 903 l 1
 160 903 l 1
 229 837 l 1
 297 903 l 1
 428 903 l 1
 428 887 l 1
 276 746 l 1
 181 746 l 1
 30 888 l 1
190 133 m 1
 253 133 l 2
 373 133 422 215 422 340 c 2
 422 371 l 2
 422 497 375 577 254 577 c 2
 190 577 l 1
 190 133 l 1
EndSplineSet
Substitution2: "'smcp' Lowercase to Small Capitals in Latin lookup 1 subtable" Dcaron.smcp
EndChar

StartChar: dcaron
Encoding: 271 271 210
Width: 737
GlyphClass: 2
Flags: W
HStem: -10 129<213.064 321.803> 0 21G<367.826 512> 408 130<212.25 322.66> 730 20G<356 512 592 720>
VStem: 20 156<159.675 368.863> 356 156<139.508 387.679 491 750> 592 128<576.147 750>
LayerCount: 2
Fore
SplineSet
20 258 m 2xbe
 20 268 l 2
 20 385 62 477 145 518 c 0
 172 531 201 538 235 538 c 0
 289 538 327 519 356 491 c 1
 356 750 l 1
 512 750 l 1
 512 0 l 1
 370 0 l 1x7e
 365 46 l 1
 334 13 294 -10 234 -10 c 0
 160 -10 109 24 76 67 c 0
 41 113 20 180 20 258 c 2xbe
176 258 m 2
 176 182 198 119 270 119 c 0xbe
 315 119 341 139 356 167 c 1
 356 361 l 1
 340 390 315 408 271 408 c 0
 198 408 176 344 176 268 c 2
 176 258 l 2
546 521 m 1
 572 560 592 604 592 666 c 2
 592 750 l 1
 720 750 l 1
 720 666 l 2
 720 626 707 593 693 565 c 1
 678 532 654 503 628 480 c 2
 624 476 l 1
 546 521 l 1
EndSplineSet
Substitution2: "'smcp' Lowercase to Small Capitals in Latin lookup 1 subtable" Dcaron.smcp
EndChar

StartChar: Dcroat
Encoding: 272 272 211
Width: 675
GlyphClass: 2
Flags: W
HStem: 0 133<252 402.89> 306 104<16 90 252 372> 577 134<252 404.466>
VStem: 90 162<133 306 410 577> 484 164<223.705 491.095>
LayerCount: 2
Fore
SplineSet
16 306 m 1
 16 410 l 1
 90 410 l 1
 90 711 l 1
 316 711 l 2
 477 711 579 625 624 509 c 0
 640 467 648 422 648 371 c 2
 648 339 l 2
 648 180 568 71 450 24 c 0
 409 8 364 0 314 0 c 2
 90 0 l 1
 90 306 l 1
 16 306 l 1
252 133 m 1
 314 133 l 2
 434 133 484 215 484 340 c 2
 484 371 l 2
 484 496 436 577 316 577 c 2
 252 577 l 1
 252 410 l 1
 372 410 l 1
 372 306 l 1
 252 306 l 1
 252 133 l 1
EndSplineSet
Substitution2: "'smcp' Lowercase to Small Capitals in Latin lookup 1 subtable" Dcroat.smcp
EndChar

StartChar: dcroat
Encoding: 273 273 212
Width: 604
GlyphClass: 2
Flags: W
HStem: -10 129<212.2 321.238> 0 21G<366.826 510> 408 130<211.317 321.058> 580 105<232 354 510 588> 730 20G<354 510>
VStem: 20 156<157.661 368.863> 354 156<139.508 387.679 491 580 685 750>
LayerCount: 2
Fore
SplineSet
20 258 m 2xbe
 20 268 l 2
 20 385 60 477 143 518 c 0
 170 531 200 538 234 538 c 0
 288 538 325 519 354 491 c 1
 354 580 l 1
 232 580 l 1
 232 685 l 1
 354 685 l 1
 354 750 l 1
 510 750 l 1
 510 685 l 1
 588 685 l 1
 588 580 l 1
 510 580 l 1
 510 0 l 1
 369 0 l 1x7e
 364 46 l 1
 333 13 293 -10 233 -10 c 0
 159 -10 108 24 75 67 c 0
 40 113 20 180 20 258 c 2xbe
176 258 m 2
 176 182 197 119 269 119 c 0xbe
 314 119 339 139 354 167 c 1
 354 361 l 1
 338 390 314 408 270 408 c 0
 197 408 176 344 176 268 c 2
 176 258 l 2
EndSplineSet
Substitution2: "'smcp' Lowercase to Small Capitals in Latin lookup 1 subtable" Dcroat.smcp
EndChar

StartChar: Emacron
Encoding: 274 274 213
Width: 541
GlyphClass: 2
Flags: W
HStem: 0 133<190 520> 300 130<190 470> 577 134<190 518> 767 96<98 470>
VStem: 28 162<133 300 430 577>
LayerCount: 2
Fore
SplineSet
28 0 m 1
 28 711 l 1
 518 711 l 1
 518 577 l 1
 190 577 l 1
 190 430 l 1
 470 430 l 1
 470 300 l 1
 190 300 l 1
 190 133 l 1
 520 133 l 1
 520 0 l 1
 28 0 l 1
98 767 m 1
 98 863 l 1
 470 863 l 1
 470 767 l 1
 98 767 l 1
EndSplineSet
Substitution2: "'smcp' Lowercase to Small Capitals in Latin lookup 1 subtable" Emacron.smcp
EndChar

StartChar: emacron
Encoding: 275 275 214
Width: 540
GlyphClass: 2
Flags: W
HStem: -10 129<220.691 381.737> 210 112<181 360> 409 129<212.275 337.47> 615 96<72 444>
VStem: 20 159<160.263 210 322 370.77>
LayerCount: 2
Fore
SplineSet
20 246 m 2
 20 265 l 2
 20 389 78 479 169 518 c 0
 200 531 235 538 274 538 c 0
 435 538 514 431 514 276 c 2
 514 210 l 1
 179 210 l 1
 189 154 230 119 299 119 c 0
 356 119 394 141 420 175 c 2
 426 182 l 1
 505 93 l 1
 501 88 l 2
 459 30 389 -10 289 -10 c 0
 159 -10 74 55 38 147 c 0
 26 178 20 211 20 246 c 2
72 615 m 1
 72 711 l 1
 444 711 l 1
 444 615 l 1
 72 615 l 1
181 322 m 1
 360 322 l 1
 360 326 l 2
 360 379 330 409 273 409 c 0
 215 409 189 371 181 322 c 1
EndSplineSet
Substitution2: "'smcp' Lowercase to Small Capitals in Latin lookup 1 subtable" Emacron.smcp
EndChar

StartChar: Ebreve
Encoding: 276 276 215
Width: 541
GlyphClass: 2
Flags: W
HStem: 0 133<190 520> 300 130<190 470> 577 134<190 518> 738 96<230.709 334.831>
VStem: 28 162<133 300 430 577> 106 116<843.398 898> 344 116<844.112 898>
LayerCount: 2
Fore
SplineSet
28 0 m 1xfa
 28 711 l 1
 518 711 l 1
 518 577 l 1
 190 577 l 1
 190 430 l 1
 470 430 l 1
 470 300 l 1
 190 300 l 1
 190 133 l 1
 520 133 l 1
 520 0 l 1
 28 0 l 1xfa
106 890 m 2xf6
 106 898 l 1
 222 898 l 1
 222 890 l 2
 222 851 243 834 283 834 c 0
 323 834 344 853 344 890 c 2
 344 898 l 1
 460 898 l 1
 460 890 l 2
 460 813 411 769 354 749 c 0
 332 742 309 738 283 738 c 0
 204 738 143 773 119 830 c 0
 111 849 106 868 106 890 c 2xf6
EndSplineSet
Substitution2: "'smcp' Lowercase to Small Capitals in Latin lookup 1 subtable" Ebreve.smcp
EndChar

StartChar: ebreve
Encoding: 277 277 216
Width: 540
GlyphClass: 2
Flags: W
HStem: -10 129<220.691 381.737> 210 112<181 360> 409 129<212.275 337.47> 585 96<205.033 308.817>
VStem: 20 159<160.263 210 322 370.77> 82 114<694.257 745> 318 116<691.989 745>
LayerCount: 2
Fore
SplineSet
20 246 m 2xfa
 20 265 l 2
 20 389 78 479 169 518 c 0
 200 531 235 538 274 538 c 0
 435 538 514 431 514 276 c 2
 514 210 l 1
 179 210 l 1
 189 154 230 119 299 119 c 0
 356 119 394 141 420 175 c 2
 426 182 l 1
 505 93 l 1
 501 88 l 2
 459 30 389 -10 289 -10 c 0
 159 -10 74 55 38 147 c 0
 26 178 20 211 20 246 c 2xfa
82 738 m 2xf6
 82 745 l 1
 196 745 l 1
 196 738 l 2
 196 699 218 681 258 681 c 0
 298 681 318 701 318 738 c 2
 318 745 l 1
 434 745 l 1
 434 738 l 2
 434 661 387 616 330 596 c 0
 308 589 284 585 258 585 c 0
 159 585 82 637 82 738 c 2xf6
181 322 m 1
 360 322 l 1
 360 326 l 2
 360 379 330 409 273 409 c 0
 215 409 189 371 181 322 c 1
EndSplineSet
Substitution2: "'smcp' Lowercase to Small Capitals in Latin lookup 1 subtable" Ebreve.smcp
EndChar

StartChar: Edotaccent
Encoding: 278 278 217
Width: 541
GlyphClass: 2
Flags: W
HStem: 0 133<190 520> 300 130<190 470> 577 134<190 518> 750 149<224.75 340.569>
VStem: 28 162<133 300 430 577> 202 160<772.605 877.128>
LayerCount: 2
Fore
SplineSet
28 0 m 1
 28 711 l 1
 518 711 l 1
 518 577 l 1
 190 577 l 1
 190 430 l 1
 470 430 l 1
 470 300 l 1
 190 300 l 1
 190 133 l 1
 520 133 l 1
 520 0 l 1
 28 0 l 1
202 824 m 0
 202 870 236 899 282 899 c 0
 328 899 362 869 362 824 c 0
 362 779 328 750 282 750 c 0
 237 750 202 780 202 824 c 0
EndSplineSet
Substitution2: "'smcp' Lowercase to Small Capitals in Latin lookup 1 subtable" Edotaccent.smcp
EndChar

StartChar: edotaccent
Encoding: 279 279 218
Width: 540
GlyphClass: 2
Flags: W
HStem: -10 129<220.691 381.737> 210 112<181 360> 409 129<212.275 337.47> 597 149<200.625 315.046>
VStem: 20 159<160.263 210 322 370.77> 178 158<619.258 724.652>
LayerCount: 2
Fore
SplineSet
20 246 m 2xf8
 20 265 l 2
 20 389 78 479 169 518 c 0
 200 531 235 538 274 538 c 0
 435 538 514 431 514 276 c 2
 514 210 l 1
 179 210 l 1
 189 154 230 119 299 119 c 0
 356 119 394 141 420 175 c 2
 426 182 l 1
 505 93 l 1
 501 88 l 2
 459 30 389 -10 289 -10 c 0
 159 -10 74 55 38 147 c 0
 26 178 20 211 20 246 c 2xf8
178 672 m 0xf4
 178 718 211 746 257 746 c 0
 303 746 336 717 336 672 c 0
 336 627 303 597 257 597 c 0
 212 597 178 628 178 672 c 0xf4
181 322 m 1
 360 322 l 1
 360 326 l 2
 360 379 330 409 273 409 c 0
 215 409 189 371 181 322 c 1
EndSplineSet
Substitution2: "'smcp' Lowercase to Small Capitals in Latin lookup 1 subtable" Edotaccent.smcp
EndChar

StartChar: Eogonek
Encoding: 280 280 219
Width: 541
GlyphClass: 2
Flags: W
HStem: -206 103<333.5 442.218> 0 133<190 292 406.915 520> 300 130<190 470> 577 134<190 518>
VStem: 28 162<133 300 430 577> 250 120<-102.74 -33.7626>
LayerCount: 2
Fore
SplineSet
28 0 m 1
 28 711 l 1
 518 711 l 1
 518 577 l 1
 190 577 l 1
 190 430 l 1
 470 430 l 1
 470 300 l 1
 190 300 l 1
 190 133 l 1
 520 133 l 1
 520 0 l 1
 440 0 l 1
 417 -14 399 -26 387 -38 c 0
 375 -50 370 -63 370 -78 c 0
 370 -96 377 -103 395 -103 c 0
 414 -103 426 -96 440 -90 c 1
 456 -181 l 1
 437 -195 405 -206 368 -206 c 0
 299 -206 250 -167 250 -96 c 0
 250 -54 267 -24 292 0 c 1
 28 0 l 1
EndSplineSet
Substitution2: "'smcp' Lowercase to Small Capitals in Latin lookup 1 subtable" Eogonek.smcp
EndChar

StartChar: eogonek
Encoding: 281 281 220
Width: 541
GlyphClass: 2
Flags: W
HStem: -191 103<306 415.423> 210 112<182 362> 409 129<212.978 338.747>
VStem: 20 160<157.838 210 322 370.77> 222 120<-86.5872 -19.538>
LayerCount: 2
Fore
SplineSet
20 247 m 2
 20 265 l 2
 20 389 78 479 169 518 c 0
 200 531 236 538 275 538 c 0
 436 538 516 431 516 276 c 2
 516 210 l 1
 180 210 l 1
 190 151 231 115 300 115 c 0
 357 115 395 136 421 169 c 2
 427 176 l 1
 506 89 l 1
 502 85 l 1
 480 55 450 32 413 15 c 1
 388 1 373 -11 360 -23 c 0
 348 -35 342 -49 342 -64 c 0
 342 -81 349 -88 368 -88 c 0
 387 -88 399 -81 413 -75 c 1
 429 -165 l 1
 408 -180 378 -191 340 -191 c 0
 272 -191 222 -153 222 -82 c 0
 222 -51 231 -25 245 -6 c 1
 140 8 67 67 36 153 c 0
 26 182 20 214 20 247 c 2
182 322 m 1
 362 322 l 1
 362 326 l 2
 362 379 331 409 274 409 c 0
 216 409 190 371 182 322 c 1
EndSplineSet
Substitution2: "'smcp' Lowercase to Small Capitals in Latin lookup 1 subtable" Eogonek.smcp
EndChar

StartChar: Ecaron
Encoding: 282 282 221
Width: 541
GlyphClass: 2
Flags: W
HStem: 0 133<190 520> 300 130<190 470> 577 134<190 518>
VStem: 28 162<133 300 430 577>
LayerCount: 2
Fore
SplineSet
28 0 m 1
 28 711 l 1
 518 711 l 1
 518 577 l 1
 190 577 l 1
 190 430 l 1
 470 430 l 1
 470 300 l 1
 190 300 l 1
 190 133 l 1
 520 133 l 1
 520 0 l 1
 28 0 l 1
82 888 m 1
 82 903 l 1
 213 903 l 1
 282 837 l 1
 350 903 l 1
 482 903 l 1
 482 887 l 1
 329 746 l 1
 234 746 l 1
 82 888 l 1
EndSplineSet
Substitution2: "'smcp' Lowercase to Small Capitals in Latin lookup 1 subtable" Ecaron.smcp
EndChar

StartChar: ecaron
Encoding: 283 283 222
Width: 540
GlyphClass: 2
Flags: W
HStem: -10 129<220.691 381.737> 210 112<181 360> 409 129<212.275 337.47> 730 20G<58 209.909 305.394 458>
VStem: 20 159<160.263 210 322 370.77>
LayerCount: 2
Fore
SplineSet
20 246 m 2
 20 265 l 2
 20 389 78 479 169 518 c 0
 200 531 235 538 274 538 c 0
 435 538 514 431 514 276 c 2
 514 210 l 1
 179 210 l 1
 189 154 230 119 299 119 c 0
 356 119 394 141 420 175 c 2
 426 182 l 1
 505 93 l 1
 501 88 l 2
 459 30 389 -10 289 -10 c 0
 159 -10 74 55 38 147 c 0
 26 178 20 211 20 246 c 2
58 735 m 1
 58 750 l 1
 189 750 l 1
 258 684 l 1
 326 750 l 1
 458 750 l 1
 458 734 l 1
 305 593 l 1
 210 593 l 1
 58 735 l 1
181 322 m 1
 360 322 l 1
 360 326 l 2
 360 379 330 409 273 409 c 0
 215 409 189 371 181 322 c 1
EndSplineSet
Substitution2: "'smcp' Lowercase to Small Capitals in Latin lookup 1 subtable" Ecaron.smcp
EndChar

StartChar: Gcircumflex
Encoding: 284 284 223
Width: 645
GlyphClass: 2
Flags: W
HStem: -10 133<259.703 444.253> 258 124<320 454> 588 133<253.255 409.01>
VStem: 20 164<207.961 505.385> 454 162<138.127 258>
LayerCount: 2
Fore
SplineSet
20 334 m 2
 20 376 l 2
 20 537 82 649 200 698 c 0
 238 713 280 721 326 721 c 0
 500 721 597 634 615 478 c 2
 616 470 l 1
 459 470 l 1
 447 543 414 588 330 588 c 0
 221 588 184 499 184 376 c 2
 184 335 l 2
 184 208 227 123 344 123 c 0
 391 123 435 133 454 152 c 1
 454 258 l 1
 320 258 l 1
 320 382 l 1
 616 382 l 1
 616 93 l 1
 614 91 l 1
 557 26 460 -10 336 -10 c 0
 180 -10 84 73 43 189 c 0
 28 231 20 280 20 334 c 2
128 747 m 1
 128 766 l 1
 278 905 l 1
 366 905 l 1
 516 764 l 1
 516 747 l 1
 394 747 l 1
 322 815 l 1
 249 747 l 1
 128 747 l 1
EndSplineSet
Substitution2: "'smcp' Lowercase to Small Capitals in Latin lookup 1 subtable" Gcircumflex.smcp
EndChar

StartChar: gcircumflex
Encoding: 285 285 224
Width: 549
GlyphClass: 2
Flags: W
HStem: -208 125<168.933 323.684> -10 129<215.61 328.121> 408 130<216.229 334.818> 508 20G<372.949 518> 730 20G<198.417 329.277>
VStem: 20 156<162.961 361.079> 360 158<-46.6735 34 136.859 390.141>
LayerCount: 2
Fore
SplineSet
20 258 m 2xde
 20 268 l 2
 20 387 64 477 148 518 c 0
 175 531 207 538 241 538 c 0xee
 299 538 342 519 371 489 c 1
 375 528 l 1
 518 528 l 1
 518 21 l 2
 518 -94 451 -165 361 -193 c 0
 329 -203 294 -208 256 -208 c 0
 167 -208 90 -172 50 -118 c 1
 120 -19 l 1
 127 -27 l 2
 155 -59 193 -83 249 -83 c 0
 320 -83 360 -46 360 24 c 2
 360 34 l 1
 331 8 292 -10 240 -10 c 0
 165 -10 112 25 78 67 c 0
 41 112 20 179 20 258 c 2xde
70 592 m 1
 70 611 l 1
 220 750 l 1
 308 750 l 1
 458 609 l 1
 458 592 l 1
 336 592 l 1
 264 660 l 1
 191 592 l 1
 70 592 l 1
176 258 m 2
 176 197 194 150 231 129 c 0
 244 122 258 119 276 119 c 0
 319 119 344 135 360 160 c 1
 360 367 l 1
 343 392 320 408 277 408 c 0
 203 408 176 344 176 268 c 2
 176 258 l 2
EndSplineSet
Substitution2: "'smcp' Lowercase to Small Capitals in Latin lookup 1 subtable" Gcircumflex.smcp
EndChar

StartChar: Gbreve
Encoding: 286 286 225
Width: 645
GlyphClass: 2
Flags: W
HStem: -10 133<259.703 444.253> 258 124<320 454> 588 133<253.255 409.01> 740 96<269.033 372.817>
VStem: 20 164<207.961 505.385> 146 114<848.656 900> 382 116<846.112 900> 454 162<138.127 258>
LayerCount: 2
Fore
SplineSet
20 334 m 2xf9
 20 376 l 2
 20 537 82 649 200 698 c 0
 238 713 280 721 326 721 c 0
 500 721 597 634 615 478 c 2
 616 470 l 1
 459 470 l 1
 447 543 414 588 330 588 c 0
 221 588 184 499 184 376 c 2
 184 335 l 2
 184 208 227 123 344 123 c 0
 391 123 435 133 454 152 c 1
 454 258 l 1
 320 258 l 1
 320 382 l 1
 616 382 l 1
 616 93 l 1
 614 91 l 1
 557 26 460 -10 336 -10 c 0
 180 -10 84 73 43 189 c 0
 28 231 20 280 20 334 c 2xf9
146 892 m 2xf6
 146 900 l 1
 260 900 l 1
 260 892 l 2
 260 853 282 836 322 836 c 0
 362 836 382 855 382 892 c 2
 382 900 l 1
 498 900 l 1
 498 892 l 2
 498 815 451 771 394 751 c 0
 372 744 348 740 322 740 c 0
 223 740 146 792 146 892 c 2xf6
EndSplineSet
Substitution2: "'smcp' Lowercase to Small Capitals in Latin lookup 1 subtable" Gbreve.smcp
EndChar

StartChar: gbreve
Encoding: 287 287 226
Width: 549
GlyphClass: 2
Flags: W
HStem: -208 125<168.933 323.684> -10 129<215.61 328.121> 408 130<216.229 334.818> 508 20G<372.949 518> 585 96<212.949 314.967>
VStem: 20 156<162.961 361.079> 88 114<690.836 745> 324 116<691.989 745> 360 158<-46.6735 34 136.859 390.141>
LayerCount: 2
Fore
SplineSet
20 258 m 2xdc80
 20 268 l 2
 20 387 64 477 148 518 c 0
 175 531 207 538 241 538 c 0xec80
 299 538 342 519 371 489 c 1
 375 528 l 1
 518 528 l 1
 518 21 l 2
 518 -94 451 -165 361 -193 c 0
 329 -203 294 -208 256 -208 c 0
 167 -208 90 -172 50 -118 c 1
 120 -19 l 1
 127 -27 l 2
 155 -59 193 -83 249 -83 c 0
 320 -83 360 -46 360 24 c 2
 360 34 l 1
 331 8 292 -10 240 -10 c 0
 165 -10 112 25 78 67 c 0
 41 112 20 179 20 258 c 2xdc80
88 738 m 2xcb
 88 745 l 1
 202 745 l 1
 202 738 l 2
 202 699 224 681 264 681 c 0
 304 681 324 701 324 738 c 2
 324 745 l 1
 440 745 l 1
 440 738 l 2
 440 661 392 616 335 596 c 0
 313 589 290 585 264 585 c 0
 164 585 88 638 88 738 c 2xcb
176 258 m 2xec80
 176 197 194 150 231 129 c 0
 244 122 258 119 276 119 c 0
 319 119 344 135 360 160 c 1
 360 367 l 1
 343 392 320 408 277 408 c 0
 203 408 176 344 176 268 c 2
 176 258 l 2xec80
EndSplineSet
Substitution2: "'smcp' Lowercase to Small Capitals in Latin lookup 1 subtable" Gbreve.smcp
EndChar

StartChar: uni0120
Encoding: 288 288 227
Width: 645
GlyphClass: 2
Flags: W
HStem: -10 133<259.703 444.253> 258 124<320 454> 588 133<253.255 409.01> 753 149<264.625 379.046>
VStem: 20 164<207.961 505.385> 242 158<775.258 880.652> 454 162<138.127 258>
LayerCount: 2
Fore
SplineSet
20 334 m 2
 20 376 l 2
 20 537 82 649 200 698 c 0
 238 713 280 721 326 721 c 0
 500 721 597 634 615 478 c 2
 616 470 l 1
 459 470 l 1
 447 543 414 588 330 588 c 0
 221 588 184 499 184 376 c 2
 184 335 l 2
 184 208 227 123 344 123 c 0
 391 123 435 133 454 152 c 1
 454 258 l 1
 320 258 l 1
 320 382 l 1
 616 382 l 1
 616 93 l 1
 614 91 l 1
 557 26 460 -10 336 -10 c 0
 180 -10 84 73 43 189 c 0
 28 231 20 280 20 334 c 2
242 828 m 0
 242 874 275 902 321 902 c 0
 367 902 400 873 400 828 c 0
 400 783 367 753 321 753 c 0
 276 753 242 784 242 828 c 0
EndSplineSet
EndChar

StartChar: uni0121
Encoding: 289 289 228
Width: 549
GlyphClass: 2
Flags: W
HStem: -208 125<168.933 323.684> -10 129<215.61 328.121> 408 130<216.229 334.818> 508 20G<372.949 518> 597 149<206.625 321.046>
VStem: 20 156<162.961 361.079> 184 158<619.258 724.652> 360 158<-46.6735 34 136.859 390.141>
LayerCount: 2
Fore
SplineSet
20 258 m 2xdf
 20 268 l 2
 20 387 64 477 148 518 c 0
 175 531 207 538 241 538 c 0xef
 299 538 342 519 371 489 c 1
 375 528 l 1
 518 528 l 1
 518 21 l 2
 518 -94 451 -165 361 -193 c 0
 329 -203 294 -208 256 -208 c 0
 167 -208 90 -172 50 -118 c 1
 120 -19 l 1
 127 -27 l 2
 155 -59 193 -83 249 -83 c 0
 320 -83 360 -46 360 24 c 2
 360 34 l 1
 331 8 292 -10 240 -10 c 0
 165 -10 112 25 78 67 c 0
 41 112 20 179 20 258 c 2xdf
176 258 m 2
 176 197 194 150 231 129 c 0
 244 122 258 119 276 119 c 0
 319 119 344 135 360 160 c 1
 360 367 l 1
 343 392 320 408 277 408 c 0
 203 408 176 344 176 268 c 2
 176 258 l 2
184 672 m 0
 184 718 217 746 263 746 c 0
 309 746 342 717 342 672 c 0
 342 627 309 597 263 597 c 0
 218 597 184 628 184 672 c 0
EndSplineSet
EndChar

StartChar: Gcedilla
Encoding: 290 290 229
Width: 645
GlyphClass: 2
Flags: W
HStem: -10 133<259.703 444.253> 258 124<320 454> 588 133<253.255 409.01>
VStem: 20 164<207.961 505.385> 270 118<-171.677 -31> 454 162<138.127 258>
LayerCount: 2
Fore
SplineSet
20 334 m 2
 20 376 l 2
 20 537 82 649 200 698 c 0
 238 713 280 721 326 721 c 0
 500 721 597 634 615 478 c 2
 616 470 l 1
 459 470 l 1
 447 543 414 588 330 588 c 0
 221 588 184 499 184 376 c 2
 184 335 l 2
 184 208 227 123 344 123 c 0
 391 123 435 133 454 152 c 1
 454 258 l 1
 320 258 l 1
 320 382 l 1
 616 382 l 1
 616 93 l 1
 614 91 l 1
 557 26 460 -10 336 -10 c 0
 180 -10 84 73 43 189 c 0
 28 231 20 280 20 334 c 2
229 -209 m 1
 255 -178 270 -135 270 -80 c 2
 270 -31 l 1
 388 -31 l 1
 388 -74 l 2
 388 -131 366 -179 344 -215 c 0
 334 -231 323 -243 311 -255 c 1
 229 -209 l 1
EndSplineSet
Substitution2: "'smcp' Lowercase to Small Capitals in Latin lookup 1 subtable" Gcommaaccent.smcp
EndChar

StartChar: gcedilla
Encoding: 291 291 230
Width: 549
GlyphClass: 2
Flags: W
HStem: -208 125<168.933 323.684> -10 129<215.61 328.121> 408 130<216.229 334.818> 508 20G<372.949 518>
VStem: 20 156<162.961 361.079> 198 126<600 771.289> 360 158<-46.6735 34 136.859 390.141>
LayerCount: 2
Fore
SplineSet
20 258 m 2xde
 20 268 l 2
 20 387 64 477 148 518 c 0
 175 531 207 538 241 538 c 0xee
 299 538 342 519 371 489 c 1
 375 528 l 1
 518 528 l 1
 518 21 l 2
 518 -94 451 -165 361 -193 c 0
 329 -203 294 -208 256 -208 c 0
 167 -208 90 -172 50 -118 c 1
 120 -19 l 1
 127 -27 l 2
 155 -59 193 -83 249 -83 c 0
 320 -83 360 -46 360 24 c 2
 360 34 l 1
 331 8 292 -10 240 -10 c 0
 165 -10 112 25 78 67 c 0
 41 112 20 179 20 258 c 2xde
176 258 m 2
 176 197 194 150 231 129 c 0
 244 122 258 119 276 119 c 0
 319 119 344 135 360 160 c 1
 360 367 l 1
 343 392 320 408 277 408 c 0
 203 408 176 344 176 268 c 2
 176 258 l 2
198 600 m 1
 198 674 l 2
 198 748 230 811 275 841 c 1
 359 798 l 1
 340 765 324 722 324 668 c 2
 324 600 l 1
 198 600 l 1
EndSplineSet
Substitution2: "'smcp' Lowercase to Small Capitals in Latin lookup 1 subtable" Gcommaaccent.smcp
EndChar

StartChar: Hcircumflex
Encoding: 292 292 231
Width: 654
GlyphClass: 2
Flags: W
HStem: 0 21G<28 190 460 622> 298 132<190 460> 691 20G<28 190 460 622>
VStem: 28 162<0 298 430 711> 460 162<0 298 430 711>
LayerCount: 2
Fore
SplineSet
28 0 m 1
 28 711 l 1
 190 711 l 1
 190 430 l 1
 460 430 l 1
 460 711 l 1
 622 711 l 1
 622 0 l 1
 460 0 l 1
 460 298 l 1
 190 298 l 1
 190 0 l 1
 28 0 l 1
132 745 m 1
 132 764 l 1
 281 903 l 1
 369 903 l 1
 520 762 l 1
 520 745 l 1
 397 745 l 1
 325 813 l 1
 252 745 l 1
 132 745 l 1
EndSplineSet
Substitution2: "'smcp' Lowercase to Small Capitals in Latin lookup 1 subtable" Hcircumflex.smcp
EndChar

StartChar: hcircumflex
Encoding: 293 293 232
Width: 528
GlyphClass: 2
Flags: W
HStem: 0 21G<28 184 342 498> 408 130<227.972 325.102> 730 20G<28 184>
VStem: 28 156<0 390.959 483 750> 342 156<0 391.798>
LayerCount: 2
Fore
SplineSet
28 0 m 1
 28 750 l 1
 184 750 l 1
 184 483 l 1
 216 516 259 538 317 538 c 0
 447 538 498 457 498 331 c 2
 498 0 l 1
 342 0 l 1
 342 329 l 2
 342 385 322 408 266 408 c 0
 224 408 200 392 184 367 c 1
 184 0 l 1
 28 0 l 1
46 778 m 1
 46 797 l 1
 196 936 l 1
 284 936 l 1
 434 795 l 1
 434 778 l 1
 312 778 l 1
 240 846 l 1
 167 778 l 1
 46 778 l 1
EndSplineSet
Substitution2: "'smcp' Lowercase to Small Capitals in Latin lookup 1 subtable" Hcircumflex.smcp
EndChar

StartChar: Hbar
Encoding: 294 294 233
Width: 739
GlyphClass: 2
Flags: W
HStem: 0 21G<68 230 500 662> 298 132<230 500> 502 98<14 68 230 500 662 722> 691 20G<68 230 500 662>
VStem: 68 162<0 298 430 502 600 711> 500 162<0 298 430 502 600 711>
LayerCount: 2
Fore
SplineSet
14 502 m 1
 14 600 l 1
 68 600 l 1
 68 711 l 1
 230 711 l 1
 230 598 l 1
 500 598 l 1
 500 711 l 1
 662 711 l 1
 662 600 l 1
 722 600 l 1
 722 502 l 1
 662 502 l 1
 662 0 l 1
 500 0 l 1
 500 298 l 1
 230 298 l 1
 230 0 l 1
 68 0 l 1
 68 502 l 1
 14 502 l 1
230 430 m 1
 500 430 l 1
 500 506 l 1
 230 506 l 1
 230 430 l 1
EndSplineSet
EndChar

StartChar: hbar
Encoding: 295 295 234
Width: 592
GlyphClass: 2
Flags: W
HStem: 0 21G<90 246 406 562> 408 130<290.249 388.302> 579 104<14 90 246 370> 730 20G<90 246>
VStem: 90 156<0 390.52 483 579 683 750> 406 156<0 391.798>
LayerCount: 2
Fore
SplineSet
14 579 m 1
 14 683 l 1
 90 683 l 1
 90 750 l 1
 246 750 l 1
 246 683 l 1
 370 683 l 1
 370 579 l 1
 246 579 l 1
 246 483 l 1
 278 516 322 538 380 538 c 0
 509 538 562 457 562 331 c 2
 562 0 l 1
 406 0 l 1
 406 329 l 2
 406 385 385 408 328 408 c 0
 287 408 261 391 246 367 c 1
 246 0 l 1
 90 0 l 1
 90 579 l 1
 14 579 l 1
EndSplineSet
EndChar

StartChar: Itilde
Encoding: 296 296 235
Width: 406
GlyphClass: 2
Flags: W
HStem: 0 21G<122 282> 691 20G<122 282> 751 104<200.723 293.265> 793 104<110.64 200.723>
VStem: 10 98<751 790.201> 122 160<0 711> 296 98<858.084 895>
CounterMasks: 1 0e
LayerCount: 2
Fore
SplineSet
10 751 m 1xee
 10 758 l 2
 10 818 40 864 81 885 c 0
 96 893 112 897 128 897 c 0xde
 188 897 213 855 262 855 c 0
 283 855 296 870 296 894 c 2
 296 903 l 1
 394 895 l 1
 394 888 l 2
 394 827 363 783 323 762 c 0
 309 754 292 751 275 751 c 0xee
 227 751 201 775 172 788 c 0
 163 791 153 793 141 793 c 0xde
 120 793 108 778 108 754 c 2
 108 746 l 1
 10 751 l 1xee
122 0 m 1
 122 711 l 1
 282 711 l 1
 282 0 l 1
 122 0 l 1
EndSplineSet
Substitution2: "'smcp' Lowercase to Small Capitals in Latin lookup 1 subtable" Itilde.smcp
EndChar

StartChar: itilde
Encoding: 297 297 236
Width: 410
GlyphClass: 2
Flags: W
HStem: 0 21G<124 282> 508 20G<124 282> 591 104<202.699 295.265> 633 104<112.787 201.533>
VStem: 12 98<591 630.201> 124 158<0 528> 298 98<698.084 735>
LayerCount: 2
Fore
SplineSet
12 591 m 1xee
 12 598 l 2
 12 658 43 704 84 725 c 0
 99 732 114 737 130 737 c 0xde
 160 737 182 724 202 715 c 0
 222 706 240 695 264 695 c 0
 285 695 298 710 298 734 c 2
 298 743 l 1
 396 735 l 1
 396 728 l 2
 396 667 365 623 325 602 c 0
 311 594 294 591 277 591 c 0xee
 229 591 203 615 174 628 c 0
 165 631 155 633 143 633 c 0xde
 122 633 110 618 110 594 c 2
 110 586 l 1
 12 591 l 1xee
124 0 m 1
 124 528 l 1
 282 528 l 1
 282 0 l 1
 124 0 l 1
EndSplineSet
Substitution2: "'smcp' Lowercase to Small Capitals in Latin lookup 1 subtable" Itilde.smcp
EndChar

StartChar: Imacron
Encoding: 298 298 237
Width: 395
GlyphClass: 2
Flags: W
HStem: 0 21G<116 276> 691 20G<116 276> 767 96<10 382>
VStem: 116 160<0 711>
LayerCount: 2
Fore
SplineSet
10 767 m 1
 10 863 l 1
 382 863 l 1
 382 767 l 1
 10 767 l 1
116 0 m 1
 116 711 l 1
 276 711 l 1
 276 0 l 1
 116 0 l 1
EndSplineSet
Substitution2: "'smcp' Lowercase to Small Capitals in Latin lookup 1 subtable" Imacron.smcp
EndChar

StartChar: imacron
Encoding: 299 299 238
Width: 404
GlyphClass: 2
Flags: W
HStem: 0 21G<120 276> 508 20G<120 276> 607 96<14 386>
VStem: 120 156<0 528>
LayerCount: 2
Fore
SplineSet
14 607 m 1
 14 703 l 1
 386 703 l 1
 386 607 l 1
 14 607 l 1
120 0 m 1
 120 528 l 1
 276 528 l 1
 276 0 l 1
 120 0 l 1
EndSplineSet
Substitution2: "'smcp' Lowercase to Small Capitals in Latin lookup 1 subtable" Imacron.smcp
EndChar

StartChar: Ibreve
Encoding: 300 300 239
Width: 376
GlyphClass: 2
Flags: W
HStem: 0 21G<106 266> 691 20G<106 266> 738 96<134.709 238.831>
VStem: 10 116<843.398 898> 106 160<0 711> 248 116<844.112 898>
LayerCount: 2
Fore
SplineSet
10 890 m 2xf4
 10 898 l 1
 126 898 l 1
 126 890 l 2
 126 851 147 834 187 834 c 0
 227 834 248 853 248 890 c 2
 248 898 l 1
 364 898 l 1
 364 890 l 2
 364 813 315 769 258 749 c 0
 236 742 213 738 187 738 c 0
 108 738 47 773 23 830 c 0
 15 849 10 868 10 890 c 2xf4
106 0 m 1xe8
 106 711 l 1
 266 711 l 1
 266 0 l 1
 106 0 l 1xe8
EndSplineSet
Substitution2: "'smcp' Lowercase to Small Capitals in Latin lookup 1 subtable" Ibreve.smcp
EndChar

StartChar: ibreve
Encoding: 301 301 240
Width: 379
GlyphClass: 2
Flags: W
HStem: 0 21G<108 266> 508 20G<108 266> 578 96<136.639 240.692> 718 20G<12 128 250 366>
VStem: 12 116<683.398 738> 108 158<0 528> 250 116<684.112 738>
LayerCount: 2
Fore
SplineSet
12 730 m 2xfa
 12 738 l 1
 128 738 l 1
 128 730 l 2
 128 691 149 674 189 674 c 0
 229 674 250 693 250 730 c 2
 250 738 l 1
 366 738 l 1
 366 730 l 2
 366 653 318 609 261 589 c 0
 239 582 215 578 189 578 c 0
 110 578 48 613 24 670 c 0
 16 689 12 708 12 730 c 2xfa
108 0 m 1xf4
 108 528 l 1
 266 528 l 1
 266 0 l 1
 108 0 l 1xf4
EndSplineSet
Substitution2: "'smcp' Lowercase to Small Capitals in Latin lookup 1 subtable" Ibreve.smcp
EndChar

StartChar: Iogonek
Encoding: 302 302 241
Width: 268
GlyphClass: 2
Flags: W
HStem: -206 103<95 204.423> 691 20G<74 236>
VStem: 10 122<-102.752 -32.8803> 74 162<0.350403 711>
LayerCount: 2
Fore
SplineSet
10 -96 m 0xe0
 10 -41 41 -10 74 13 c 1
 74 711 l 1
 236 711 l 1
 236 0 l 1xd0
 201 0 l 1
 178 -14 160 -26 148 -38 c 0
 136 -50 132 -63 132 -78 c 0
 132 -94 139 -103 156 -103 c 0
 175 -103 188 -96 202 -90 c 1
 218 -181 l 1
 197 -196 167 -206 129 -206 c 0
 61 -206 10 -167 10 -96 c 0xe0
EndSplineSet
Substitution2: "'smcp' Lowercase to Small Capitals in Latin lookup 1 subtable" Iogonek.smcp
EndChar

StartChar: iogonek
Encoding: 303 303 242
Width: 262
GlyphClass: 2
Flags: W
HStem: -206 103<94.5 203.456> 508 20G<72 228> 577 161<88.6077 211.25>
VStem: 10 122<-102.752 -33.755> 62 174<602.445 711.906> 72 156<0.369801 528>
LayerCount: 2
Fore
SplineSet
10 -96 m 0xf0
 10 -45 36 -13 72 11 c 1
 72 528 l 1
 228 528 l 1
 228 0 l 1xe4
 201 0 l 1
 178 -14 161 -26 149 -38 c 0
 137 -50 132 -63 132 -78 c 0
 132 -94 139 -103 156 -103 c 0
 175 -103 187 -96 201 -90 c 1
 217 -181 l 1
 196 -196 167 -206 129 -206 c 0
 60 -206 10 -167 10 -96 c 0xf0
62 658 m 0xe8
 62 706 100 738 149 738 c 0
 199 738 236 708 236 658 c 0
 236 608 199 577 149 577 c 0
 100 577 62 607 62 658 c 0xe8
EndSplineSet
Substitution2: "'smcp' Lowercase to Small Capitals in Latin lookup 1 subtable" Iogonek.smcp
EndChar

StartChar: Idotaccent
Encoding: 304 304 243
Width: 221
GlyphClass: 2
Flags: W
HStem: 0 21G<28 188> 691 20G<28 188> 750 149<50.25 165.046>
VStem: 28 158<0 711 771.735 877.128>
LayerCount: 2
Fore
SplineSet
28 0 m 1
 28 711 l 1
 188 711 l 1
 188 0 l 1
 28 0 l 1
28 824 m 0
 28 870 61 899 107 899 c 0
 153 899 186 869 186 824 c 0
 186 779 153 750 107 750 c 0
 62 750 28 780 28 824 c 0
EndSplineSet
Substitution2: "'smcp' Lowercase to Small Capitals in Latin lookup 1 subtable" Idotaccent.smcp
EndChar

StartChar: dotlessi
Encoding: 305 305 244
Width: 217
GlyphClass: 2
Flags: W
HStem: 0 21G<28 184> 508 20G<28 184>
VStem: 28 156<0 528>
LayerCount: 2
Fore
SplineSet
28 0 m 1
 28 528 l 1
 184 528 l 1
 184 0 l 1
 28 0 l 1
EndSplineSet
EndChar

StartChar: IJ
Encoding: 306 306 245
Width: 790
GlyphClass: 2
Flags: W
HStem: -10 133<451.192 569.347> 0 21G<28 188> 691 20G<28 188 596 758>
VStem: 28 160<0 711> 596 162<154.018 711>
LayerCount: 2
Fore
SplineSet
28 0 m 1x78
 28 711 l 1
 188 711 l 1
 188 0 l 1
 28 0 l 1x78
266 218 m 2
 266 225 l 1
 428 225 l 1
 428 218 l 2
 428 154 451 123 512 123 c 0
 568 123 596 164 596 224 c 2
 596 711 l 1
 758 711 l 1
 758 222 l 2
 758 110 694 36 608 6 c 0
 578 -4 547 -10 512 -10 c 0xb8
 364 -10 266 68 266 218 c 2
EndSplineSet
EndChar

StartChar: ij
Encoding: 307 307 246
Width: 485
GlyphClass: 2
Flags: W
HStem: -213 130<188.847 286.616> 0 21G<30 186> 508 20G<30 186 296 452> 577 161<48.0843 169.75 309.125 432.875>
VStem: 22 172<601.448 712.719> 30 156<0 528> 284 174<602.445 713.702> 296 156<-74.7734 528>
LayerCount: 2
Fore
SplineSet
22 658 m 0xf8
 22 706 59 738 108 738 c 0
 158 738 194 708 194 658 c 0
 194 608 158 577 108 577 c 0
 59 577 22 607 22 658 c 0xf8
30 0 m 1xf4
 30 528 l 1
 186 528 l 1
 186 0 l 1
 30 0 l 1xf4
188 -76 m 1
 204 -80 221 -83 239 -83 c 0
 279 -83 296 -64 296 -22 c 2
 296 528 l 1
 452 528 l 1
 452 -22 l 2xf1
 452 -143 385 -213 264 -213 c 0
 236 -213 208 -211 188 -203 c 1
 188 -76 l 1
284 658 m 0xf2
 284 707 321 738 371 738 c 0
 421 738 458 707 458 658 c 0
 458 607 420 577 371 577 c 0
 322 577 284 607 284 658 c 0xf2
EndSplineSet
EndChar

StartChar: Jcircumflex
Encoding: 308 308 247
Width: 628
GlyphClass: 2
Flags: W
HStem: -10 133<201.192 319.347> 691 20G<346 508>
VStem: 346 162<154.018 711>
LayerCount: 2
Fore
SplineSet
16 218 m 2
 16 225 l 1
 178 225 l 1
 178 218 l 2
 178 154 201 123 262 123 c 0
 318 123 346 164 346 224 c 2
 346 711 l 1
 508 711 l 1
 508 222 l 2
 508 110 444 36 358 6 c 0
 328 -4 297 -10 262 -10 c 0
 114 -10 16 68 16 218 c 2
228 743 m 1
 228 762 l 1
 377 901 l 1
 465 901 l 1
 616 760 l 1
 616 743 l 1
 493 743 l 1
 421 811 l 1
 348 743 l 1
 228 743 l 1
EndSplineSet
Substitution2: "'smcp' Lowercase to Small Capitals in Latin lookup 1 subtable" Jcircumflex.smcp
EndChar

StartChar: jcircumflex
Encoding: 309 309 248
Width: 411
GlyphClass: 2
Flags: W
HStem: -213 129<27.7759 122.022> 508 20G<134 290> 717 20G<138.417 269.277>
VStem: 134 156<-70.4841 528>
LayerCount: 2
Fore
SplineSet
10 579 m 1
 10 598 l 1
 160 737 l 1
 248 737 l 1
 398 596 l 1
 398 579 l 1
 276 579 l 1
 204 647 l 1
 131 579 l 1
 10 579 l 1
20 -203 m 1
 28 -76 l 1
 45 -80 62 -84 83 -84 c 0
 120 -84 134 -55 134 -10 c 2
 134 528 l 1
 290 528 l 1
 290 -10 l 2
 290 -136 224 -213 98 -213 c 0
 68 -213 44 -211 20 -203 c 1
EndSplineSet
Substitution2: "'smcp' Lowercase to Small Capitals in Latin lookup 1 subtable" Jcircumflex.smcp
EndChar

StartChar: Kcedilla
Encoding: 310 310 249
Width: 636
GlyphClass: 2
Flags: W
HStem: -20 20G<232 350> 0 21G<28 190 424.143 629> 691 20G<28 190 422 624>
VStem: 28 162<0 208 405 711> 232 118<-139.677 0>
LayerCount: 2
Fore
SplineSet
28 0 m 1x78
 28 711 l 1
 190 711 l 1
 190 405 l 1
 266 511 345 607 422 708 c 1
 424 711 l 1
 624 711 l 1
 364 394 l 1
 629 -0 l 1
 437 0 l 1
 257 280 l 1
 190 208 l 1
 190 0 l 1
 28 0 l 1x78
191 -178 m 1
 217 -147 232 -105 232 -50 c 2
 232 0 l 1
 350 0 l 1xb8
 350 -42 l 2
 350 -99 328 -147 306 -183 c 0
 296 -199 286 -211 273 -224 c 1
 191 -178 l 1
EndSplineSet
Substitution2: "'smcp' Lowercase to Small Capitals in Latin lookup 1 subtable" Kcommaaccent.smcp
EndChar

StartChar: kcedilla
Encoding: 311 311 250
Width: 545
GlyphClass: 2
Flags: W
HStem: -31 20G<198 316> 0 21G<28 184 346.212 539> 508 20G<333 524> 730 20G<28 184>
VStem: 28 156<0 165 348 750> 198 118<-151.677 -11>
LayerCount: 2
Fore
SplineSet
28 0 m 1
 28 750 l 1
 184 750 l 1
 184 348 l 1
 233 410 284 466 333 525 c 1
 335 528 l 1
 524 528 l 1
 326 306 l 1
 539 -0 l 1
 359 0 l 1
 226 208 l 1
 184 165 l 1
 184 0 l 1
 28 0 l 1
157 -189 m 1
 183 -158 198 -115 198 -60 c 2
 198 -11 l 1
 316 -11 l 1
 316 -54 l 2
 316 -111 294 -159 272 -195 c 0
 262 -211 251 -223 239 -235 c 1
 157 -189 l 1
EndSplineSet
Substitution2: "'smcp' Lowercase to Small Capitals in Latin lookup 1 subtable" Kcommaaccent.smcp
EndChar

StartChar: kra
Encoding: 312 312 251
Width: 565
GlyphClass: 2
Flags: W
HStem: 0 21G<28 184 344.872 557> 508 20G<28 184 339.061 550>
VStem: 28 156<0 195 330 528>
LayerCount: 2
Fore
SplineSet
28 0 m 1
 28 528 l 1
 184 528 l 1
 184 330 l 1
 215 330 l 1
 353 528 l 1
 550 528 l 1
 358 274 l 1
 557 -0 l 1
 358 0 l 1
 230 195 l 1
 184 195 l 1
 184 0 l 1
 28 0 l 1
EndSplineSet
EndChar

StartChar: Lacute
Encoding: 313 313 252
Width: 522
GlyphClass: 2
Flags: W
HStem: 0 133<190 500> 691 20G<28 190> 735 21G<29 178.952>
VStem: 28 162<133 711>
LayerCount: 2
Fore
SplineSet
28 0 m 1
 28 711 l 1
 190 711 l 1
 190 133 l 1
 500 133 l 1
 500 0 l 1
 28 0 l 1
29 735 m 1
 136 901 l 1
 310 901 l 1
 161 735 l 1
 29 735 l 1
EndSplineSet
Substitution2: "'smcp' Lowercase to Small Capitals in Latin lookup 1 subtable" Lacute.smcp
EndChar

StartChar: lacute
Encoding: 314 314 253
Width: 307
GlyphClass: 2
Flags: W
HStem: 0 21G<28 184> 730 20G<28 184>
VStem: 28 156<0 750>
LayerCount: 2
Fore
SplineSet
23 775 m 1
 130 941 l 1
 304 941 l 1
 155 775 l 1
 23 775 l 1
28 0 m 1
 28 750 l 1
 184 750 l 1
 184 0 l 1
 28 0 l 1
EndSplineSet
Substitution2: "'smcp' Lowercase to Small Capitals in Latin lookup 1 subtable" Lacute.smcp
EndChar

StartChar: Lcedilla
Encoding: 315 315 254
Width: 522
GlyphClass: 2
Flags: W
HStem: 0 133<190 500> 691 20G<28 190>
VStem: 28 162<133 711> 206 120<-163.596 -25>
LayerCount: 2
Fore
SplineSet
28 0 m 1
 28 711 l 1
 190 711 l 1
 190 133 l 1
 500 133 l 1
 500 0 l 1
 28 0 l 1
166 -203 m 1
 192 -172 206 -129 206 -74 c 2
 206 -25 l 1
 326 -25 l 1
 326 -68 l 2
 326 -125 303 -173 281 -209 c 0
 271 -225 260 -237 248 -249 c 1
 166 -203 l 1
EndSplineSet
Substitution2: "'smcp' Lowercase to Small Capitals in Latin lookup 1 subtable" Lcommaaccent.smcp
EndChar

StartChar: lcedilla
Encoding: 316 316 255
Width: 221
GlyphClass: 2
Flags: W
HStem: 0 21G<32 188> 730 20G<32 188>
VStem: 32 156<0 750> 52 118<-165.677 -25>
LayerCount: 2
Fore
SplineSet
11 -203 m 1xd0
 37 -172 52 -129 52 -74 c 2
 52 -25 l 1
 170 -25 l 1
 170 -68 l 2
 170 -125 148 -173 126 -209 c 0
 116 -225 105 -237 93 -249 c 1
 11 -203 l 1xd0
32 0 m 1xe0
 32 750 l 1
 188 750 l 1
 188 0 l 1
 32 0 l 1xe0
EndSplineSet
Substitution2: "'smcp' Lowercase to Small Capitals in Latin lookup 1 subtable" Lcommaaccent.smcp
EndChar

StartChar: Lcaron
Encoding: 317 317 256
Width: 520
GlyphClass: 2
Flags: W
HStem: 0 133<190 500> 691 20G<28 190 326 452>
VStem: 28 162<133 711> 326 126<535.389 711>
LayerCount: 2
Fore
SplineSet
28 0 m 1
 28 711 l 1
 190 711 l 1
 190 133 l 1
 500 133 l 1
 500 0 l 1
 28 0 l 1
279 482 m 1
 305 521 326 566 326 628 c 2
 326 711 l 1
 452 711 l 1
 452 628 l 2
 452 588 440 553 426 525 c 1
 411 492 387 464 361 441 c 2
 357 437 l 1
 279 482 l 1
EndSplineSet
Substitution2: "'smcp' Lowercase to Small Capitals in Latin lookup 1 subtable" Lcaron.smcp
EndChar

StartChar: lcaron
Encoding: 318 318 257
Width: 410
GlyphClass: 2
Flags: W
HStem: 0 21G<28 184> 730 20G<28 184 266 392>
VStem: 28 156<0 750> 266 126<574.37 750>
LayerCount: 2
Fore
SplineSet
28 0 m 1
 28 750 l 1
 184 750 l 1
 184 0 l 1
 28 0 l 1
219 521 m 1
 245 560 266 604 266 666 c 2
 266 750 l 1
 392 750 l 1
 392 666 l 2
 392 626 380 593 366 565 c 1
 351 532 327 503 301 480 c 2
 297 476 l 1
 219 521 l 1
EndSplineSet
Substitution2: "'smcp' Lowercase to Small Capitals in Latin lookup 1 subtable" Lcaron.smcp
EndChar

StartChar: Ldot
Encoding: 319 319 258
Width: 521
GlyphClass: 2
Flags: W
HStem: 0 133<190 500> 330 150<276.625 391.046> 691 20G<28 190>
VStem: 28 162<133 711> 254 158<352.258 458.128>
LayerCount: 2
Fore
SplineSet
28 0 m 1
 28 711 l 1
 190 711 l 1
 190 133 l 1
 500 133 l 1
 500 0 l 1
 28 0 l 1
254 405 m 0
 254 451 287 480 333 480 c 0
 379 480 412 450 412 405 c 0
 412 360 379 330 333 330 c 0
 288 330 254 361 254 405 c 0
EndSplineSet
Substitution2: "'smcp' Lowercase to Small Capitals in Latin lookup 1 subtable" Ldot.smcp
EndChar

StartChar: ldot
Encoding: 320 320 259
Width: 396
GlyphClass: 2
Flags: W
HStem: 0 21G<28 184> 304 148<238.75 354.569> 730 20G<28 184>
VStem: 28 156<0 750> 216 160<326.605 430.652>
LayerCount: 2
Fore
SplineSet
28 0 m 1
 28 750 l 1
 184 750 l 1
 184 0 l 1
 28 0 l 1
216 378 m 0
 216 424 250 452 296 452 c 0
 342 452 376 423 376 378 c 0
 376 333 342 304 296 304 c 0
 251 304 216 334 216 378 c 0
EndSplineSet
Substitution2: "'smcp' Lowercase to Small Capitals in Latin lookup 1 subtable" Ldot.smcp
EndChar

StartChar: Lslash
Encoding: 321 321 260
Width: 577
GlyphClass: 2
Flags: W
HStem: 0 133<244 556> 691 20G<84 244>
VStem: 84 160<133 289 446 711>
LayerCount: 2
Fore
SplineSet
18 271 m 1
 18 381 l 1
 84 400 l 1
 84 711 l 1
 244 711 l 1
 244 446 l 1
 350 476 l 1
 350 367 l 1
 244 337 l 1
 244 133 l 1
 556 133 l 1
 556 0 l 1
 84 0 l 1
 84 289 l 1
 18 271 l 1
EndSplineSet
EndChar

StartChar: lslash
Encoding: 322 322 261
Width: 329
GlyphClass: 2
Flags: W
HStem: 0 21G<82 238> 730 20G<82 238>
VStem: 82 156<0 291 453 750>
LayerCount: 2
Fore
SplineSet
18 271 m 1
 18 381 l 1
 82 402 l 1
 82 750 l 1
 238 750 l 1
 238 453 l 1
 308 475 l 1
 308 366 l 1
 238 343 l 1
 238 0 l 1
 82 0 l 1
 82 291 l 1
 18 271 l 1
EndSplineSet
EndChar

StartChar: Nacute
Encoding: 323 323 262
Width: 654
GlyphClass: 2
Flags: W
HStem: 0 21G<28 190 450.84 622> 691 20G<28 198.178 460 622> 735 21G<244 393.952>
VStem: 28 162<0 449> 460 162<261 711>
LayerCount: 2
Fore
SplineSet
28 0 m 1
 28 711 l 1
 186 711 l 1
 460 261 l 1
 460 711 l 1
 622 711 l 1
 622 0 l 1
 463 0 l 1
 190 449 l 1
 190 0 l 1
 28 0 l 1
244 735 m 1
 351 901 l 1
 525 901 l 1
 376 735 l 1
 244 735 l 1
EndSplineSet
Substitution2: "'smcp' Lowercase to Small Capitals in Latin lookup 1 subtable" Nacute.smcp
EndChar

StartChar: nacute
Encoding: 324 324 263
Width: 528
GlyphClass: 2
Flags: W
HStem: 0 21G<28 184 342 498> 408 130<230.858 389.428> 508 20G<28 176.2> 730 20G<277.108 464>
VStem: 28 156<0 388.288> 342 156<0 393.148>
LayerCount: 2
Fore
SplineSet
28 0 m 1xdc
 28 528 l 1
 175 528 l 1xbc
 178 478 l 1
 212 513 261 538 324 538 c 0
 451 538 498 456 498 334 c 2
 498 0 l 1
 342 0 l 1
 342 332 l 2
 342 387 321 408 266 408 c 0
 225 408 200 389 184 365 c 1
 184 0 l 1
 28 0 l 1xdc
183 584 m 1
 290 750 l 1
 464 750 l 1
 315 584 l 1
 183 584 l 1
EndSplineSet
Substitution2: "'smcp' Lowercase to Small Capitals in Latin lookup 1 subtable" Nacute.smcp
EndChar

StartChar: Ncedilla
Encoding: 325 325 264
Width: 654
GlyphClass: 2
Flags: W
HStem: 0 21G<28 190 450.84 622> 691 20G<28 198.178 460 622>
VStem: 28 162<0 449> 266 120<-167.596 -29> 460 162<261 711>
LayerCount: 2
Fore
SplineSet
28 0 m 1
 28 711 l 1
 186 711 l 1
 460 261 l 1
 460 711 l 1
 622 711 l 1
 622 0 l 1
 463 0 l 1
 190 449 l 1
 190 0 l 1
 28 0 l 1
226 -207 m 1
 252 -176 266 -133 266 -78 c 2
 266 -29 l 1
 386 -29 l 1
 386 -72 l 2
 386 -129 363 -177 341 -213 c 0
 331 -229 320 -241 308 -253 c 1
 226 -207 l 1
EndSplineSet
Substitution2: "'smcp' Lowercase to Small Capitals in Latin lookup 1 subtable" Ncommaaccent.smcp
EndChar

StartChar: ncedilla
Encoding: 326 326 265
Width: 529
GlyphClass: 2
Flags: W
HStem: 0 21G<28 184 342 498> 408 130<230.858 389.428> 508 20G<28 176.2>
VStem: 28 156<0 388.288> 204 120<-163.596 -25> 342 156<0 393.148>
LayerCount: 2
Fore
SplineSet
28 0 m 1xdc
 28 528 l 1
 175 528 l 1xbc
 178 478 l 1
 212 513 261 538 324 538 c 0
 451 538 498 456 498 334 c 2
 498 0 l 1
 342 0 l 1
 342 332 l 2
 342 387 321 408 266 408 c 0
 225 408 200 389 184 365 c 1
 184 0 l 1
 28 0 l 1xdc
164 -203 m 1
 190 -172 204 -129 204 -74 c 2
 204 -25 l 1
 324 -25 l 1
 324 -68 l 2
 324 -125 301 -173 279 -209 c 0
 269 -225 258 -237 246 -249 c 1
 164 -203 l 1
EndSplineSet
Substitution2: "'smcp' Lowercase to Small Capitals in Latin lookup 1 subtable" Ncommaaccent.smcp
EndChar

StartChar: Ncaron
Encoding: 327 327 266
Width: 654
GlyphClass: 2
Flags: W
HStem: 0 21G<28 190 450.84 622> 691 20G<28 198.178 460 622>
VStem: 28 162<0 449> 460 162<261 711>
LayerCount: 2
Fore
SplineSet
28 0 m 1
 28 711 l 1
 186 711 l 1
 460 261 l 1
 460 711 l 1
 622 711 l 1
 622 0 l 1
 463 0 l 1
 190 449 l 1
 190 0 l 1
 28 0 l 1
128 886 m 1
 128 901 l 1
 258 901 l 1
 327 835 l 1
 395 901 l 1
 526 901 l 1
 526 885 l 1
 374 744 l 1
 279 744 l 1
 128 886 l 1
EndSplineSet
Substitution2: "'smcp' Lowercase to Small Capitals in Latin lookup 1 subtable" Ncaron.smcp
EndChar

StartChar: ncaron
Encoding: 328 328 267
Width: 527
GlyphClass: 2
Flags: W
HStem: 0 21G<26 182 342 498> 408 130<229.732 388.713> 508 20G<26 175.2> 730 20G<64 215.909 311.394 464>
VStem: 26 156<0 388.288> 342 156<0 393.148>
LayerCount: 2
Fore
SplineSet
26 0 m 1xdc
 26 528 l 1
 174 528 l 1xbc
 177 478 l 1
 211 513 260 538 323 538 c 0
 450 538 498 456 498 334 c 2
 498 0 l 1
 342 0 l 1
 342 332 l 2
 342 387 320 408 265 408 c 0
 224 408 198 389 182 365 c 1
 182 0 l 1
 26 0 l 1xdc
64 735 m 1
 64 750 l 1
 195 750 l 1
 264 684 l 1
 332 750 l 1
 464 750 l 1
 464 734 l 1
 311 593 l 1
 216 593 l 1
 64 735 l 1
EndSplineSet
Substitution2: "'smcp' Lowercase to Small Capitals in Latin lookup 1 subtable" Ncaron.smcp
EndChar

StartChar: napostrophe
Encoding: 329 329 268
Width: 604
GlyphClass: 2
Flags: W
HStem: 0 21G<102 258 418 574> 408 130<305.732 464.713> 730 20G<56 182>
VStem: 56 126<574.005 750> 102 156<0 388.288> 418 156<0 393.148>
LayerCount: 2
Fore
SplineSet
9 521 m 1xec
 35 560 56 604 56 666 c 2
 56 750 l 1
 182 750 l 1
 182 666 l 2xf4
 182 607 158 564 134 528 c 1
 250 528 l 1
 253 478 l 1
 287 513 336 538 399 538 c 0
 526 538 574 456 574 334 c 2
 574 0 l 1
 418 0 l 1
 418 332 l 2
 418 387 396 408 341 408 c 0
 300 408 274 389 258 365 c 1
 258 0 l 1
 102 0 l 1
 102 492 l 1
 97 487 93 482 87 478 c 1
 9 521 l 1xec
EndSplineSet
EndChar

StartChar: Eng
Encoding: 330 330 269
Width: 654
GlyphClass: 2
Flags: W
HStem: -213 133<352.938 448.476> 0 21G<28 190> 691 20G<28 197.965 460 622>
VStem: 28 162<0 459> 460 162<-67.5051 5 253 711>
LayerCount: 2
Fore
SplineSet
28 0 m 1
 28 711 l 1
 186 711 l 1
 460 253 l 1
 460 711 l 1
 622 711 l 1
 622 -6 l 2
 622 -134 553 -213 425 -213 c 0
 395 -213 370 -211 345 -203 c 1
 353 -72 l 1
 371 -76 386 -80 408 -80 c 0
 445 -80 460 -51 460 -6 c 2
 460 5 l 1
 190 459 l 1
 190 0 l 1
 28 0 l 1
EndSplineSet
EndChar

StartChar: eng
Encoding: 331 331 270
Width: 531
GlyphClass: 2
Flags: W
HStem: -213 130<236.776 331.61> 0 21G<28 184> 408 130<234.541 390.974> 508 20G<28 174.639>
VStem: 28 156<0 390.86> 344 156<-70.8377 392.474>
LayerCount: 2
Fore
SplineSet
28 0 m 1xec
 28 528 l 1
 173 528 l 1xdc
 178 467 l 1
 210 508 256 538 323 538 c 0
 454 538 500 447 500 320 c 2
 500 -10 l 2
 500 -137 434 -213 307 -213 c 0
 277 -213 253 -211 229 -203 c 1
 237 -75 l 1
 254 -79 272 -83 293 -83 c 0
 330 -83 344 -55 344 -10 c 2
 344 318 l 2
 344 376 328 408 272 408 c 0
 231 408 202 394 184 372 c 1
 184 0 l 1
 28 0 l 1xec
EndSplineSet
EndChar

StartChar: Omacron
Encoding: 332 332 271
Width: 666
GlyphClass: 2
Flags: W
HStem: -10 135<257.936 406.972> 585 136<255.623 405.898> 765 96<146 518>
VStem: 20 164<211.926 495.748> 478 162<213.816 500.677>
LayerCount: 2
Fore
SplineSet
20 339 m 2
 20 371 l 2
 20 533 89 646 205 696 c 0
 243 712 285 721 331 721 c 0
 431 721 506 680 555 626 c 0
 608 567 640 480 640 371 c 2
 640 339 l 2
 640 176 573 64 457 14 c 0
 419 -2 378 -10 332 -10 c 0
 233 -10 156 31 107 85 c 0
 54 143 20 231 20 339 c 2
146 765 m 1
 146 861 l 1
 518 861 l 1
 518 765 l 1
 146 765 l 1
184 340 m 2
 184 244 208 170 269 139 c 0
 287 130 308 125 332 125 c 0
 439 125 478 219 478 340 c 2
 478 371 l 2
 478 493 439 585 331 585 c 0
 224 585 184 492 184 371 c 2
 184 340 l 2
EndSplineSet
Substitution2: "'smcp' Lowercase to Small Capitals in Latin lookup 1 subtable" Omacron.smcp
EndChar

StartChar: omacron
Encoding: 333 333 272
Width: 561
GlyphClass: 2
Flags: W
HStem: -10 129<214.803 340.522> 409 129<215.916 339.862> 615 96<92 464>
VStem: 20 156<159.375 364.407> 380 156<163.593 365.689>
LayerCount: 2
Fore
SplineSet
20 259 m 2
 20 269 l 2
 20 393 77 479 168 518 c 0
 200 532 236 538 277 538 c 0
 405 538 485 469 518 375 c 0
 529 342 536 308 536 269 c 2
 536 259 l 2
 536 135 479 49 388 10 c 0
 356 -4 319 -10 278 -10 c 0
 150 -10 69 59 36 153 c 0
 25 186 20 220 20 259 c 2
92 615 m 1
 92 711 l 1
 464 711 l 1
 464 615 l 1
 92 615 l 1
176 259 m 2
 176 180 200 119 278 119 c 0
 353 119 380 181 380 259 c 2
 380 269 l 2
 380 347 353 409 277 409 c 0
 202 409 176 346 176 269 c 2
 176 259 l 2
EndSplineSet
Substitution2: "'smcp' Lowercase to Small Capitals in Latin lookup 1 subtable" Omacron.smcp
EndChar

StartChar: Obreve
Encoding: 334 334 273
Width: 666
GlyphClass: 2
Flags: W
HStem: -10 135<257.936 406.972> 585 136<255.623 405.898> 736 96<279.033 382.817>
VStem: 20 164<211.926 495.748> 156 114<844.656 896> 392 116<842.112 896> 478 162<213.816 500.677>
LayerCount: 2
Fore
SplineSet
20 339 m 2xf2
 20 371 l 2
 20 533 89 646 205 696 c 0
 243 712 285 721 331 721 c 0
 431 721 506 680 555 626 c 0
 608 567 640 480 640 371 c 2
 640 339 l 2
 640 176 573 64 457 14 c 0
 419 -2 378 -10 332 -10 c 0
 233 -10 156 31 107 85 c 0
 54 143 20 231 20 339 c 2xf2
156 888 m 2xec
 156 896 l 1
 270 896 l 1
 270 888 l 2
 270 849 292 832 332 832 c 0
 372 832 392 851 392 888 c 2
 392 896 l 1
 508 896 l 1
 508 888 l 2
 508 811 461 767 404 747 c 0
 382 740 358 736 332 736 c 0
 233 736 156 788 156 888 c 2xec
184 340 m 2xf2
 184 244 208 170 269 139 c 0
 287 130 308 125 332 125 c 0
 439 125 478 219 478 340 c 2
 478 371 l 2
 478 493 439 585 331 585 c 0
 224 585 184 492 184 371 c 2
 184 340 l 2xf2
EndSplineSet
Substitution2: "'smcp' Lowercase to Small Capitals in Latin lookup 1 subtable" Obreve.smcp
EndChar

StartChar: obreve
Encoding: 335 335 274
Width: 561
GlyphClass: 2
Flags: W
HStem: -10 129<214.803 340.522> 409 129<215.916 339.862> 585 96<226.429 328.148>
VStem: 20 156<159.375 364.407> 100 116<690.28 745> 338 116<691.989 745> 380 156<163.593 365.689>
LayerCount: 2
Fore
SplineSet
20 259 m 2xf2
 20 269 l 2
 20 393 77 479 168 518 c 0
 200 532 236 538 277 538 c 0
 405 538 485 469 518 375 c 0
 529 342 536 308 536 269 c 2
 536 259 l 2
 536 135 479 49 388 10 c 0
 356 -4 319 -10 278 -10 c 0
 150 -10 69 59 36 153 c 0
 25 186 20 220 20 259 c 2xf2
100 738 m 2xec
 100 745 l 1
 216 745 l 1
 216 738 l 2
 216 699 237 681 277 681 c 0
 317 681 338 701 338 738 c 2
 338 745 l 1
 454 745 l 1
 454 738 l 2
 454 661 406 616 349 596 c 0
 327 589 303 585 277 585 c 0
 178 585 100 637 100 738 c 2xec
176 259 m 2xf2
 176 180 200 119 278 119 c 0
 353 119 380 181 380 259 c 2
 380 269 l 2
 380 347 353 409 277 409 c 0
 202 409 176 346 176 269 c 2
 176 259 l 2xf2
EndSplineSet
Substitution2: "'smcp' Lowercase to Small Capitals in Latin lookup 1 subtable" Obreve.smcp
EndChar

StartChar: Ohungarumlaut
Encoding: 336 336 275
Width: 666
GlyphClass: 2
Flags: W
HStem: -10 135<257.936 406.972> 585 136<255.623 405.898> 739 21G<169 304.185 339 480.778>
VStem: 20 164<211.926 495.748> 478 162<213.816 500.677>
LayerCount: 2
Fore
SplineSet
20 339 m 2
 20 371 l 2
 20 533 89 646 205 696 c 0
 243 712 285 721 331 721 c 0
 431 721 506 680 555 626 c 0
 608 567 640 480 640 371 c 2
 640 339 l 2
 640 176 573 64 457 14 c 0
 419 -2 378 -10 332 -10 c 0
 233 -10 156 31 107 85 c 0
 54 143 20 231 20 339 c 2
169 739 m 1
 269 901 l 1
 412 901 l 1
 289 739 l 1
 169 739 l 1
184 340 m 2
 184 244 208 170 269 139 c 0
 287 130 308 125 332 125 c 0
 439 125 478 219 478 340 c 2
 478 371 l 2
 478 493 439 585 331 585 c 0
 224 585 184 492 184 371 c 2
 184 340 l 2
339 739 m 1
 460 901 l 1
 607 901 l 1
 463 739 l 1
 339 739 l 1
EndSplineSet
Substitution2: "'smcp' Lowercase to Small Capitals in Latin lookup 1 subtable" Ohungarumlaut.smcp
EndChar

StartChar: ohungarumlaut
Encoding: 337 337 276
Width: 563
GlyphClass: 2
Flags: W
HStem: -10 129<214.803 340.522> 409 129<215.916 339.862> 730 20G<201.654 357 390.062 552>
VStem: 20 156<159.375 364.407> 380 156<163.593 365.689>
LayerCount: 2
Fore
SplineSet
20 259 m 2
 20 269 l 2
 20 393 77 479 168 518 c 0
 200 532 236 538 277 538 c 0
 405 538 485 469 518 375 c 0
 529 342 536 308 536 269 c 2
 536 259 l 2
 536 135 479 49 388 10 c 0
 356 -4 319 -10 278 -10 c 0
 150 -10 69 59 36 153 c 0
 25 186 20 220 20 259 c 2
114 588 m 1
 214 750 l 1
 357 750 l 1
 234 588 l 1
 114 588 l 1
176 259 m 2
 176 180 200 119 278 119 c 0
 353 119 380 181 380 259 c 2
 380 269 l 2
 380 347 353 409 277 409 c 0
 202 409 176 346 176 269 c 2
 176 259 l 2
284 588 m 1
 405 750 l 1
 552 750 l 1
 408 588 l 1
 284 588 l 1
EndSplineSet
Substitution2: "'smcp' Lowercase to Small Capitals in Latin lookup 1 subtable" Ohungarumlaut.smcp
EndChar

StartChar: OE
Encoding: 338 338 277
Width: 927
GlyphClass: 2
Flags: W
HStem: -10 129<241.078 412.349> 0 133<576 906> 300 130<576 856> 577 134<576 904> 592 129<239.203 412.625>
VStem: 22 156<184.355 524.359> 414 162<133 300 430 577>
LayerCount: 2
Fore
SplineSet
22 282 m 2xa6
 22 429 l 2
 22 568 96 660 201 700 c 0
 238 714 279 721 324 721 c 0xae
 373 721 423 716 465 711 c 1
 904 711 l 1
 904 577 l 1
 576 577 l 1
 576 430 l 1
 856 430 l 1
 856 300 l 1
 576 300 l 1
 576 133 l 1
 906 133 l 1
 906 0 l 1
 465 0 l 1x76
 420 -5 375 -10 325 -10 c 0
 230 -10 156 24 106 71 c 0
 56 119 22 191 22 282 c 2xa6
178 283 m 2
 178 182 224 119 325 119 c 0
 355 119 387 121 414 124 c 1
 414 586 l 1
 384 590 355 592 324 592 c 0
 224 592 178 529 178 429 c 2
 178 283 l 2
EndSplineSet
EndChar

StartChar: oe
Encoding: 339 339 278
Width: 886
GlyphClass: 2
Flags: W
HStem: -10 129<214.214 339.7 582.495 766.311> 212 104<543 706> 409 129<214.046 335.983 574 682.845>
VStem: 20 156<159.375 364.407> 376 165<160.264 212 316 365.523>
CounterMasks: 1 e0
LayerCount: 2
Fore
SplineSet
20 259 m 2
 20 269 l 2
 20 393 76 479 167 518 c 0
 199 532 235 538 276 538 c 0
 356 538 416 511 457 469 c 1
 497 511 551 539 627 538 c 1
 743 538 814 482 844 396 c 0
 854 367 860 334 860 297 c 2
 860 212 l 1
 541 212 l 1
 551 157 587 119 654 119 c 0
 717 119 758 133 797 156 c 2
 805 160 l 1
 849 55 l 1
 798 16 730 -10 640 -10 c 0
 560 -10 498 19 458 60 c 1
 416 19 357 -10 277 -10 c 0
 149 -10 69 58 37 153 c 0
 26 186 20 220 20 259 c 2
176 259 m 2
 176 180 200 119 277 119 c 0
 353 119 376 180 376 259 c 2
 376 269 l 2
 376 331 359 377 322 399 c 0
 310 406 294 409 276 409 c 0
 201 409 176 347 176 269 c 2
 176 259 l 2
543 316 m 1
 706 316 l 1
 706 322 l 2
 706 377 681 409 627 409 c 0
 574 409 551 366 543 316 c 1
EndSplineSet
EndChar

StartChar: Racute
Encoding: 340 340 279
Width: 611
GlyphClass: 2
Flags: W
HStem: 0 21G<28 190 416.769 596> 260 126<190 294> 577 134<190 374.869> 735 21G<182 331.952>
VStem: 28 162<0 260 386 577> 408 162<416.786 546.514>
LayerCount: 2
Fore
SplineSet
28 0 m 1
 28 711 l 1
 300 711 l 2
 421 711 512 672 551 587 c 0
 563 559 570 528 570 493 c 0
 570 386 517 330 445 295 c 1
 596 16 l 1
 596 0 l 1
 427 0 l 1
 294 260 l 1
 190 260 l 1
 190 0 l 1
 28 0 l 1
182 735 m 1
 289 901 l 1
 463 901 l 1
 314 735 l 1
 182 735 l 1
190 386 m 1
 300 386 l 2
 368 386 408 417 408 480 c 0
 408 544 371 577 300 577 c 2
 190 577 l 1
 190 386 l 1
EndSplineSet
Substitution2: "'smcp' Lowercase to Small Capitals in Latin lookup 1 subtable" Racute.smcp
EndChar

StartChar: racute
Encoding: 341 341 280
Width: 382
GlyphClass: 2
Flags: W
HStem: 0 21G<26 182> 385 153<214.707 337.857> 508 20G<26 175.851> 730 20G<192.108 379>
VStem: 26 156<0 365.337>
LayerCount: 2
Fore
SplineSet
26 0 m 1xd8
 26 528 l 1
 175 528 l 1xb8
 177 481 l 1
 202 514 238 538 289 538 c 0
 307 538 328 534 341 530 c 1
 338 380 l 1
 322 382 297 385 280 385 c 0
 227 385 199 370 182 339 c 1
 182 0 l 1
 26 0 l 1xd8
98 584 m 1
 205 750 l 1
 379 750 l 1
 230 584 l 1
 98 584 l 1
EndSplineSet
Substitution2: "'smcp' Lowercase to Small Capitals in Latin lookup 1 subtable" Racute.smcp
EndChar

StartChar: Rcedilla
Encoding: 342 342 281
Width: 611
GlyphClass: 2
Flags: W
HStem: 0 21G<28 190 416.769 596> 260 126<190 294> 577 134<190 374.869>
VStem: 28 162<0 260 386 577> 212 120<-163.596 -25> 408 162<416.786 546.514>
LayerCount: 2
Fore
SplineSet
28 0 m 1
 28 711 l 1
 300 711 l 2
 421 711 512 672 551 587 c 0
 563 559 570 528 570 493 c 0
 570 386 517 330 445 295 c 1
 596 16 l 1
 596 0 l 1
 427 0 l 1
 294 260 l 1
 190 260 l 1
 190 0 l 1
 28 0 l 1
172 -203 m 1
 198 -172 212 -129 212 -74 c 2
 212 -25 l 1
 332 -25 l 1
 332 -68 l 2
 332 -125 309 -173 287 -209 c 0
 277 -225 266 -237 254 -249 c 1
 172 -203 l 1
190 386 m 1
 300 386 l 2
 368 386 408 417 408 480 c 0
 408 544 371 577 300 577 c 2
 190 577 l 1
 190 386 l 1
EndSplineSet
Substitution2: "'smcp' Lowercase to Small Capitals in Latin lookup 1 subtable" Rcommaaccent.smcp
EndChar

StartChar: rcedilla
Encoding: 343 343 282
Width: 369
GlyphClass: 2
Flags: W
HStem: 0 21G<32 188> 385 153<219.286 342.857> 508 20G<32 180.851>
VStem: 32 156<0 365.337> 54 118<-165.677 -25>
LayerCount: 2
Fore
SplineSet
13 -203 m 1x88
 39 -172 54 -129 54 -74 c 2
 54 -25 l 1
 172 -25 l 1
 172 -68 l 2
 172 -125 150 -173 128 -209 c 0
 118 -225 107 -237 95 -249 c 1
 13 -203 l 1x88
32 0 m 1xd0
 32 528 l 1
 180 528 l 1xb0
 182 481 l 1
 207 514 243 538 294 538 c 0
 312 538 333 534 346 530 c 1
 343 380 l 1
 327 382 302 385 285 385 c 0
 232 385 205 370 188 339 c 1
 188 0 l 1
 32 0 l 1xd0
EndSplineSet
Substitution2: "'smcp' Lowercase to Small Capitals in Latin lookup 1 subtable" Rcommaaccent.smcp
EndChar

StartChar: Rcaron
Encoding: 344 344 283
Width: 611
GlyphClass: 2
Flags: W
HStem: 0 21G<28 190 416.769 596> 260 126<190 294> 577 134<190 374.869>
VStem: 28 162<0 260 386 577> 408 162<416.786 546.514>
LayerCount: 2
Fore
SplineSet
28 0 m 1
 28 711 l 1
 300 711 l 2
 421 711 512 672 551 587 c 0
 563 559 570 528 570 493 c 0
 570 386 517 330 445 295 c 1
 596 16 l 1
 596 0 l 1
 427 0 l 1
 294 260 l 1
 190 260 l 1
 190 0 l 1
 28 0 l 1
64 886 m 1
 64 901 l 1
 195 901 l 1
 264 835 l 1
 332 901 l 1
 464 901 l 1
 464 885 l 1
 311 744 l 1
 216 744 l 1
 64 886 l 1
190 386 m 1
 300 386 l 2
 368 386 408 417 408 480 c 0
 408 544 371 577 300 577 c 2
 190 577 l 1
 190 386 l 1
EndSplineSet
Substitution2: "'smcp' Lowercase to Small Capitals in Latin lookup 1 subtable" Rcaron.smcp
EndChar

StartChar: rcaron
Encoding: 345 345 284
Width: 422
GlyphClass: 2
Flags: W
HStem: 0 21G<56 212> 385 153<243.286 366.857> 508 20G<56 204.851> 730 20G<10 161.909 257.394 410>
VStem: 56 156<0 365.337>
LayerCount: 2
Fore
SplineSet
10 735 m 1x98
 10 750 l 1
 141 750 l 1
 210 684 l 1
 278 750 l 1
 410 750 l 1
 410 734 l 1
 257 593 l 1
 162 593 l 1
 10 735 l 1x98
56 0 m 1
 56 528 l 1
 204 528 l 1xb8
 206 481 l 1
 231 514 267 538 318 538 c 0
 336 538 357 534 370 530 c 1
 367 380 l 1
 351 382 326 385 309 385 c 0xd8
 256 385 229 370 212 339 c 1
 212 0 l 1
 56 0 l 1
EndSplineSet
Substitution2: "'smcp' Lowercase to Small Capitals in Latin lookup 1 subtable" Rcaron.smcp
EndChar

StartChar: Sacute
Encoding: 346 346 285
Width: 599
GlyphClass: 2
Flags: W
HStem: -10 131<217.703 390.751> 589 132<222.796 381.175> 735 21G<223 372.952>
VStem: 38 160<472.697 565.246> 414 162<144.318 245.728 486 557.53>
LayerCount: 2
Fore
SplineSet
16 232 m 2
 16 239 l 1
 178 239 l 1
 178 232 l 2
 178 151 227 121 310 121 c 0
 370 121 414 142 414 193 c 0
 414 239 388 253 350 269 c 0
 332 277 309 285 280 294 c 0
 190 322 99 359 56 437 c 0
 43 461 38 488 38 519 c 0
 38 625 116 681 199 706 c 0
 232 716 267 721 307 721 c 0
 428 721 516 669 556 585 c 1
 568 557 576 527 576 494 c 2
 576 486 l 1
 414 486 l 1
 414 494 l 2
 414 558 372 589 304 589 c 0
 243 589 198 567 198 515 c 0
 198 495 208 479 231 464 c 0
 254 449 288 436 334 422 c 0
 429 394 522 355 560 270 c 0
 570 247 576 220 576 191 c 0
 576 85 505 28 419 4 c 0
 386 -5 350 -10 310 -10 c 0
 171 -10 65 50 28 156 c 0
 20 179 16 204 16 232 c 2
223 735 m 1
 330 901 l 1
 504 901 l 1
 355 735 l 1
 223 735 l 1
EndSplineSet
Substitution2: "'smcp' Lowercase to Small Capitals in Latin lookup 1 subtable" Sacute.smcp
EndChar

StartChar: sacute
Encoding: 347 347 286
Width: 504
GlyphClass: 2
Flags: W
HStem: -10 115<184.718 318.104> 423 115<192.317 308.599> 730 20G<265.108 452>
VStem: 32 150<342.483 411.532> 328 152<116.398 185.831 353 403.752>
LayerCount: 2
Fore
SplineSet
14 176 m 2
 14 183 l 1
 163 183 l 1
 163 176 l 2
 166 128 200 105 253 105 c 0
 297 105 328 120 328 152 c 0
 328 180 307 187 278 197 c 0
 265 202 248 206 226 210 c 0
 151 226 79 253 46 311 c 0
 36 329 32 349 32 372 c 0
 32 424 59 463 90 489 c 1
 128 519 183 538 250 538 c 0
 352 538 427 501 462 432 c 1
 472 410 478 386 478 360 c 2
 478 353 l 1
 322 353 l 1
 322 360 l 2
 322 401 296 423 249 423 c 0
 209 423 182 405 182 374 c 0
 182 350 204 340 229 332 c 0
 264 321 318 313 355 301 c 0
 402 286 441 260 464 221 c 0
 475 202 480 180 480 154 c 0
 480 100 451 61 417 36 c 0
 376 7 319 -10 250 -10 c 0
 144 -10 64 35 30 108 c 0
 20 130 14 154 14 176 c 2
171 584 m 1
 278 750 l 1
 452 750 l 1
 303 584 l 1
 171 584 l 1
EndSplineSet
Substitution2: "'smcp' Lowercase to Small Capitals in Latin lookup 1 subtable" Sacute.smcp
EndChar

StartChar: Scircumflex
Encoding: 348 348 287
Width: 599
GlyphClass: 2
Flags: W
HStem: -10 131<217.703 390.751> 589 132<222.796 381.175>
VStem: 38 160<472.697 565.246> 414 162<144.318 245.728 486 557.53>
LayerCount: 2
Fore
SplineSet
16 232 m 2
 16 239 l 1
 178 239 l 1
 178 232 l 2
 178 151 227 121 310 121 c 0
 370 121 414 142 414 193 c 0
 414 239 388 253 350 269 c 0
 332 277 309 285 280 294 c 0
 190 322 99 359 56 437 c 0
 43 461 38 488 38 519 c 0
 38 625 116 681 199 706 c 0
 232 716 267 721 307 721 c 0
 428 721 516 669 556 585 c 1
 568 557 576 527 576 494 c 2
 576 486 l 1
 414 486 l 1
 414 494 l 2
 414 558 372 589 304 589 c 0
 243 589 198 567 198 515 c 0
 198 495 208 479 231 464 c 0
 254 449 288 436 334 422 c 0
 429 394 522 355 560 270 c 0
 570 247 576 220 576 191 c 0
 576 85 505 28 419 4 c 0
 386 -5 350 -10 310 -10 c 0
 171 -10 65 50 28 156 c 0
 20 179 16 204 16 232 c 2
112 743 m 1
 112 762 l 1
 262 901 l 1
 350 901 l 1
 500 760 l 1
 500 743 l 1
 378 743 l 1
 306 811 l 1
 233 743 l 1
 112 743 l 1
EndSplineSet
Substitution2: "'smcp' Lowercase to Small Capitals in Latin lookup 1 subtable" Scircumflex.smcp
EndChar

StartChar: scircumflex
Encoding: 349 349 288
Width: 503
GlyphClass: 2
Flags: W
HStem: -10 115<183.718 316.72> 423 115<191.681 307.907> 730 20G<187.561 318.418>
VStem: 30 152<342.223 411.532> 326 154<116.041 186.09 353 404.823>
LayerCount: 2
Fore
SplineSet
14 176 m 2
 14 183 l 1
 162 183 l 1
 162 176 l 2
 165 128 199 105 252 105 c 0
 296 105 326 120 326 152 c 0
 326 180 306 187 277 197 c 0
 264 202 247 206 225 210 c 0
 150 226 78 253 45 311 c 0
 35 329 30 349 30 372 c 0
 30 424 58 463 89 489 c 1
 127 519 182 538 249 538 c 0
 351 538 426 501 461 432 c 1
 471 410 478 386 478 360 c 2
 478 353 l 1
 322 353 l 1
 322 360 l 2
 322 401 295 423 248 423 c 0
 208 423 182 405 182 374 c 0
 182 350 203 340 228 332 c 0
 263 321 317 313 354 301 c 0
 401 286 440 260 463 221 c 0
 474 202 480 180 480 154 c 0
 480 100 450 61 416 36 c 0
 375 7 318 -10 249 -10 c 0
 143 -10 63 35 29 108 c 0
 19 130 14 154 14 176 c 2
60 592 m 1
 60 611 l 1
 209 750 l 1
 297 750 l 1
 448 609 l 1
 448 592 l 1
 325 592 l 1
 253 660 l 1
 180 592 l 1
 60 592 l 1
EndSplineSet
Substitution2: "'smcp' Lowercase to Small Capitals in Latin lookup 1 subtable" Scircumflex.smcp
EndChar

StartChar: Scedilla
Encoding: 350 350 289
Width: 599
GlyphClass: 2
Flags: W
HStem: -211 67<265 308.191> 604 102<218.072 384.305>
VStem: 31 132<156.948 224> 52 132<466.821 572.545> 316 104<-134.396 -61.1381> 428 132<136.37 250.8 501 563.333>
LayerCount: 2
Fore
SplineSet
31 224 m 1xec
 163 224 l 1xec
 167 139 225 106 310 106 c 0
 372 106 428 128 428 192 c 0
 428 246 394 265 356 282 c 0
 338 290 313 299 284 308 c 0
 194 336 109 372 70 444 c 0
 59 465 52 490 52 519 c 0
 52 616 122 668 203 692 c 0
 234 702 269 706 307 706 c 0
 424 706 506 656 542 578 c 0
 553 554 559 530 560 501 c 1
 429 501 l 1
 425 570 375 604 304 604 c 0
 241 604 184 581 184 516 c 0xdc
 184 491 198 469 223 452 c 0
 248 436 284 422 330 408 c 0
 425 380 512 342 546 264 c 0
 556 243 560 218 560 191 c 0
 560 74 470 19 357 8 c 1
 352 7 l 1
 346 -24 l 1
 391 -30 420 -52 420 -102 c 0
 420 -160 380 -189 329 -203 c 0
 310 -208 291 -211 265 -211 c 1
 262 -144 l 1
 290 -142 316 -129 316 -96 c 0
 316 -58 281 -55 249 -52 c 1
 262 8 l 1
 152 22 73 74 42 161 c 0
 35 180 32 199 31 224 c 1xec
EndSplineSet
Substitution2: "'smcp' Lowercase to Small Capitals in Latin lookup 1 subtable" Scedilla.smcp
EndChar

StartChar: scedilla
Encoding: 351 351 290
Width: 504
GlyphClass: 2
Flags: W
HStem: -215 67<213 256.191> 438 85<185.494 314.199>
VStem: 46 122<334.428 420.432> 264 104<-138.396 -65.3256> 342 124<106.002 191.579 368 410.363>
LayerCount: 2
Fore
SplineSet
30 163 m 1xf0
 149 163 l 1
 155 112 198 88 253 88 c 0
 299 88 342 104 342 149 c 0
 342 187 311 200 284 209 c 0
 269 214 250 218 228 222 c 0
 155 237 89 264 60 316 c 0
 52 331 46 350 46 371 c 0
 46 418 71 453 100 477 c 0
 134 505 185 523 250 523 c 0
 348 523 417 488 448 425 c 0
 457 407 462 389 463 368 c 1
 337 368 l 1
 333 414 299 438 249 438 c 0
 205 438 168 417 168 375 c 0
 168 339 200 326 225 318 c 0
 262 306 316 298 351 287 c 0
 396 273 429 249 450 214 c 0
 459 198 466 178 466 154 c 0xe8
 466 105 440 70 408 47 c 0
 380 27 344 16 301 7 c 1
 294 -28 l 1
 339 -34 368 -56 368 -106 c 0
 368 -164 328 -193 277 -207 c 0
 258 -212 239 -215 213 -215 c 1
 210 -148 l 1
 238 -146 264 -133 264 -100 c 0
 264 -63 230 -59 197 -56 c 1
 211 7 l 1
 130 17 72 55 44 112 c 0
 36 129 31 145 30 163 c 1xf0
EndSplineSet
Substitution2: "'smcp' Lowercase to Small Capitals in Latin lookup 1 subtable" Scedilla.smcp
EndChar

